<?xml version="1.0" encoding="UTF-8"?>
<!--Generator: Apple Native CoreSVG 175.5-->
<!DOCTYPE svg
PUBLIC "-//W3C//DTD SVG 1.1//EN"
       "http://www.w3.org/Graphics/SVG/1.1/DTD/svg11.dtd">
<svg version="1.1" xmlns="http://www.w3.org/2000/svg" xmlns:xlink="http://www.w3.org/1999/xlink" width="3300" height="2200">
 <!--glyph: "", point size: 100.0, font version: "18.0d12e2", template writer version: "101"-->
 <style>.monochrome-0 {fill:#000000}

.SFSymbolsPreview000000 {fill:#000000;opacity:1.0}
</style>
 <g id="Notes">
  <rect height="2200" id="artboard" style="fill:white;opacity:1" width="3300" x="0" y="0"/>
  <line style="fill:none;stroke:black;opacity:1;stroke-width:0.5;" x1="263" x2="3036" y1="292" y2="292"/>
  <text style="stroke:none;fill:black;font-family:sans-serif;font-size:13;font-weight:bold;" transform="matrix(1 0 0 1 263 322)">Weight/Scale Variations</text>
  <text style="stroke:none;fill:black;font-family:sans-serif;font-size:13;text-anchor:middle;" transform="matrix(1 0 0 1 559.711 322)">Ultralight</text>
  <text style="stroke:none;fill:black;font-family:sans-serif;font-size:13;text-anchor:middle;" transform="matrix(1 0 0 1 856.422 322)">Thin</text>
  <text style="stroke:none;fill:black;font-family:sans-serif;font-size:13;text-anchor:middle;" transform="matrix(1 0 0 1 1153.13 322)">Light</text>
  <text style="stroke:none;fill:black;font-family:sans-serif;font-size:13;text-anchor:middle;" transform="matrix(1 0 0 1 1449.84 322)">Regular</text>
  <text style="stroke:none;fill:black;font-family:sans-serif;font-size:13;text-anchor:middle;" transform="matrix(1 0 0 1 1746.56 322)">Medium</text>
  <text style="stroke:none;fill:black;font-family:sans-serif;font-size:13;text-anchor:middle;" transform="matrix(1 0 0 1 2043.27 322)">Semibold</text>
  <text style="stroke:none;fill:black;font-family:sans-serif;font-size:13;text-anchor:middle;" transform="matrix(1 0 0 1 2339.98 322)">Bold</text>
  <text style="stroke:none;fill:black;font-family:sans-serif;font-size:13;text-anchor:middle;" transform="matrix(1 0 0 1 2636.69 322)">Heavy</text>
  <text style="stroke:none;fill:black;font-family:sans-serif;font-size:13;text-anchor:middle;" transform="matrix(1 0 0 1 2933.4 322)">Black</text>
  <line style="fill:none;stroke:black;opacity:1;stroke-width:0.5;" x1="263" x2="3036" y1="1903" y2="1903"/>
  <g transform="matrix(1 0 0 1 263 1933)">
   <path d="M9.24805 0.830078C13.5547 0.830078 17.1387-2.74414 17.1387-7.05078C17.1387-11.3574 13.5449-14.9316 9.23828-14.9316C4.94141-14.9316 1.36719-11.3574 1.36719-7.05078C1.36719-2.74414 4.95117 0.830078 9.24805 0.830078ZM9.24805-0.654297C5.70312-0.654297 2.87109-3.49609 2.87109-7.05078C2.87109-10.6055 5.69336-13.4473 9.23828-13.4473C12.793-13.4473 15.6445-10.6055 15.6445-7.05078C15.6445-3.49609 12.8027-0.654297 9.24805-0.654297ZM5.6543-7.05078C5.6543-6.62109 5.95703-6.32812 6.40625-6.32812L8.50586-6.32812L8.50586-4.20898C8.50586-3.76953 8.79883-3.4668 9.22852-3.4668C9.67773-3.4668 9.9707-3.76953 9.9707-4.20898L9.9707-6.32812L12.0898-6.32812C12.5293-6.32812 12.832-6.62109 12.832-7.05078C12.832-7.49023 12.5293-7.79297 12.0898-7.79297L9.9707-7.79297L9.9707-9.90234C9.9707-10.3516 9.67773-10.6543 9.22852-10.6543C8.79883-10.6543 8.50586-10.3516 8.50586-9.90234L8.50586-7.79297L6.40625-7.79297C5.95703-7.79297 5.6543-7.49023 5.6543-7.05078Z"/>
  </g>
  <g transform="matrix(1 0 0 1 281.867 1933)">
   <path d="M11.709 2.91016C17.1582 2.91016 21.6699-1.61133 21.6699-7.05078C21.6699-12.5 17.1484-17.0117 11.6992-17.0117C6.25977-17.0117 1.74805-12.5 1.74805-7.05078C1.74805-1.61133 6.26953 2.91016 11.709 2.91016ZM11.709 1.25C7.09961 1.25 3.41797-2.44141 3.41797-7.05078C3.41797-11.6602 7.08984-15.3516 11.6992-15.3516C16.3086-15.3516 20.0098-11.6602 20.0098-7.05078C20.0098-2.44141 16.3184 1.25 11.709 1.25ZM7.17773-7.05078C7.17773-6.57227 7.50977-6.25 8.00781-6.25L10.8789-6.25L10.8789-3.36914C10.8789-2.88086 11.2109-2.53906 11.6895-2.53906C12.1777-2.53906 12.5195-2.87109 12.5195-3.36914L12.5195-6.25L15.4004-6.25C15.8887-6.25 16.2305-6.57227 16.2305-7.05078C16.2305-7.53906 15.8887-7.88086 15.4004-7.88086L12.5195-7.88086L12.5195-10.752C12.5195-11.25 12.1777-11.5918 11.6895-11.5918C11.2109-11.5918 10.8789-11.25 10.8789-10.752L10.8789-7.88086L8.00781-7.88086C7.50977-7.88086 7.17773-7.53906 7.17773-7.05078Z"/>
  </g>
  <g transform="matrix(1 0 0 1 305.646 1933)">
   <path d="M14.9707 5.66406C21.9336 5.66406 27.6953-0.0976562 27.6953-7.05078C27.6953-14.0137 21.9238-19.7754 14.9609-19.7754C8.00781-19.7754 2.25586-14.0137 2.25586-7.05078C2.25586-0.0976562 8.01758 5.66406 14.9707 5.66406ZM14.9707 3.84766C8.93555 3.84766 4.08203-1.01562 4.08203-7.05078C4.08203-13.0957 8.92578-17.9492 14.9609-17.9492C21.0059-17.9492 25.8691-13.0957 25.8691-7.05078C25.8691-1.01562 21.0156 3.84766 14.9707 3.84766ZM9.19922-7.05078C9.19922-6.5332 9.57031-6.17188 10.1172-6.17188L14.0625-6.17188L14.0625-2.2168C14.0625-1.67969 14.4336-1.29883 14.9512-1.29883C15.4883-1.29883 15.8594-1.66992 15.8594-2.2168L15.8594-6.17188L19.8145-6.17188C20.3516-6.17188 20.7324-6.5332 20.7324-7.05078C20.7324-7.59766 20.3613-7.96875 19.8145-7.96875L15.8594-7.96875L15.8594-11.9141C15.8594-12.4609 15.4883-12.8418 14.9512-12.8418C14.4336-12.8418 14.0625-12.4609 14.0625-11.9141L14.0625-7.96875L10.1172-7.96875C9.57031-7.96875 9.19922-7.59766 9.19922-7.05078Z"/>
  </g>
  <text style="stroke:none;fill:black;font-family:sans-serif;font-size:13;font-weight:bold;" transform="matrix(1 0 0 1 263 1953)">Design Variations</text>
  <text style="stroke:none;fill:black;font-family:sans-serif;font-size:13;" transform="matrix(1 0 0 1 263 1971)">Symbols are supported in up to nine weights and three scales.</text>
  <text style="stroke:none;fill:black;font-family:sans-serif;font-size:13;" transform="matrix(1 0 0 1 263 1989)">For optimal layout with text and other symbols, vertically align</text>
  <text style="stroke:none;fill:black;font-family:sans-serif;font-size:13;" transform="matrix(1 0 0 1 263 2007)">symbols with the adjacent text.</text>
  <line style="fill:none;stroke:#00AEEF;stroke-width:0.5;opacity:1.0;" x1="776" x2="776" y1="1919" y2="1933"/>
  <g transform="matrix(1 0 0 1 776 1933)">
   <path d="M3.31055 0.15625C3.82812 0.15625 4.08203-0.0390625 4.26758-0.585938L5.52734-4.0332L11.2891-4.0332L12.5488-0.585938C12.7344-0.0390625 12.9883 0.15625 13.4961 0.15625C14.0137 0.15625 14.3457-0.15625 14.3457-0.644531C14.3457-0.810547 14.3164-0.966797 14.2383-1.17188L9.6582-13.3691C9.43359-13.9648 9.0332-14.2676 8.4082-14.2676C7.80273-14.2676 7.39258-13.9746 7.17773-13.3789L2.59766-1.16211C2.51953-0.957031 2.49023-0.800781 2.49023-0.634766C2.49023-0.146484 2.80273 0.15625 3.31055 0.15625ZM6.00586-5.51758L8.37891-12.0898L8.42773-12.0898L10.8008-5.51758Z"/>
  </g>
  <line style="fill:none;stroke:#00AEEF;stroke-width:0.5;opacity:1.0;" x1="793.197" x2="793.197" y1="1919" y2="1933"/>
  <text style="stroke:none;fill:black;font-family:sans-serif;font-size:13;font-weight:bold;" transform="matrix(1 0 0 1 776 1953)">Margins</text>
  <text style="stroke:none;fill:black;font-family:sans-serif;font-size:13;" transform="matrix(1 0 0 1 776 1971)">Leading and trailing margins on the left and right side of each symbol</text>
  <text style="stroke:none;fill:black;font-family:sans-serif;font-size:13;" transform="matrix(1 0 0 1 776 1989)">can be adjusted by modifying the x-location of the margin guidelines.</text>
  <text style="stroke:none;fill:black;font-family:sans-serif;font-size:13;" transform="matrix(1 0 0 1 776 2007)">Modifications are automatically applied proportionally to all</text>
  <text style="stroke:none;fill:black;font-family:sans-serif;font-size:13;" transform="matrix(1 0 0 1 776 2025)">scales and weights.</text>
  <g transform="matrix(1 0 0 1 1289 1933)">
   <path d="M2.8418 1.86523L4.54102 3.57422C5.40039 4.44336 6.38672 4.38477 7.31445 3.35938L18.0078-8.42773L17.041-9.4043L6.42578 2.27539C6.07422 2.67578 5.74219 2.77344 5.27344 2.30469L4.10156 1.14258C3.63281 0.683594 3.74023 0.341797 4.14062-0.0195312L15.6152-10.8203L14.6387-11.7871L3.04688-0.898438C2.06055 0.0195312 1.98242 0.996094 2.8418 1.86523ZM9.25781-16.3281C8.83789-15.918 8.80859-15.3418 9.04297-14.9512C9.27734-14.5898 9.73633-14.3555 10.3809-14.5215C11.8457-14.8633 13.3691-14.9219 14.7949-13.9844L14.209-12.5293C13.8672-11.6992 14.043-11.1133 14.5801-10.5664L16.875-8.25195C17.3633-7.76367 17.7734-7.74414 18.3398-7.8418L19.4043-8.03711L20.0684-7.36328L20.0293-6.80664C19.9902-6.30859 20.1172-5.92773 20.6055-5.44922L21.3672-4.70703C21.8457-4.22852 22.4609-4.19922 22.9297-4.66797L25.8398-7.58789C26.3086-8.05664 26.2891-8.65234 25.8105-9.13086L25.0391-9.89258C24.5605-10.3711 24.1895-10.5273 23.7109-10.4883L23.1348-10.4395L22.4902-11.0742L22.7344-12.1973C22.8613-12.7637 22.7051-13.2031 22.1191-13.7891L19.9219-15.9766C16.582-19.2969 12.1484-19.2188 9.25781-16.3281ZM10.752-15.957C13.1836-17.7344 16.4746-17.4316 18.7012-15.2051L21.1328-12.793C21.3672-12.5586 21.4062-12.373 21.3379-12.0312L21.0156-10.5469L22.5195-9.0625L23.5059-9.12109C23.7598-9.13086 23.8379-9.11133 24.0332-8.91602L24.6094-8.33984L22.168-5.89844L21.5918-6.47461C21.3965-6.66992 21.3672-6.74805 21.377-7.01172L21.4453-7.98828L19.9512-9.47266L18.4277-9.21875C18.1055-9.15039 17.959-9.17969 17.7148-9.41406L15.7129-11.416C15.459-11.6504 15.4297-11.8164 15.5859-12.1875L16.4648-14.2773C14.9023-15.7324 12.8711-16.3574 10.8398-15.7617C10.6836-15.7227 10.625-15.8496 10.752-15.957Z"/>
  </g>
  <text style="stroke:none;fill:black;font-family:sans-serif;font-size:13;font-weight:bold;" transform="matrix(1 0 0 1 1289 1953)">Exporting</text>
  <text style="stroke:none;fill:black;font-family:sans-serif;font-size:13;" transform="matrix(1 0 0 1 1289 1971)">Symbols should be outlined when exporting to ensure the</text>
  <text style="stroke:none;fill:black;font-family:sans-serif;font-size:13;" transform="matrix(1 0 0 1 1289 1989)">design is preserved when submitting to Xcode.</text>
  <text id="template-version" style="stroke:none;fill:black;font-family:sans-serif;font-size:13;text-anchor:end;" transform="matrix(1 0 0 1 3036 1933)">Template v.4.0</text>
  <text style="stroke:none;fill:black;font-family:sans-serif;font-size:13;text-anchor:end;" transform="matrix(1 0 0 1 3036 1951)">Requires Xcode 14 or greater</text>
  <text id="descriptive-name" style="stroke:none;fill:black;font-family:sans-serif;font-size:13;text-anchor:end;" transform="matrix(1 0 0 1 3036 1969)">Generated from persons</text>
  <text style="stroke:none;fill:black;font-family:sans-serif;font-size:13;text-anchor:end;" transform="matrix(1 0 0 1 3036 1987)">Typeset at 100 points</text>
  <text style="stroke:none;fill:black;font-family:sans-serif;font-size:13;" transform="matrix(1 0 0 1 263 726)">Small</text>
  <text style="stroke:none;fill:black;font-family:sans-serif;font-size:13;" transform="matrix(1 0 0 1 263 1156)">Medium</text>
  <text style="stroke:none;fill:black;font-family:sans-serif;font-size:13;" transform="matrix(1 0 0 1 263 1586)">Large</text>
 </g>
 <g id="Guides">
  <g id="H-reference" style="fill:#27AAE1;stroke:none;" transform="matrix(1 0 0 1 339 696)">
   <path d="M0.993654 0L3.63775 0L29.3281-67.1323L30.0303-67.1323L30.0303-70.459L28.1226-70.459ZM11.6885-24.4799L46.9815-24.4799L46.2315-26.7285L12.4385-26.7285ZM55.1196 0L57.7637 0L30.6382-70.459L29.4326-70.459L29.4326-67.1323Z"/>
  </g>
  <line id="Baseline-S" style="fill:none;stroke:#27AAE1;opacity:1;stroke-width:0.5;" x1="263" x2="3036" y1="696" y2="696"/>
  <line id="Capline-S" style="fill:none;stroke:#27AAE1;opacity:1;stroke-width:0.5;" x1="263" x2="3036" y1="625.541" y2="625.541"/>
  <g id="H-reference" style="fill:#27AAE1;stroke:none;" transform="matrix(1 0 0 1 339 1126)">
   <path d="M0.993654 0L3.63775 0L29.3281-67.1323L30.0303-67.1323L30.0303-70.459L28.1226-70.459ZM11.6885-24.4799L46.9815-24.4799L46.2315-26.7285L12.4385-26.7285ZM55.1196 0L57.7637 0L30.6382-70.459L29.4326-70.459L29.4326-67.1323Z"/>
  </g>
  <line id="Baseline-M" style="fill:none;stroke:#27AAE1;opacity:1;stroke-width:0.5;" x1="263" x2="3036" y1="1126" y2="1126"/>
  <line id="Capline-M" style="fill:none;stroke:#27AAE1;opacity:1;stroke-width:0.5;" x1="263" x2="3036" y1="1055.54" y2="1055.54"/>
  <g id="H-reference" style="fill:#27AAE1;stroke:none;" transform="matrix(1 0 0 1 339 1556)">
   <path d="M0.993654 0L3.63775 0L29.3281-67.1323L30.0303-67.1323L30.0303-70.459L28.1226-70.459ZM11.6885-24.4799L46.9815-24.4799L46.2315-26.7285L12.4385-26.7285ZM55.1196 0L57.7637 0L30.6382-70.459L29.4326-70.459L29.4326-67.1323Z"/>
  </g>
  <line id="Baseline-L" style="fill:none;stroke:#27AAE1;opacity:1;stroke-width:0.5;" x1="263" x2="3036" y1="1556" y2="1556"/>
  <line id="Capline-L" style="fill:none;stroke:#27AAE1;opacity:1;stroke-width:0.5;" x1="263" x2="3036" y1="1485.54" y2="1485.54"/>
  <line id="left-margin-Ultralight-S" style="fill:none;stroke:#00AEEF;stroke-width:0.5;opacity:1.0;" x1="497.836" x2="497.836" y1="600.785" y2="720.121"/>
  <line id="right-margin-Ultralight-S" style="fill:none;stroke:#00AEEF;stroke-width:0.5;opacity:1.0;" x1="621.586" x2="621.586" y1="600.785" y2="720.121"/>
  <line id="left-margin-Regular-S" style="fill:none;stroke:#00AEEF;stroke-width:0.5;opacity:1.0;" x1="1386.54" x2="1386.54" y1="600.785" y2="720.121"/>
  <line id="right-margin-Regular-S" style="fill:none;stroke:#00AEEF;stroke-width:0.5;opacity:1.0;" x1="1513.15" x2="1513.15" y1="600.785" y2="720.121"/>
  <line id="left-margin-Black-S" style="fill:none;stroke:#00AEEF;stroke-width:0.5;opacity:1.0;" x1="2868.31" x2="2868.31" y1="600.785" y2="720.121"/>
  <line id="right-margin-Black-S" style="fill:none;stroke:#00AEEF;stroke-width:0.5;opacity:1.0;" x1="2998.49" x2="2998.49" y1="600.785" y2="720.121"/>
 </g>
 <g id="Symbols">
  <g id="Black-S" transform="matrix(1 0 0 1 2868.31 696)">
   <path class="monochrome-0 SFSymbolsPreview000000" d="M52.4614-6.4244C53.3434-18.5654 57.7813-27.8669 65.709-34.1882C70.8136-38.2582 72.1917-38.6365 81.9185-38.6365C91.6455-38.6365 93.0236-38.258 98.1278-34.1882C106.056-27.8669 110.494-18.5654 111.375-6.4244L112.104 3.60383L81.9187 3.60383L51.7333 3.60383ZM102.387-11.0067C100.413-23.1685 92.5462-30.761 81.9185-30.761C71.2908-30.761 63.4236-23.1685 61.4497-11.0067L60.4726-4.98731L81.9185-4.98731L103.364-4.98731ZM13.2194-6.4244C14.0985-18.5282 18.5365-27.8643 26.3864-34.1237C30.9496-37.7623 33.4189-38.5897 40.9138-38.9913C51.3403-39.5504 55.165-37.9381 52.7007-34.0236C51.608-32.2876 48.601-31.2352 43.2537-30.717C38.9395-30.2993 33.9964-29.1795 32.2692-28.2292C27.8582-25.8026 23.3592-18.1019 22.2077-11.0067L21.2306-4.98731L32.0651-4.98731L42.9-4.98731L42.2596-0.691745L41.6194 3.60383L27.0548 3.60383L12.4907 3.60383ZM34.8429-47.078C24.66-52.6382 25.553-67.6096 36.3968-73.1341C45.3471-77.694 57.9146-69.9264 57.932-59.8238C57.9576-48.5818 45.0905-41.4824 34.8429-47.078ZM74.0847-47.078C63.902-52.6382 64.795-67.6096 75.6389-73.1341C84.6831-77.7417 97.1571-69.9133 97.1738-59.6195C97.1994-48.7234 84.0971-41.6108 74.0847-47.078ZM85.8009-54.6088C87.2627-55.9124 88.4588-57.9556 88.4588-59.1497C88.4588-61.8807 84.2529-66.5579 81.797-66.5579C79.0629-66.5579 75.3783-62.4482 75.3783-59.3985C75.3783-56.4748 79.0262-52.2391 81.5445-52.2391C82.4233-52.2391 84.3392-53.3055 85.8009-54.6088ZM46.9329-54.4892C48.1891-55.7268 49.2168-57.9359 49.2168-59.3985C49.2168-62.3222 45.5687-66.5579 43.0504-66.5579C40.6073-66.5579 36.1363-62.0891 36.1363-59.6473C36.1363-56.9163 40.3422-52.2391 42.7981-52.2391C43.8161-52.2391 45.6767-53.2519 46.9329-54.4892Z"/>
  </g>
  <g id="Regular-S" transform="matrix(1 0 0 1 1386.54 696)">
   <path class="monochrome-0 SFSymbolsPreview000000" d="M51.5917-8.69941C52.4269-20.3688 56.6293-29.309 64.1362-35.3849C68.9698-39.2968 70.2747-39.6604 79.4852-39.6604C88.6959-39.6604 90.0008-39.2966 94.8342-35.3849C102.341-29.309 106.544-20.3688 107.379-8.69941L108.069 0.939311L79.4854 0.939311L50.9022 0.939311ZM98.8676-13.1038C96.9983-24.7931 89.5487-32.0908 79.4852-32.0908C69.4216-32.0908 61.972-24.7931 60.1029-13.1038L59.1777-7.31815L79.4852-7.31815L99.7927-7.31815ZM14.4327-8.69941C15.2652-20.3331 19.4675-29.3066 26.9008-35.3229C31.2218-38.8202 33.5599-39.6154 40.6571-40.0014C50.5301-40.5388 54.1518-38.9891 51.8183-35.2266C50.7836-33.5581 47.9362-32.5465 42.8727-32.0485C38.7875-31.647 34.1068-30.5707 32.4713-29.6573C28.2945-27.325 24.0342-19.9233 22.9439-13.1038L22.0186-7.31815L32.2781-7.31815L42.5378-7.31815L41.9314-3.18942L41.3252 0.939311L27.5337 0.939311L13.7427 0.939311ZM34.9084-47.774C25.266-53.1182 26.1116-67.5081 36.3798-72.8181C44.8551-77.2008 56.7554-69.735 56.7719-60.0248C56.7962-49.2194 44.612-42.3957 34.9084-47.774ZM72.0672-47.774C62.4251-53.1182 63.2707-67.5081 73.5389-72.8181C82.1031-77.2467 93.9149-69.7223 93.9307-59.8284C93.955-49.3555 81.5482-42.5192 72.0672-47.774ZM83.1616-55.0123C84.5458-56.2652 85.6784-58.2291 85.6784-59.3768C85.6784-62.0018 81.6957-66.4973 79.3702-66.4973C76.7812-66.4973 73.2922-62.5472 73.2922-59.616C73.2922-56.8058 76.7465-52.7347 79.131-52.7347C79.9632-52.7347 81.7774-53.7596 83.1616-55.0123ZM46.3566-54.8973C47.5462-56.0868 48.5193-58.2101 48.5193-59.616C48.5193-62.4261 45.0648-66.4973 42.6802-66.4973C40.3669-66.4973 36.1331-62.202 36.1331-59.8551C36.1331-57.2302 40.1158-52.7347 42.4413-52.7347C43.4053-52.7347 45.1671-53.7081 46.3566-54.8973Z"/>
  </g>
  <g id="Ultralight-S" transform="matrix(1 0 0 1 497.836 696)">
   <path class="monochrome-0 SFSymbolsPreview000000" d="M50.7253-8.77129C51.5267-19.9692 55.5592-28.5481 62.7628-34.3784C67.4011-38.1322 68.6533-38.4811 77.4915-38.4811C86.33-38.4811 87.5822-38.132 92.2203-34.3784C99.4238-28.5481 103.457-19.9692 104.258-8.77129L104.92 0.47793L77.4918 0.47793L50.0636 0.47793ZM96.0907-12.9977C94.297-24.2146 87.1484-31.2174 77.4915-31.2174C67.8346-31.2174 60.6861-24.2146 58.8926-12.9977L58.0047-7.44584L77.4915-7.44584L96.9784-7.44584ZM15.0679-8.77129C15.8667-19.9349 19.8992-28.5457 27.0321-34.3189C31.1785-37.6748 33.4222-38.438 40.2325-38.8083C49.7066-39.324 53.1819-37.8369 50.9427-34.2265C49.9498-32.6254 47.2175-31.6547 42.3586-31.1768C38.4385-30.7915 33.9469-29.7588 32.3775-28.8823C28.3695-26.6442 24.2814-19.5416 23.2351-12.9977L22.3472-7.44584L32.1921-7.44584L42.0372-7.44584L41.4553-3.48396L40.8737 0.47793L27.6395 0.47793L14.4057 0.47793ZM34.7161-46.2668C25.4634-51.3951 26.2748-65.2035 36.1281-70.2989C44.2608-74.5045 55.6803-67.3404 55.6961-58.0226C55.7194-47.6538 44.0276-41.1059 34.7161-46.2668ZM70.3733-46.2668C61.1208-51.3951 61.9323-65.2035 71.7856-70.2989C80.0036-74.5486 91.3382-67.3282 91.3534-57.8341C91.3767-47.7844 79.4712-41.2244 70.3733-46.2668ZM81.0194-53.2127C82.3476-54.415 83.4345-56.2995 83.4345-57.4008C83.4345-59.9197 79.6128-64.2335 77.3812-64.2335C74.8968-64.2335 71.5488-60.443 71.5488-57.6303C71.5488-54.9337 74.8635-51.0271 77.1517-51.0271C77.9503-51.0271 79.6911-52.0106 81.0194-53.2127ZM45.7017-53.1023C46.8432-54.2438 47.777-56.2813 47.777-57.6303C47.777-60.3269 44.4621-64.2335 42.1739-64.2335C39.954-64.2335 35.8914-60.1118 35.8914-57.8598C35.8914-55.3409 39.7131-51.0271 41.9447-51.0271C42.8696-51.0271 44.5603-51.9611 45.7018-53.1023Z"/>
  </g>
 </g>
</svg>
