<?xml version="1.0" encoding="UTF-8" standalone="no"?>
<!--Generator: Apple Native CoreSVG 175.5-->

<svg
   version="1.1"
   width="3300"
   height="2200"
   id="svg33"
   sodipodi:docname="twitter.house.fill.svg"
   inkscape:version="1.3 (0e150ed, 2023-07-21)"
   xmlns:inkscape="http://www.inkscape.org/namespaces/inkscape"
   xmlns:sodipodi="http://sodipodi.sourceforge.net/DTD/sodipodi-0.dtd"
   xmlns="http://www.w3.org/2000/svg"
   xmlns:svg="http://www.w3.org/2000/svg">
  <defs
     id="defs33" />
  <sodipodi:namedview
     id="namedview33"
     pagecolor="#ffffff"
     bordercolor="#000000"
     borderopacity="0.25"
     inkscape:showpageshadow="2"
     inkscape:pageopacity="0.0"
     inkscape:pagecheckerboard="0"
     inkscape:deskcolor="#d1d1d1"
     showguides="false"
     inkscape:zoom="1.011377"
     inkscape:cx="1395.622"
     inkscape:cy="919.04406"
     inkscape:window-width="2560"
     inkscape:window-height="1080"
     inkscape:window-x="1080"
     inkscape:window-y="0"
     inkscape:window-maximized="0"
     inkscape:current-layer="svg33" />
  <!--glyph: "", point size: 100.0, font version: "18.0d12e2", template writer version: "101"-->
  <style
     id="style1">.monochrome-0 {fill:#000000}&#10;&#10;.SFSymbolsPreview000000 {fill:#000000;opacity:1.0}&#10;</style>
  <g
     id="Notes">
    <rect
       height="2200"
       id="artboard"
       style="fill:white;opacity:1"
       width="3300"
       x="0"
       y="0" />
    <line
       style="fill:none;stroke:black;opacity:1;stroke-width:0.5;"
       x1="263"
       x2="3036"
       y1="292"
       y2="292"
       id="line1" />
    <text
       style="stroke:none;fill:black;font-family:sans-serif;font-size:13;font-weight:bold;"
       transform="matrix(1 0 0 1 263 322)"
       id="text1">Weight/Scale Variations</text>
    <text
       style="stroke:none;fill:black;font-family:sans-serif;font-size:13;text-anchor:middle;"
       transform="matrix(1 0 0 1 559.711 322)"
       id="text2">Ultralight</text>
    <text
       style="stroke:none;fill:black;font-family:sans-serif;font-size:13;text-anchor:middle;"
       transform="matrix(1 0 0 1 856.422 322)"
       id="text3">Thin</text>
    <text
       style="stroke:none;fill:black;font-family:sans-serif;font-size:13;text-anchor:middle;"
       transform="matrix(1 0 0 1 1153.13 322)"
       id="text4">Light</text>
    <text
       style="stroke:none;fill:black;font-family:sans-serif;font-size:13;text-anchor:middle;"
       transform="matrix(1 0 0 1 1449.84 322)"
       id="text5">Regular</text>
    <text
       style="stroke:none;fill:black;font-family:sans-serif;font-size:13;text-anchor:middle;"
       transform="matrix(1 0 0 1 1746.56 322)"
       id="text6">Medium</text>
    <text
       style="stroke:none;fill:black;font-family:sans-serif;font-size:13;text-anchor:middle;"
       transform="matrix(1 0 0 1 2043.27 322)"
       id="text7">Semibold</text>
    <text
       style="stroke:none;fill:black;font-family:sans-serif;font-size:13;text-anchor:middle;"
       transform="matrix(1 0 0 1 2339.98 322)"
       id="text8">Bold</text>
    <text
       style="stroke:none;fill:black;font-family:sans-serif;font-size:13;text-anchor:middle;"
       transform="matrix(1 0 0 1 2636.69 322)"
       id="text9">Heavy</text>
    <text
       style="stroke:none;fill:black;font-family:sans-serif;font-size:13;text-anchor:middle;"
       transform="matrix(1 0 0 1 2933.4 322)"
       id="text10">Black</text>
    <line
       style="fill:none;stroke:black;opacity:1;stroke-width:0.5;"
       x1="263"
       x2="3036"
       y1="1903"
       y2="1903"
       id="line10" />
    <g
       transform="matrix(1 0 0 1 263 1933)"
       id="g10">
      <path
         d="M9.24805 0.830078C13.5547 0.830078 17.1387-2.74414 17.1387-7.05078C17.1387-11.3574 13.5449-14.9316 9.23828-14.9316C4.94141-14.9316 1.36719-11.3574 1.36719-7.05078C1.36719-2.74414 4.95117 0.830078 9.24805 0.830078ZM9.24805-0.654297C5.70312-0.654297 2.87109-3.49609 2.87109-7.05078C2.87109-10.6055 5.69336-13.4473 9.23828-13.4473C12.793-13.4473 15.6445-10.6055 15.6445-7.05078C15.6445-3.49609 12.8027-0.654297 9.24805-0.654297ZM5.6543-7.05078C5.6543-6.62109 5.95703-6.32812 6.40625-6.32812L8.50586-6.32812L8.50586-4.20898C8.50586-3.76953 8.79883-3.4668 9.22852-3.4668C9.67773-3.4668 9.9707-3.76953 9.9707-4.20898L9.9707-6.32812L12.0898-6.32812C12.5293-6.32812 12.832-6.62109 12.832-7.05078C12.832-7.49023 12.5293-7.79297 12.0898-7.79297L9.9707-7.79297L9.9707-9.90234C9.9707-10.3516 9.67773-10.6543 9.22852-10.6543C8.79883-10.6543 8.50586-10.3516 8.50586-9.90234L8.50586-7.79297L6.40625-7.79297C5.95703-7.79297 5.6543-7.49023 5.6543-7.05078Z"
         id="path10" />
    </g>
    <g
       transform="matrix(1 0 0 1 281.867 1933)"
       id="g11">
      <path
         d="M11.709 2.91016C17.1582 2.91016 21.6699-1.61133 21.6699-7.05078C21.6699-12.5 17.1484-17.0117 11.6992-17.0117C6.25977-17.0117 1.74805-12.5 1.74805-7.05078C1.74805-1.61133 6.26953 2.91016 11.709 2.91016ZM11.709 1.25C7.09961 1.25 3.41797-2.44141 3.41797-7.05078C3.41797-11.6602 7.08984-15.3516 11.6992-15.3516C16.3086-15.3516 20.0098-11.6602 20.0098-7.05078C20.0098-2.44141 16.3184 1.25 11.709 1.25ZM7.17773-7.05078C7.17773-6.57227 7.50977-6.25 8.00781-6.25L10.8789-6.25L10.8789-3.36914C10.8789-2.88086 11.2109-2.53906 11.6895-2.53906C12.1777-2.53906 12.5195-2.87109 12.5195-3.36914L12.5195-6.25L15.4004-6.25C15.8887-6.25 16.2305-6.57227 16.2305-7.05078C16.2305-7.53906 15.8887-7.88086 15.4004-7.88086L12.5195-7.88086L12.5195-10.752C12.5195-11.25 12.1777-11.5918 11.6895-11.5918C11.2109-11.5918 10.8789-11.25 10.8789-10.752L10.8789-7.88086L8.00781-7.88086C7.50977-7.88086 7.17773-7.53906 7.17773-7.05078Z"
         id="path11" />
    </g>
    <g
       transform="matrix(1 0 0 1 305.646 1933)"
       id="g12">
      <path
         d="M14.9707 5.66406C21.9336 5.66406 27.6953-0.0976562 27.6953-7.05078C27.6953-14.0137 21.9238-19.7754 14.9609-19.7754C8.00781-19.7754 2.25586-14.0137 2.25586-7.05078C2.25586-0.0976562 8.01758 5.66406 14.9707 5.66406ZM14.9707 3.84766C8.93555 3.84766 4.08203-1.01562 4.08203-7.05078C4.08203-13.0957 8.92578-17.9492 14.9609-17.9492C21.0059-17.9492 25.8691-13.0957 25.8691-7.05078C25.8691-1.01562 21.0156 3.84766 14.9707 3.84766ZM9.19922-7.05078C9.19922-6.5332 9.57031-6.17188 10.1172-6.17188L14.0625-6.17188L14.0625-2.2168C14.0625-1.67969 14.4336-1.29883 14.9512-1.29883C15.4883-1.29883 15.8594-1.66992 15.8594-2.2168L15.8594-6.17188L19.8145-6.17188C20.3516-6.17188 20.7324-6.5332 20.7324-7.05078C20.7324-7.59766 20.3613-7.96875 19.8145-7.96875L15.8594-7.96875L15.8594-11.9141C15.8594-12.4609 15.4883-12.8418 14.9512-12.8418C14.4336-12.8418 14.0625-12.4609 14.0625-11.9141L14.0625-7.96875L10.1172-7.96875C9.57031-7.96875 9.19922-7.59766 9.19922-7.05078Z"
         id="path12" />
    </g>
    <text
       style="stroke:none;fill:black;font-family:sans-serif;font-size:13;font-weight:bold;"
       transform="matrix(1 0 0 1 263 1953)"
       id="text12">Design Variations</text>
    <text
       style="stroke:none;fill:black;font-family:sans-serif;font-size:13;"
       transform="matrix(1 0 0 1 263 1971)"
       id="text13">Symbols are supported in up to nine weights and three scales.</text>
    <text
       style="stroke:none;fill:black;font-family:sans-serif;font-size:13;"
       transform="matrix(1 0 0 1 263 1989)"
       id="text14">For optimal layout with text and other symbols, vertically align</text>
    <text
       style="stroke:none;fill:black;font-family:sans-serif;font-size:13;"
       transform="matrix(1 0 0 1 263 2007)"
       id="text15">symbols with the adjacent text.</text>
    <line
       style="fill:none;stroke:#00AEEF;stroke-width:0.5;opacity:1.0;"
       x1="776"
       x2="776"
       y1="1919"
       y2="1933"
       id="line15" />
    <g
       transform="matrix(1 0 0 1 776 1933)"
       id="g15">
      <path
         d="M3.31055 0.15625C3.82812 0.15625 4.08203-0.0390625 4.26758-0.585938L5.52734-4.0332L11.2891-4.0332L12.5488-0.585938C12.7344-0.0390625 12.9883 0.15625 13.4961 0.15625C14.0137 0.15625 14.3457-0.15625 14.3457-0.644531C14.3457-0.810547 14.3164-0.966797 14.2383-1.17188L9.6582-13.3691C9.43359-13.9648 9.0332-14.2676 8.4082-14.2676C7.80273-14.2676 7.39258-13.9746 7.17773-13.3789L2.59766-1.16211C2.51953-0.957031 2.49023-0.800781 2.49023-0.634766C2.49023-0.146484 2.80273 0.15625 3.31055 0.15625ZM6.00586-5.51758L8.37891-12.0898L8.42773-12.0898L10.8008-5.51758Z"
         id="path15" />
    </g>
    <line
       style="fill:none;stroke:#00AEEF;stroke-width:0.5;opacity:1.0;"
       x1="793.197"
       x2="793.197"
       y1="1919"
       y2="1933"
       id="line16" />
    <text
       style="stroke:none;fill:black;font-family:sans-serif;font-size:13;font-weight:bold;"
       transform="matrix(1 0 0 1 776 1953)"
       id="text16">Margins</text>
    <text
       style="stroke:none;fill:black;font-family:sans-serif;font-size:13;"
       transform="matrix(1 0 0 1 776 1971)"
       id="text17">Leading and trailing margins on the left and right side of each symbol</text>
    <text
       style="stroke:none;fill:black;font-family:sans-serif;font-size:13;"
       transform="matrix(1 0 0 1 776 1989)"
       id="text18">can be adjusted by modifying the x-location of the margin guidelines.</text>
    <text
       style="stroke:none;fill:black;font-family:sans-serif;font-size:13;"
       transform="matrix(1 0 0 1 776 2007)"
       id="text19">Modifications are automatically applied proportionally to all</text>
    <text
       style="stroke:none;fill:black;font-family:sans-serif;font-size:13;"
       transform="matrix(1 0 0 1 776 2025)"
       id="text20">scales and weights.</text>
    <g
       transform="matrix(1 0 0 1 1289 1933)"
       id="g20">
      <path
         d="M2.8418 1.86523L4.54102 3.57422C5.40039 4.44336 6.38672 4.38477 7.31445 3.35938L18.0078-8.42773L17.041-9.4043L6.42578 2.27539C6.07422 2.67578 5.74219 2.77344 5.27344 2.30469L4.10156 1.14258C3.63281 0.683594 3.74023 0.341797 4.14062-0.0195312L15.6152-10.8203L14.6387-11.7871L3.04688-0.898438C2.06055 0.0195312 1.98242 0.996094 2.8418 1.86523ZM9.25781-16.3281C8.83789-15.918 8.80859-15.3418 9.04297-14.9512C9.27734-14.5898 9.73633-14.3555 10.3809-14.5215C11.8457-14.8633 13.3691-14.9219 14.7949-13.9844L14.209-12.5293C13.8672-11.6992 14.043-11.1133 14.5801-10.5664L16.875-8.25195C17.3633-7.76367 17.7734-7.74414 18.3398-7.8418L19.4043-8.03711L20.0684-7.36328L20.0293-6.80664C19.9902-6.30859 20.1172-5.92773 20.6055-5.44922L21.3672-4.70703C21.8457-4.22852 22.4609-4.19922 22.9297-4.66797L25.8398-7.58789C26.3086-8.05664 26.2891-8.65234 25.8105-9.13086L25.0391-9.89258C24.5605-10.3711 24.1895-10.5273 23.7109-10.4883L23.1348-10.4395L22.4902-11.0742L22.7344-12.1973C22.8613-12.7637 22.7051-13.2031 22.1191-13.7891L19.9219-15.9766C16.582-19.2969 12.1484-19.2188 9.25781-16.3281ZM10.752-15.957C13.1836-17.7344 16.4746-17.4316 18.7012-15.2051L21.1328-12.793C21.3672-12.5586 21.4062-12.373 21.3379-12.0312L21.0156-10.5469L22.5195-9.0625L23.5059-9.12109C23.7598-9.13086 23.8379-9.11133 24.0332-8.91602L24.6094-8.33984L22.168-5.89844L21.5918-6.47461C21.3965-6.66992 21.3672-6.74805 21.377-7.01172L21.4453-7.98828L19.9512-9.47266L18.4277-9.21875C18.1055-9.15039 17.959-9.17969 17.7148-9.41406L15.7129-11.416C15.459-11.6504 15.4297-11.8164 15.5859-12.1875L16.4648-14.2773C14.9023-15.7324 12.8711-16.3574 10.8398-15.7617C10.6836-15.7227 10.625-15.8496 10.752-15.957Z"
         id="path20" />
    </g>
    <text
       style="stroke:none;fill:black;font-family:sans-serif;font-size:13;font-weight:bold;"
       transform="matrix(1 0 0 1 1289 1953)"
       id="text21">Exporting</text>
    <text
       style="stroke:none;fill:black;font-family:sans-serif;font-size:13;"
       transform="matrix(1 0 0 1 1289 1971)"
       id="text22">Symbols should be outlined when exporting to ensure the</text>
    <text
       style="stroke:none;fill:black;font-family:sans-serif;font-size:13;"
       transform="matrix(1 0 0 1 1289 1989)"
       id="text23">design is preserved when submitting to Xcode.</text>
    <text
       id="template-version"
       style="stroke:none;fill:black;font-family:sans-serif;font-size:13;text-anchor:end;"
       transform="matrix(1 0 0 1 3036 1933)">Template v.4.0</text>
    <text
       style="stroke:none;fill:black;font-family:sans-serif;font-size:13;text-anchor:end;"
       transform="matrix(1 0 0 1 3036 1951)"
       id="text24">Requires Xcode 14 or greater</text>
    <text
       id="descriptive-name"
       style="stroke:none;fill:black;font-family:sans-serif;font-size:13;text-anchor:end;"
       transform="matrix(1 0 0 1 3036 1969)">Generated from twitter.house</text>
    <text
       style="stroke:none;fill:black;font-family:sans-serif;font-size:13;text-anchor:end;"
       transform="matrix(1 0 0 1 3036 1987)"
       id="text25">Typeset at 100 points</text>
    <text
       style="stroke:none;fill:black;font-family:sans-serif;font-size:13;"
       transform="matrix(1 0 0 1 263 726)"
       id="text26">Small</text>
    <text
       style="stroke:none;fill:black;font-family:sans-serif;font-size:13;"
       transform="matrix(1 0 0 1 263 1156)"
       id="text27">Medium</text>
    <text
       style="stroke:none;fill:black;font-family:sans-serif;font-size:13;"
       transform="matrix(1 0 0 1 263 1586)"
       id="text28">Large</text>
  </g>
  <g
     id="Guides">
    <g
       id="H-reference"
       style="fill:#27AAE1;stroke:none;"
       transform="matrix(1 0 0 1 339 696)">
      <path
         d="M0.993654 0L3.63775 0L29.3281-67.1323L30.0303-67.1323L30.0303-70.459L28.1226-70.459ZM11.6885-24.4799L46.9815-24.4799L46.2315-26.7285L12.4385-26.7285ZM55.1196 0L57.7637 0L30.6382-70.459L29.4326-70.459L29.4326-67.1323Z"
         id="path28" />
    </g>
    <line
       id="Baseline-S"
       style="fill:none;stroke:#27AAE1;opacity:1;stroke-width:0.5;"
       x1="263"
       x2="3036"
       y1="696"
       y2="696" />
    <line
       id="Capline-S"
       style="fill:none;stroke:#27AAE1;opacity:1;stroke-width:0.5;"
       x1="263"
       x2="3036"
       y1="625.541"
       y2="625.541" />
    <g
       id="g29"
       style="fill:#27AAE1;stroke:none;"
       transform="matrix(1 0 0 1 339 1126)">
      <path
         d="M0.993654 0L3.63775 0L29.3281-67.1323L30.0303-67.1323L30.0303-70.459L28.1226-70.459ZM11.6885-24.4799L46.9815-24.4799L46.2315-26.7285L12.4385-26.7285ZM55.1196 0L57.7637 0L30.6382-70.459L29.4326-70.459L29.4326-67.1323Z"
         id="path29" />
    </g>
    <line
       id="Baseline-M"
       style="fill:none;stroke:#27AAE1;opacity:1;stroke-width:0.5;"
       x1="263"
       x2="3036"
       y1="1126"
       y2="1126" />
    <line
       id="Capline-M"
       style="fill:none;stroke:#27AAE1;opacity:1;stroke-width:0.5;"
       x1="263"
       x2="3036"
       y1="1055.54"
       y2="1055.54" />
    <g
       id="g30"
       style="fill:#27AAE1;stroke:none;"
       transform="matrix(1 0 0 1 339 1556)">
      <path
         d="M0.993654 0L3.63775 0L29.3281-67.1323L30.0303-67.1323L30.0303-70.459L28.1226-70.459ZM11.6885-24.4799L46.9815-24.4799L46.2315-26.7285L12.4385-26.7285ZM55.1196 0L57.7637 0L30.6382-70.459L29.4326-70.459L29.4326-67.1323Z"
         id="path30" />
    </g>
    <line
       id="Baseline-L"
       style="fill:none;stroke:#27AAE1;opacity:1;stroke-width:0.5;"
       x1="263"
       x2="3036"
       y1="1556"
       y2="1556" />
    <line
       id="Capline-L"
       style="fill:none;stroke:#27AAE1;opacity:1;stroke-width:0.5;"
       x1="263"
       x2="3036"
       y1="1485.54"
       y2="1485.54" />
    <line
       id="left-margin-Ultralight-S"
       style="fill:none;stroke:#00AEEF;stroke-width:0.5;opacity:1.0;"
       x1="508.561"
       x2="508.561"
       y1="600.785"
       y2="720.121" />
    <line
       id="right-margin-Ultralight-S"
       style="fill:none;stroke:#00AEEF;stroke-width:0.5;opacity:1.0;"
       x1="610.861"
       x2="610.861"
       y1="600.785"
       y2="720.121" />
    <line
       id="left-margin-Regular-S"
       style="fill:none;stroke:#00AEEF;stroke-width:0.5;opacity:1.0;"
       x1="1393.47"
       x2="1393.47"
       y1="600.785"
       y2="720.121" />
    <line
       id="right-margin-Regular-S"
       style="fill:none;stroke:#00AEEF;stroke-width:0.5;opacity:1.0;"
       x1="1506.22"
       x2="1506.22"
       y1="600.785"
       y2="720.121" />
    <line
       id="left-margin-Black-S"
       style="fill:none;stroke:#00AEEF;stroke-width:0.5;opacity:1.0;"
       x1="2871.88"
       x2="2871.88"
       y1="600.785"
       y2="720.121" />
    <line
       id="right-margin-Black-S"
       style="fill:none;stroke:#00AEEF;stroke-width:0.5;opacity:1.0;"
       x1="2994.92"
       x2="2994.92"
       y1="600.785"
       y2="720.121" />
  </g>
  <g
     id="Symbols">
    <g
       id="Black-S"
       transform="matrix(1 0 0 1 2871.88 696)">
      <path
         id="path25-9-7"
         style="stroke-width:1.11867"
         d="m 63.07629,-79.985271 -22.905417,14.108455 c -6.303354,3.883651 -12.070498,7.435592 -16.281796,10.038004 -4.211288,2.602423 -6.868113,4.255262 -6.948606,4.334504 -0.02007,0.01978 -0.02495,0.06204 -0.01622,0.123899 0.0083,0.06193 0.03224,0.142651 0.06707,0.241714 0.06957,0.198104 0.18767,0.465011 0.345296,0.781989 0.315262,0.633956 0.785831,1.466028 1.322293,2.337872 l 1.984442,3.170647 2.3074,-1.267448 c 0.616954,-0.36986 1.24674,-0.700542 1.763046,-0.938398 0.258159,-0.118927 0.487085,-0.214219 0.672322,-0.280297 0.185226,-0.06603 0.325766,-0.101592 0.406227,-0.101592 0.03015,0 0.05959,0.01967 0.08736,0.06301 0.02766,0.04323 0.05387,0.108206 0.07924,0.197024 0.05064,0.177613 0.09661,0.449005 0.138117,0.822615 0.04149,0.37361 0.07862,0.850099 0.111712,1.438069 0.03307,0.587959 0.06219,1.287648 0.08736,2.108339 0.05033,1.641383 0.08496,3.766485 0.107644,6.448938 0.02267,2.682465 0.03453,5.921762 0.03453,9.792238 0,4.87438 0.0021,8.626706 0.02236,11.54106 0.02007,2.914365 0.05689,4.992324 0.1239,6.518 0.03348,0.762837 0.07561,1.386505 0.125929,1.9092938 0.05033,0.5227996 0.108331,0.9437476 0.178747,1.297915 0.0704,0.3541675 0.151885,0.6428404 0.245773,0.8998036 0.09391,0.2569633 0.200201,0.4817737 0.320919,0.712939 0.295036,0.5548119 0.586483,1.041557 0.895745,1.4766523 0.15463,0.2175477 0.315335,0.4227313 0.481384,0.6174748 0.16605,0.1947434 0.339296,0.3778254 0.522005,0.5545097 0.182711,0.17668383 0.37427,0.34645073 0.578881,0.50983033 0.204612,0.163358 0.422285,0.3204799 0.654038,0.4752891 0.463498,0.3095965 0.984859,0.6081585 1.588366,0.9119838 0.187753,0.092406 0.407964,0.17412237 0.698725,0.24779827 0.29075,0.0736 0.652925,0.1380356 1.125262,0.1949921 0.472338,0.056956 1.05492,0.1060232 1.787423,0.1482812 0.732503,0.042366 1.613947,0.078031 2.685195,0.1076444 2.142495,0.059334 5.041287,0.096296 9.010234,0.1178037 3.968946,0.021399 9.008725,0.028424 15.432776,0.028424 7.899302,0 13.800683,0.00216 18.254051,-0.040637 2.226679,-0.021399 4.091163,-0.054795 5.662878,-0.105591 1.571726,-0.050796 2.851495,-0.1187655 3.905926,-0.2112359 0.527226,-0.046149 0.998107,-0.097485 1.421816,-0.1563979 0.423708,-0.05901 0.800037,-0.1257796 1.13745,-0.19905567 0.337415,-0.073168 0.635538,-0.1546253 0.903868,-0.2437346 0.268328,-0.089163 0.506634,-0.1859892 0.72309,-0.2924881 0.216457,-0.1064555 0.411313,-0.2218923 0.593108,-0.3473369 0.181784,-0.1254231 0.34954,-0.2603028 0.513883,-0.406228 0.328668,-0.2918396 0.63925,-0.6264127 1.001362,-1.00948033 0.375533,-0.3962958 0.792833,-0.9112382 1.161823,-1.4197932 0.36899,-0.5085442 0.68969,-1.0113172 0.87746,-1.3811773 0.0469,-0.1122918 0.0931,-0.326435 0.13813,-0.6438888 0.045,-0.3174537 0.0893,-0.7379154 0.13202,-1.2613526 0.0855,-1.0468848 0.16594,-2.5054238 0.23968,-4.3812138 0.0737,-1.875791 0.1404,-4.168239 0.19905,-6.879549 0.0587,-2.711299 0.11008,-5.842736 0.15031,-9.396158 l 0.268113,-21.239855 2.68317,1.637114 c 0.36211,0.224573 0.71275,0.425423 1.03792,0.597157 0.32517,0.171733 0.62476,0.314773 0.87949,0.42045 0.25474,0.1057 0.46462,0.174663 0.61543,0.201088 0.0754,0.01319 0.13561,0.01513 0.17875,0.0065 0.0431,-0.0086 0.0705,-0.02994 0.0772,-0.06301 0.0536,-0.132124 0.3074,-0.580102 0.67638,-1.194324 0.36897,-0.614221 0.85328,-1.394957 1.36291,-2.187559 l 1.82398,-2.853788 -3.05892,-1.901167 c -1.663,-1.056795 -5.0955,-3.169868 -7.616863,-4.702137 -1.26069,-0.739774 -4.157112,-2.510752 -7.811857,-4.763082 -3.654745,-2.25233 -8.06795,-4.987082 -12.359626,-7.655442 z m -0.282327,37.02606 c 0.470288,0.0054 0.943229,0.04128 1.4076,0.101592 0.46436,0.06031 0.920724,0.146261 1.354781,0.25999 0.434056,0.11374 0.845431,0.252867 1.224786,0.418419 0.379354,0.165552 0.725493,0.356999 1.025739,0.572785 0.353449,0.262875 0.680016,0.523577 0.979024,0.784032 0.299018,0.260454 0.57106,0.522259 0.818559,0.786063 0.247509,0.263794 0.469331,0.529392 0.668254,0.802308 0.198933,0.272915 0.37481,0.551083 0.5281,0.83887 0.153279,0.287786 0.283471,0.585278 0.394039,0.893708 0.110526,0.30844 0.201398,0.629957 0.272177,0.964801 0.07082,0.334854 0.122475,0.683088 0.156399,1.050116 0.0339,0.367029 0.05075,0.750755 0.05075,1.15573 0,0.426287 -0.01841,0.831693 -0.05481,1.216663 -0.0364,0.38498 -0.09152,0.748971 -0.168577,1.098859 -0.07706,0.349898 -0.174504,0.684407 -0.296554,1.005427 -0.122049,0.321031 -0.267424,0.62986 -0.438735,0.928239 -0.171302,0.298389 -0.370276,0.587386 -0.595126,0.869336 -0.224827,0.281962 -0.476995,0.556974 -0.759655,0.828722 -0.28266,0.271748 -0.595676,0.540643 -0.940432,0.808403 -0.344765,0.26776 -0.7202,0.534342 -1.131356,0.80434 -0.256069,0.174057 -0.525708,0.328326 -0.802305,0.463097 -0.276576,0.134783 -0.560067,0.250479 -0.853096,0.347337 -0.293028,0.09684 -0.592348,0.173291 -0.897773,0.233576 -0.305434,0.06031 -0.618534,0.104942 -0.932298,0.129995 -0.313776,0.02507 -0.630504,0.03318 -0.948553,0.02432 -0.31805,-0.0086 -0.638398,-0.03599 -0.956676,-0.07717 -0.318268,-0.04129 -0.634112,-0.09824 -0.948554,-0.17061 -0.314441,-0.07241 -0.625761,-0.159878 -0.932309,-0.262021 -0.306558,-0.102133 -0.60723,-0.218812 -0.901828,-0.349358 -0.294598,-0.130546 -0.582614,-0.275055 -0.861218,-0.432642 -0.278604,-0.157587 -0.549845,-0.328575 -0.808398,-0.511851 -0.258534,-0.183277 -0.50492,-0.377383 -0.739347,-0.584977 -0.234426,-0.207593 -0.453887,-0.427529 -0.660131,-0.6581 -0.206255,-0.23056 -0.398771,-0.472955 -0.572788,-0.72512 -0.174015,-0.252164 -0.329436,-0.513645 -0.467168,-0.786063 -0.137721,-0.272408 -0.258064,-0.555698 -0.355446,-0.846987 -0.0937,-0.277087 -0.174982,-0.553374 -0.243744,-0.830753 -0.06884,-0.277368 -0.124348,-0.554272 -0.168588,-0.830743 -0.0443,-0.276471 -0.07726,-0.554336 -0.09744,-0.82871 -0.02027,-0.274375 -0.02776,-0.545453 -0.02434,-0.816531 0.0031,-0.271089 0.01613,-0.541799 0.04264,-0.808403 0.02652,-0.266593 0.06468,-0.53123 0.113749,-0.792148 0.04909,-0.26093 0.11164,-0.515764 0.182804,-0.76982 0.07114,-0.254045 0.152915,-0.50554 0.245772,-0.751522 0.09287,-0.245994 0.196739,-0.486367 0.310771,-0.723099 0.11403,-0.236731 0.239002,-0.468372 0.373728,-0.694652 0.134737,-0.226291 0.279727,-0.447513 0.43467,-0.662164 0.154953,-0.214641 0.318882,-0.423791 0.493573,-0.625603 0.174681,-0.201811 0.358525,-0.397182 0.552476,-0.584965 0.193942,-0.187783 0.396629,-0.369763 0.609352,-0.542329 0.212733,-0.172555 0.435189,-0.335384 0.666215,-0.491533 0.231048,-0.15616 0.472213,-0.304247 0.721064,-0.442801 0.258782,-0.136749 0.540225,-0.257017 0.842935,-0.357475 0.302721,-0.100511 0.627571,-0.180898 0.96277,-0.245777 0.335188,-0.06485 0.68375,-0.112162 1.039955,-0.142175 0.356227,-0.03005 0.718859,-0.04474 1.084642,-0.04064 z"
         inkscape:label="path27" />
    </g>
    <g
       id="Regular-S"
       transform="matrix(1 0 0 1 1393.47 696)">
      <path
         id="path25-9-3"
         style="stroke-width:1.05896"
         d="m 55.887769,-78.99652 -21.682743,13.355352 c -5.966878,3.676343 -11.426177,7.038683 -15.412676,9.50218 -3.986489,2.463506 -6.501497,4.028117 -6.577696,4.103129 -0.01903,0.01872 -0.02363,0.05873 -0.01535,0.117286 0.0082,0.05862 0.03049,0.135036 0.06353,0.228811 0.06589,0.18753 0.177647,0.440189 0.326863,0.740247 0.298431,0.600116 0.743879,1.387772 1.251703,2.213078 l 1.878522,3.001399 2.184227,-1.199793 c 0.584023,-0.350117 1.18019,-0.663147 1.668934,-0.888306 0.244382,-0.112579 0.46109,-0.202784 0.636435,-0.265335 0.175335,-0.06251 0.308376,-0.09617 0.384544,-0.09617 0.02854,0 0.05637,0.01862 0.08266,0.05964 0.02619,0.04092 0.05095,0.102431 0.07499,0.186507 0.04798,0.168132 0.09146,0.425037 0.130739,0.778704 0.03929,0.353668 0.07438,0.804722 0.105756,1.361306 0.03131,0.556574 0.05883,1.218913 0.08266,1.995797 0.04768,1.553766 0.08041,3.565431 0.101899,6.104697 0.02148,2.539275 0.03264,5.60566 0.03264,9.269532 0,4.614187 0.002,8.166216 0.02118,10.925003 0.01903,2.758797 0.05381,4.725835 0.117286,6.170071 0.03171,0.722118 0.07161,1.312495 0.119209,1.8073772 0.04768,0.4948927 0.102543,0.8933708 0.169206,1.2286334 0.0666,0.3352621 0.143773,0.6085258 0.232648,0.8517725 0.08891,0.2432466 0.189515,0.4560567 0.303792,0.6748825 0.27929,0.5251963 0.555173,0.9859592 0.847926,1.3978293 0.146382,0.205935 0.298503,0.4001661 0.455688,0.5845142 0.157186,0.1843482 0.321185,0.3576573 0.494146,0.5249098 0.172951,0.1672525 0.354292,0.3279574 0.54798,0.4826158 0.193689,0.154638 0.399747,0.3033729 0.619125,0.4499183 0.438757,0.2930705 0.932289,0.5756953 1.503575,0.8633026 0.177739,0.087473 0.386191,0.1648278 0.661429,0.2345709 0.275228,0.069671 0.618071,0.1306673 1.065196,0.1845835 0.447126,0.053916 0.998615,0.1003638 1.692015,0.1403661 0.6934,0.040104 1.527791,0.073866 2.541854,0.1018984 2.028136,0.056167 4.772191,0.091156 8.529275,0.1115153 3.757084,0.020257 8.527843,0.026907 14.608978,0.026907 7.477645,0 13.064011,0.00205 17.279658,-0.038468 2.107824,-0.020257 3.872784,-0.05187 5.360603,-0.099954 1.487819,-0.048085 2.699275,-0.1124259 3.697429,-0.1999603 0.499077,-0.043685 0.944821,-0.092281 1.345918,-0.1480494 0.401087,-0.05586 0.757333,-0.1190656 1.076737,-0.1884302 0.319405,-0.069262 0.60161,-0.1463715 0.855619,-0.2307242 0.253999,-0.084404 0.479588,-0.1760612 0.68449,-0.2768752 0.204901,-0.100773 0.389352,-0.2100478 0.561443,-0.3287962 0.172082,-0.1187281 0.330884,-0.246408 0.486453,-0.3845438 0.311128,-0.2762613 0.605129,-0.592975 0.947911,-0.9555942 0.355488,-0.3751417 0.750508,-0.8625966 1.099797,-1.3440052 0.349309,-0.4813984 0.652886,-0.9573335 0.830625,-1.3074507 0.0444,-0.1062977 0.08809,-0.30901 0.13076,-0.6095182 0.04266,-0.3005083 0.08461,-0.6985264 0.124968,-1.1940228 0.08093,-0.9910029 0.157094,-2.3716854 0.226888,-4.1473474 0.06977,-1.775661 0.132908,-3.94574 0.18843,-6.512321 0.05555,-2.566571 0.104211,-5.530853 0.142279,-8.894595 l 0.253805,-20.106081 2.539941,1.549726 c 0.342781,0.212585 0.674708,0.402713 0.982511,0.56528 0.307813,0.162567 0.59142,0.297971 0.832549,0.398008 0.241139,0.100057 0.439821,0.165339 0.582591,0.190353 0.07141,0.01248 0.128355,0.01432 0.169206,0.0061 0.04082,-0.0082 0.0667,-0.02834 0.07305,-0.05965 0.05075,-0.125071 0.290994,-0.549136 0.640272,-1.130571 0.349278,-0.581434 0.807729,-1.320495 1.290161,-2.070788 l 1.726615,-2.701454 -2.895644,-1.799683 c -1.574218,-1.000385 -4.823498,-3.000663 -7.210274,-4.45114 -1.193388,-0.700285 -3.935202,-2.376729 -7.394857,-4.50883 -3.459656,-2.132102 -7.637286,-4.720874 -11.699881,-7.246798 z m -0.267258,35.049625 c 0.445182,0.0051 0.89288,0.03908 1.332465,0.09617 0.439565,0.05709 0.871569,0.138453 1.282457,0.246111 0.410888,0.107669 0.800301,0.23937 1.159412,0.396084 0.359099,0.156715 0.68676,0.337943 0.970981,0.54221 0.334587,0.248843 0.64372,0.49563 0.926764,0.742181 0.283054,0.246551 0.540583,0.494381 0.774868,0.744104 0.234294,0.249712 0.444281,0.501133 0.632578,0.759481 0.188318,0.258347 0.354803,0.521666 0.499916,0.794091 0.145093,0.272425 0.268333,0.554037 0.373003,0.846002 0.10463,0.291976 0.190651,0.596331 0.257652,0.913301 0.06701,0.316979 0.115935,0.646625 0.148049,0.994062 0.03212,0.347436 0.04809,0.71068 0.04809,1.094036 0,0.403533 -0.01739,0.787299 -0.05187,1.151718 -0.03448,0.364431 -0.08666,0.708992 -0.159579,1.040203 -0.07295,0.331221 -0.165186,0.647874 -0.280722,0.951758 -0.115536,0.303895 -0.25315,0.596239 -0.415318,0.87869 -0.162158,0.282461 -0.350516,0.556031 -0.563357,0.822931 -0.212831,0.266911 -0.451535,0.527243 -0.71911,0.784485 -0.267566,0.257243 -0.563879,0.511784 -0.89023,0.765251 -0.326362,0.253467 -0.681758,0.505819 -1.070967,0.761404 -0.242397,0.164767 -0.497645,0.310801 -0.759481,0.438378 -0.261805,0.127588 -0.530168,0.237108 -0.807555,0.328797 -0.277386,0.09167 -0.560727,0.16404 -0.849849,0.221107 -0.289131,0.05709 -0.585517,0.09934 -0.882536,0.123055 -0.29702,0.02374 -0.596842,0.03141 -0.897913,0.02302 -0.301071,-0.0082 -0.604321,-0.03407 -0.905607,-0.07305 -0.301286,-0.03908 -0.60027,-0.093 -0.897924,-0.161503 -0.297653,-0.06855 -0.592361,-0.151344 -0.882546,-0.248034 -0.290196,-0.09668 -0.574816,-0.207133 -0.853686,-0.33071 -0.27887,-0.123577 -0.55152,-0.260373 -0.815248,-0.409548 -0.263729,-0.149174 -0.520491,-0.311035 -0.765241,-0.484529 -0.24474,-0.173493 -0.477971,-0.357237 -0.699887,-0.55375 -0.221915,-0.196512 -0.429661,-0.404708 -0.624895,-0.622972 -0.195244,-0.218252 -0.377484,-0.447708 -0.54221,-0.686412 -0.164725,-0.238704 -0.311854,-0.486228 -0.442235,-0.744104 -0.13036,-0.257867 -0.24428,-0.526035 -0.336469,-0.801775 -0.0887,-0.262296 -0.165636,-0.523835 -0.230735,-0.786408 -0.06517,-0.262562 -0.117705,-0.524685 -0.159589,-0.786398 -0.04195,-0.261713 -0.07315,-0.524746 -0.09228,-0.784474 -0.01923,-0.259729 -0.02629,-0.516337 -0.02302,-0.772945 0.0031,-0.256618 0.01524,-0.512878 0.04031,-0.765251 0.02507,-0.252362 0.06128,-0.502872 0.107679,-0.749864 0.04645,-0.247001 0.105684,-0.488232 0.173053,-0.728727 0.06732,-0.240484 0.144745,-0.478554 0.232648,-0.711406 0.08788,-0.232862 0.186241,-0.460405 0.294186,-0.6845 0.107944,-0.224094 0.226243,-0.44337 0.353779,-0.657572 0.127537,-0.214211 0.264793,-0.423625 0.411461,-0.626818 0.146689,-0.203183 0.301859,-0.401169 0.467229,-0.592208 0.16536,-0.191039 0.339385,-0.37598 0.522986,-0.55374 0.183591,-0.177759 0.375459,-0.350025 0.576821,-0.51338 0.201382,-0.163344 0.411962,-0.317481 0.630655,-0.465295 0.218713,-0.147824 0.447003,-0.288006 0.682576,-0.419164 0.244966,-0.12945 0.511385,-0.243298 0.797938,-0.338393 0.286564,-0.09515 0.59407,-0.171243 0.911377,-0.232658 0.317297,-0.06139 0.64725,-0.106175 0.984445,-0.134586 0.337206,-0.02844 0.680489,-0.04236 1.026739,-0.03847 z"
         inkscape:label="path26" />
    </g>
    <g
       id="Ultralight-S"
       transform="matrix(1 0 0 1 508.561 696)">
      <path
         id="path25-9"
         style="stroke-width:1.03507"
         d="m 49.915176,-74.616375 -21.193662,13.054109 c -5.832296,3.593421 -11.168453,6.879914 -15.065035,9.287849 -3.8965717,2.407935 -6.3548486,3.937254 -6.4293258,4.010577 -0.018571,0.01834 -0.023094,0.05736 -0.015011,0.114642 0.0077,0.05729 0.029829,0.131992 0.062064,0.223645 0.064374,0.183306 0.1736454,0.430268 0.3194918,0.723558 0.2917024,0.586578 0.7271053,1.356465 1.2234757,2.163155 l 1.8361423,2.933698 2.134965,-1.172727 c 0.570848,-0.34222 1.153569,-0.648195 1.631291,-0.86827 0.238866,-0.110038 0.450684,-0.198213 0.622078,-0.259353 0.171384,-0.06114 0.301421,-0.09397 0.375869,-0.09397 0.0279,0 0.05514,0.01823 0.08083,0.05826 0.02559,0.04003 0.04984,0.100123 0.07332,0.182298 0.04686,0.164349 0.08939,0.415454 0.127795,0.761145 0.03839,0.345692 0.07274,0.786567 0.103364,1.330595 0.0306,0.544027 0.05754,1.191428 0.08083,1.950787 0.04657,1.518714 0.07861,3.485004 0.0996,5.967001 0.02098,2.481996 0.03195,5.479221 0.03195,9.060446 0,4.510108 0.0019,7.982025 0.02069,10.678581 0.01857,2.696565 0.05264,4.6192415 0.114641,6.030902 0.03098,0.7058302 0.06996,1.2828842 0.116518,1.7666108 0.04657,0.4837265 0.100236,0.8732115 0.165389,1.2009208 0.06514,0.3276997 0.140535,0.5947976 0.227406,0.832557 0.08689,0.2377593 0.18524,0.4457662 0.296937,0.6596621 0.272987,0.5133442 0.542654,0.9637196 0.828804,1.3663006 0.143075,0.2012905 0.29177,0.39114 0.44541,0.5713287 0.153641,0.1801886 0.31394,0.3495906 0.482995,0.5130651 0.169056,0.1634842 0.3463,0.3205599 0.53562,0.4717275 0.189321,0.15115789 0.390727,0.29653277 0.605161,0.43977148 0.42886,0.2864678 0.911259,0.56271664 1.469665,0.8438344 0.173722,0.0855429 0.377476,0.16110747 0.646508,0.22928201 0.269022,0.0681264 0.604131,0.12771782 1.04117,0.18041958 0.437039,0.0527306 0.976084,0.098052 1.653846,0.13719586 0.677762,0.0391631 1.493335,0.0721678 2.484527,0.0996109 1.982383,0.0549438 4.664544,0.0891032 8.336886,0.1090023 3.672341,0.0198221 8.33549,0.0262691 14.279463,0.0262691 7.308976,0 12.769338,0.001924 16.8899,-0.0376235 2.060276,-0.0198221 3.785424,-0.0507099 5.239683,-0.0977345 1.454268,-0.0469572 2.638398,-0.10989717 3.61403,-0.19544973 0.487826,-0.0427234 0.923517,-0.0901617 1.315562,-0.14471094 0.392044,-0.0545589 0.740249,-0.11638265 1.052447,-0.18418193 0.312199,-0.0677415 0.588043,-0.14307513 0.83632,-0.22551966 0.248276,-0.0824637733 0.468773,-0.1720866 0.669053,-0.27062937 0.200281,-0.0985428 0.380575,-0.20531267 0.548784,-0.32137778 0.168199,-0.1160555 0.323418,-0.24085774 0.47548,-0.37586931 0.304106,-0.27003281 0.591478,-0.57960401 0.926529,-0.93404421 0.347464,-0.36668 0.733581,-0.8431416 1.074993,-1.3136855 0.341421,-0.4705439 0.638156,-0.9357474 0.811888,-1.2779672 0.0434,-0.1038928 0.08612,-0.3020368 0.127804,-0.5957695 0.04166,-0.2937231 0.08266,-0.6827654 0.122156,-1.1670886 0.0791,-0.9686462 0.153545,-2.3181847 0.221767,-4.0538015 0.06822,-1.735608 0.129912,-3.856735 0.184182,-6.365424 0.05427,-2.508688 0.101853,-5.406102 0.139073,-8.693969 l 0.248074,-19.652579 2.48265,1.514773 c 0.335052,0.207795 0.659489,0.393634 0.960352,0.552535 0.300873,0.158901 0.578074,0.291242 0.813774,0.38903 0.2357,0.09779 0.429899,0.161604 0.569443,0.186057 0.06976,0.01223 0.125466,0.014 0.165389,0.0057 0.03993,-0.0084 0.06524,-0.02771 0.0714,-0.05826 0.04965,-0.122253 0.284428,-0.536749 0.62583,-1.105071 0.341402,-0.56832 0.789516,-1.290714 1.261061,-2.024081 l 1.687669,-2.640516 -2.830326,-1.759091 c -1.538715,-0.977824 -4.714706,-2.932985 -7.047641,-4.350744 -1.166473,-0.684486 -3.84644,-2.323113 -7.228061,-4.407124 -3.381621,-2.084011 -7.465021,-4.614396 -11.435974,-7.083348 z m -0.261228,34.259047 c 0.435143,0.005 0.87274,0.03815 1.302408,0.09397 0.429658,0.05582 0.851917,0.135328 1.253536,0.24056 0.401619,0.105235 0.782251,0.233968 1.133256,0.38715 0.351005,0.153183 0.671276,0.330318 0.949084,0.529983 0.327036,0.243228 0.629198,0.484448 0.90586,0.725437 0.276672,0.240989 0.528384,0.48323 0.757387,0.727317 0.229013,0.244085 0.434258,0.489833 0.618315,0.742351 0.184066,0.252517 0.3468,0.509896 0.488634,0.77618 0.141824,0.266285 0.262287,0.541536 0.364592,0.826923 0.102266,0.285388 0.186347,0.582877 0.251837,0.892702 0.06553,0.309825 0.113322,0.632036 0.144711,0.971634 0.03137,0.339599 0.04696,0.694654 0.04696,1.069361 0,0.394427 -0.01703,0.769536 -0.05071,1.125744 -0.03368,0.356207 -0.08468,0.692995 -0.155979,1.016739 -0.0713,0.323744 -0.161463,0.633254 -0.274392,0.930289 -0.112928,0.297036 -0.247439,0.58279 -0.405948,0.858872 -0.1585,0.276082 -0.342605,0.543489 -0.550651,0.80437 -0.208026,0.260884 -0.441349,0.515345 -0.702885,0.766784 -0.261537,0.251438 -0.551161,0.500239 -0.870152,0.747989 -0.319001,0.24775 -0.666379,0.494416 -1.046809,0.744232 -0.236932,0.161055 -0.486421,0.303788 -0.742347,0.428496 -0.255907,0.124707 -0.518213,0.231758 -0.789343,0.321373 -0.27113,0.08961 -0.548081,0.160344 -0.830681,0.216127 -0.282609,0.05578 -0.57231,0.09707 -0.862626,0.12028 -0.290327,0.02321 -0.583386,0.03066 -0.877667,0.02255 -0.294281,-0.0081 -0.590689,-0.03326 -0.885182,-0.07142 -0.294483,-0.03816 -0.586724,-0.0909 -0.877667,-0.157867 -0.290942,-0.06697 -0.578997,-0.147932 -0.862636,-0.242439 -0.283649,-0.0945 -0.561851,-0.202463 -0.834433,-0.323251 -0.272583,-0.120789 -0.539075,-0.254494 -0.796858,-0.400307 -0.257784,-0.145812 -0.508755,-0.304024 -0.747986,-0.473602 -0.239213,-0.169577 -0.467186,-0.349174 -0.684094,-0.541258 -0.216907,-0.192084 -0.419968,-0.395583 -0.610799,-0.608916 -0.190841,-0.213332 -0.36897,-0.437613 -0.529982,-0.670936 -0.161011,-0.233322 -0.304817,-0.475262 -0.432256,-0.727316 -0.127429,-0.252053 -0.238779,-0.514171 -0.328883,-0.783697 -0.0867,-0.25638 -0.161906,-0.512016 -0.225529,-0.768663 -0.0637,-0.256647 -0.115055,-0.512854 -0.155989,-0.768663 -0.04099,-0.255809 -0.07149,-0.512914 -0.09016,-0.766783 -0.01876,-0.253867 -0.02569,-0.504683 -0.02252,-0.755507 0.0029,-0.250825 0.01492,-0.501314 0.03945,-0.74799 0.02454,-0.246674 0.05985,-0.491532 0.105249,-0.732953 0.04542,-0.241424 0.103297,-0.477215 0.169143,-0.712283 0.06582,-0.235066 0.141487,-0.46776 0.227405,-0.695366 0.08593,-0.227608 0.182036,-0.450013 0.287546,-0.669056 0.105509,-0.219044 0.221141,-0.433369 0.345799,-0.642745 0.124668,-0.209376 0.258823,-0.414069 0.402187,-0.612675 0.143373,-0.198604 0.295051,-0.392117 0.456687,-0.578847 0.161627,-0.18673 0.331732,-0.367506 0.511189,-0.541258 0.179448,-0.173751 0.366988,-0.342123 0.563814,-0.501792 0.196835,-0.159669 0.402667,-0.310324 0.616428,-0.454807 0.213781,-0.144484 0.436924,-0.281511 0.667178,-0.409703 0.239443,-0.126537 0.499853,-0.237815 0.779941,-0.330769 0.280098,-0.09296 0.580672,-0.167371 0.890821,-0.227405 0.310139,-0.06003 0.632652,-0.103783 0.962238,-0.131555 0.329605,-0.02777 0.665137,-0.04142 1.003585,-0.03758 z"
         inkscape:label="path25" />
    </g>
  </g>
</svg>
