<?xml version="1.0" encoding="UTF-8"?>
<!--Generator: Apple Native CoreSVG 175.5-->
<!DOCTYPE svg
PUBLIC "-//W3C//DTD SVG 1.1//EN"
       "http://www.w3.org/Graphics/SVG/1.1/DTD/svg11.dtd">
<svg version="1.1" xmlns="http://www.w3.org/2000/svg" xmlns:xlink="http://www.w3.org/1999/xlink" width="3300" height="2200">
 <!--glyph: "", point size: 100.0, font version: "18.0d12e2", template writer version: "101"-->
 <style>.monochrome-0 {fill:#000000}

.SFSymbolsPreview000000 {fill:#000000;opacity:1.0}
</style>
 <g id="Notes">
  <rect height="2200" id="artboard" style="fill:white;opacity:1" width="3300" x="0" y="0"/>
  <line style="fill:none;stroke:black;opacity:1;stroke-width:0.5;" x1="263" x2="3036" y1="292" y2="292"/>
  <text style="stroke:none;fill:black;font-family:sans-serif;font-size:13;font-weight:bold;" transform="matrix(1 0 0 1 263 322)">Weight/Scale Variations</text>
  <text style="stroke:none;fill:black;font-family:sans-serif;font-size:13;text-anchor:middle;" transform="matrix(1 0 0 1 559.711 322)">Ultralight</text>
  <text style="stroke:none;fill:black;font-family:sans-serif;font-size:13;text-anchor:middle;" transform="matrix(1 0 0 1 856.422 322)">Thin</text>
  <text style="stroke:none;fill:black;font-family:sans-serif;font-size:13;text-anchor:middle;" transform="matrix(1 0 0 1 1153.13 322)">Light</text>
  <text style="stroke:none;fill:black;font-family:sans-serif;font-size:13;text-anchor:middle;" transform="matrix(1 0 0 1 1449.84 322)">Regular</text>
  <text style="stroke:none;fill:black;font-family:sans-serif;font-size:13;text-anchor:middle;" transform="matrix(1 0 0 1 1746.56 322)">Medium</text>
  <text style="stroke:none;fill:black;font-family:sans-serif;font-size:13;text-anchor:middle;" transform="matrix(1 0 0 1 2043.27 322)">Semibold</text>
  <text style="stroke:none;fill:black;font-family:sans-serif;font-size:13;text-anchor:middle;" transform="matrix(1 0 0 1 2339.98 322)">Bold</text>
  <text style="stroke:none;fill:black;font-family:sans-serif;font-size:13;text-anchor:middle;" transform="matrix(1 0 0 1 2636.69 322)">Heavy</text>
  <text style="stroke:none;fill:black;font-family:sans-serif;font-size:13;text-anchor:middle;" transform="matrix(1 0 0 1 2933.4 322)">Black</text>
  <line style="fill:none;stroke:black;opacity:1;stroke-width:0.5;" x1="263" x2="3036" y1="1903" y2="1903"/>
  <g transform="matrix(1 0 0 1 263 1933)">
   <path d="M9.24805 0.830078C13.5547 0.830078 17.1387-2.74414 17.1387-7.05078C17.1387-11.3574 13.5449-14.9316 9.23828-14.9316C4.94141-14.9316 1.36719-11.3574 1.36719-7.05078C1.36719-2.74414 4.95117 0.830078 9.24805 0.830078ZM9.24805-0.654297C5.70312-0.654297 2.87109-3.49609 2.87109-7.05078C2.87109-10.6055 5.69336-13.4473 9.23828-13.4473C12.793-13.4473 15.6445-10.6055 15.6445-7.05078C15.6445-3.49609 12.8027-0.654297 9.24805-0.654297ZM5.6543-7.05078C5.6543-6.62109 5.95703-6.32812 6.40625-6.32812L8.50586-6.32812L8.50586-4.20898C8.50586-3.76953 8.79883-3.4668 9.22852-3.4668C9.67773-3.4668 9.9707-3.76953 9.9707-4.20898L9.9707-6.32812L12.0898-6.32812C12.5293-6.32812 12.832-6.62109 12.832-7.05078C12.832-7.49023 12.5293-7.79297 12.0898-7.79297L9.9707-7.79297L9.9707-9.90234C9.9707-10.3516 9.67773-10.6543 9.22852-10.6543C8.79883-10.6543 8.50586-10.3516 8.50586-9.90234L8.50586-7.79297L6.40625-7.79297C5.95703-7.79297 5.6543-7.49023 5.6543-7.05078Z"/>
  </g>
  <g transform="matrix(1 0 0 1 281.867 1933)">
   <path d="M11.709 2.91016C17.1582 2.91016 21.6699-1.61133 21.6699-7.05078C21.6699-12.5 17.1484-17.0117 11.6992-17.0117C6.25977-17.0117 1.74805-12.5 1.74805-7.05078C1.74805-1.61133 6.26953 2.91016 11.709 2.91016ZM11.709 1.25C7.09961 1.25 3.41797-2.44141 3.41797-7.05078C3.41797-11.6602 7.08984-15.3516 11.6992-15.3516C16.3086-15.3516 20.0098-11.6602 20.0098-7.05078C20.0098-2.44141 16.3184 1.25 11.709 1.25ZM7.17773-7.05078C7.17773-6.57227 7.50977-6.25 8.00781-6.25L10.8789-6.25L10.8789-3.36914C10.8789-2.88086 11.2109-2.53906 11.6895-2.53906C12.1777-2.53906 12.5195-2.87109 12.5195-3.36914L12.5195-6.25L15.4004-6.25C15.8887-6.25 16.2305-6.57227 16.2305-7.05078C16.2305-7.53906 15.8887-7.88086 15.4004-7.88086L12.5195-7.88086L12.5195-10.752C12.5195-11.25 12.1777-11.5918 11.6895-11.5918C11.2109-11.5918 10.8789-11.25 10.8789-10.752L10.8789-7.88086L8.00781-7.88086C7.50977-7.88086 7.17773-7.53906 7.17773-7.05078Z"/>
  </g>
  <g transform="matrix(1 0 0 1 305.646 1933)">
   <path d="M14.9707 5.66406C21.9336 5.66406 27.6953-0.0976562 27.6953-7.05078C27.6953-14.0137 21.9238-19.7754 14.9609-19.7754C8.00781-19.7754 2.25586-14.0137 2.25586-7.05078C2.25586-0.0976562 8.01758 5.66406 14.9707 5.66406ZM14.9707 3.84766C8.93555 3.84766 4.08203-1.01562 4.08203-7.05078C4.08203-13.0957 8.92578-17.9492 14.9609-17.9492C21.0059-17.9492 25.8691-13.0957 25.8691-7.05078C25.8691-1.01562 21.0156 3.84766 14.9707 3.84766ZM9.19922-7.05078C9.19922-6.5332 9.57031-6.17188 10.1172-6.17188L14.0625-6.17188L14.0625-2.2168C14.0625-1.67969 14.4336-1.29883 14.9512-1.29883C15.4883-1.29883 15.8594-1.66992 15.8594-2.2168L15.8594-6.17188L19.8145-6.17188C20.3516-6.17188 20.7324-6.5332 20.7324-7.05078C20.7324-7.59766 20.3613-7.96875 19.8145-7.96875L15.8594-7.96875L15.8594-11.9141C15.8594-12.4609 15.4883-12.8418 14.9512-12.8418C14.4336-12.8418 14.0625-12.4609 14.0625-11.9141L14.0625-7.96875L10.1172-7.96875C9.57031-7.96875 9.19922-7.59766 9.19922-7.05078Z"/>
  </g>
  <text style="stroke:none;fill:black;font-family:sans-serif;font-size:13;font-weight:bold;" transform="matrix(1 0 0 1 263 1953)">Design Variations</text>
  <text style="stroke:none;fill:black;font-family:sans-serif;font-size:13;" transform="matrix(1 0 0 1 263 1971)">Symbols are supported in up to nine weights and three scales.</text>
  <text style="stroke:none;fill:black;font-family:sans-serif;font-size:13;" transform="matrix(1 0 0 1 263 1989)">For optimal layout with text and other symbols, vertically align</text>
  <text style="stroke:none;fill:black;font-family:sans-serif;font-size:13;" transform="matrix(1 0 0 1 263 2007)">symbols with the adjacent text.</text>
  <line style="fill:none;stroke:#00AEEF;stroke-width:0.5;opacity:1.0;" x1="776" x2="776" y1="1919" y2="1933"/>
  <g transform="matrix(1 0 0 1 776 1933)">
   <path d="M3.31055 0.15625C3.82812 0.15625 4.08203-0.0390625 4.26758-0.585938L5.52734-4.0332L11.2891-4.0332L12.5488-0.585938C12.7344-0.0390625 12.9883 0.15625 13.4961 0.15625C14.0137 0.15625 14.3457-0.15625 14.3457-0.644531C14.3457-0.810547 14.3164-0.966797 14.2383-1.17188L9.6582-13.3691C9.43359-13.9648 9.0332-14.2676 8.4082-14.2676C7.80273-14.2676 7.39258-13.9746 7.17773-13.3789L2.59766-1.16211C2.51953-0.957031 2.49023-0.800781 2.49023-0.634766C2.49023-0.146484 2.80273 0.15625 3.31055 0.15625ZM6.00586-5.51758L8.37891-12.0898L8.42773-12.0898L10.8008-5.51758Z"/>
  </g>
  <line style="fill:none;stroke:#00AEEF;stroke-width:0.5;opacity:1.0;" x1="793.197" x2="793.197" y1="1919" y2="1933"/>
  <text style="stroke:none;fill:black;font-family:sans-serif;font-size:13;font-weight:bold;" transform="matrix(1 0 0 1 776 1953)">Margins</text>
  <text style="stroke:none;fill:black;font-family:sans-serif;font-size:13;" transform="matrix(1 0 0 1 776 1971)">Leading and trailing margins on the left and right side of each symbol</text>
  <text style="stroke:none;fill:black;font-family:sans-serif;font-size:13;" transform="matrix(1 0 0 1 776 1989)">can be adjusted by modifying the x-location of the margin guidelines.</text>
  <text style="stroke:none;fill:black;font-family:sans-serif;font-size:13;" transform="matrix(1 0 0 1 776 2007)">Modifications are automatically applied proportionally to all</text>
  <text style="stroke:none;fill:black;font-family:sans-serif;font-size:13;" transform="matrix(1 0 0 1 776 2025)">scales and weights.</text>
  <g transform="matrix(1 0 0 1 1289 1933)">
   <path d="M2.8418 1.86523L4.54102 3.57422C5.40039 4.44336 6.38672 4.38477 7.31445 3.35938L18.0078-8.42773L17.041-9.4043L6.42578 2.27539C6.07422 2.67578 5.74219 2.77344 5.27344 2.30469L4.10156 1.14258C3.63281 0.683594 3.74023 0.341797 4.14062-0.0195312L15.6152-10.8203L14.6387-11.7871L3.04688-0.898438C2.06055 0.0195312 1.98242 0.996094 2.8418 1.86523ZM9.25781-16.3281C8.83789-15.918 8.80859-15.3418 9.04297-14.9512C9.27734-14.5898 9.73633-14.3555 10.3809-14.5215C11.8457-14.8633 13.3691-14.9219 14.7949-13.9844L14.209-12.5293C13.8672-11.6992 14.043-11.1133 14.5801-10.5664L16.875-8.25195C17.3633-7.76367 17.7734-7.74414 18.3398-7.8418L19.4043-8.03711L20.0684-7.36328L20.0293-6.80664C19.9902-6.30859 20.1172-5.92773 20.6055-5.44922L21.3672-4.70703C21.8457-4.22852 22.4609-4.19922 22.9297-4.66797L25.8398-7.58789C26.3086-8.05664 26.2891-8.65234 25.8105-9.13086L25.0391-9.89258C24.5605-10.3711 24.1895-10.5273 23.7109-10.4883L23.1348-10.4395L22.4902-11.0742L22.7344-12.1973C22.8613-12.7637 22.7051-13.2031 22.1191-13.7891L19.9219-15.9766C16.582-19.2969 12.1484-19.2188 9.25781-16.3281ZM10.752-15.957C13.1836-17.7344 16.4746-17.4316 18.7012-15.2051L21.1328-12.793C21.3672-12.5586 21.4062-12.373 21.3379-12.0312L21.0156-10.5469L22.5195-9.0625L23.5059-9.12109C23.7598-9.13086 23.8379-9.11133 24.0332-8.91602L24.6094-8.33984L22.168-5.89844L21.5918-6.47461C21.3965-6.66992 21.3672-6.74805 21.377-7.01172L21.4453-7.98828L19.9512-9.47266L18.4277-9.21875C18.1055-9.15039 17.959-9.17969 17.7148-9.41406L15.7129-11.416C15.459-11.6504 15.4297-11.8164 15.5859-12.1875L16.4648-14.2773C14.9023-15.7324 12.8711-16.3574 10.8398-15.7617C10.6836-15.7227 10.625-15.8496 10.752-15.957Z"/>
  </g>
  <text style="stroke:none;fill:black;font-family:sans-serif;font-size:13;font-weight:bold;" transform="matrix(1 0 0 1 1289 1953)">Exporting</text>
  <text style="stroke:none;fill:black;font-family:sans-serif;font-size:13;" transform="matrix(1 0 0 1 1289 1971)">Symbols should be outlined when exporting to ensure the</text>
  <text style="stroke:none;fill:black;font-family:sans-serif;font-size:13;" transform="matrix(1 0 0 1 1289 1989)">design is preserved when submitting to Xcode.</text>
  <text id="template-version" style="stroke:none;fill:black;font-family:sans-serif;font-size:13;text-anchor:end;" transform="matrix(1 0 0 1 3036 1933)">Template v.4.0</text>
  <text style="stroke:none;fill:black;font-family:sans-serif;font-size:13;text-anchor:end;" transform="matrix(1 0 0 1 3036 1951)">Requires Xcode 14 or greater</text>
  <text id="descriptive-name" style="stroke:none;fill:black;font-family:sans-serif;font-size:13;text-anchor:end;" transform="matrix(1 0 0 1 3036 1969)">Generated from twitter.message1</text>
  <text style="stroke:none;fill:black;font-family:sans-serif;font-size:13;text-anchor:end;" transform="matrix(1 0 0 1 3036 1987)">Typeset at 100 points</text>
  <text style="stroke:none;fill:black;font-family:sans-serif;font-size:13;" transform="matrix(1 0 0 1 263 726)">Small</text>
  <text style="stroke:none;fill:black;font-family:sans-serif;font-size:13;" transform="matrix(1 0 0 1 263 1156)">Medium</text>
  <text style="stroke:none;fill:black;font-family:sans-serif;font-size:13;" transform="matrix(1 0 0 1 263 1586)">Large</text>
 </g>
 <g id="Guides">
  <g id="H-reference" style="fill:#27AAE1;stroke:none;" transform="matrix(1 0 0 1 339 696)">
   <path d="M0.993654 0L3.63775 0L29.3281-67.1323L30.0303-67.1323L30.0303-70.459L28.1226-70.459ZM11.6885-24.4799L46.9815-24.4799L46.2315-26.7285L12.4385-26.7285ZM55.1196 0L57.7637 0L30.6382-70.459L29.4326-70.459L29.4326-67.1323Z"/>
  </g>
  <line id="Baseline-S" style="fill:none;stroke:#27AAE1;opacity:1;stroke-width:0.5;" x1="263" x2="3036" y1="696" y2="696"/>
  <line id="Capline-S" style="fill:none;stroke:#27AAE1;opacity:1;stroke-width:0.5;" x1="263" x2="3036" y1="625.541" y2="625.541"/>
  <g id="H-reference" style="fill:#27AAE1;stroke:none;" transform="matrix(1 0 0 1 339 1126)">
   <path d="M0.993654 0L3.63775 0L29.3281-67.1323L30.0303-67.1323L30.0303-70.459L28.1226-70.459ZM11.6885-24.4799L46.9815-24.4799L46.2315-26.7285L12.4385-26.7285ZM55.1196 0L57.7637 0L30.6382-70.459L29.4326-70.459L29.4326-67.1323Z"/>
  </g>
  <line id="Baseline-M" style="fill:none;stroke:#27AAE1;opacity:1;stroke-width:0.5;" x1="263" x2="3036" y1="1126" y2="1126"/>
  <line id="Capline-M" style="fill:none;stroke:#27AAE1;opacity:1;stroke-width:0.5;" x1="263" x2="3036" y1="1055.54" y2="1055.54"/>
  <g id="H-reference" style="fill:#27AAE1;stroke:none;" transform="matrix(1 0 0 1 339 1556)">
   <path d="M0.993654 0L3.63775 0L29.3281-67.1323L30.0303-67.1323L30.0303-70.459L28.1226-70.459ZM11.6885-24.4799L46.9815-24.4799L46.2315-26.7285L12.4385-26.7285ZM55.1196 0L57.7637 0L30.6382-70.459L29.4326-70.459L29.4326-67.1323Z"/>
  </g>
  <line id="Baseline-L" style="fill:none;stroke:#27AAE1;opacity:1;stroke-width:0.5;" x1="263" x2="3036" y1="1556" y2="1556"/>
  <line id="Capline-L" style="fill:none;stroke:#27AAE1;opacity:1;stroke-width:0.5;" x1="263" x2="3036" y1="1485.54" y2="1485.54"/>
  <line id="left-margin-Ultralight-S" style="fill:none;stroke:#00AEEF;stroke-width:0.5;opacity:1.0;" x1="508.561" x2="508.561" y1="600.785" y2="720.121"/>
  <line id="right-margin-Ultralight-S" style="fill:none;stroke:#00AEEF;stroke-width:0.5;opacity:1.0;" x1="610.861" x2="610.861" y1="600.785" y2="720.121"/>
  <line id="left-margin-Regular-S" style="fill:none;stroke:#00AEEF;stroke-width:0.5;opacity:1.0;" x1="1393.47" x2="1393.47" y1="600.785" y2="720.121"/>
  <line id="right-margin-Regular-S" style="fill:none;stroke:#00AEEF;stroke-width:0.5;opacity:1.0;" x1="1506.22" x2="1506.22" y1="600.785" y2="720.121"/>
  <line id="left-margin-Black-S" style="fill:none;stroke:#00AEEF;stroke-width:0.5;opacity:1.0;" x1="2871.88" x2="2871.88" y1="600.785" y2="720.121"/>
  <line id="right-margin-Black-S" style="fill:none;stroke:#00AEEF;stroke-width:0.5;opacity:1.0;" x1="2994.92" x2="2994.92" y1="600.785" y2="720.121"/>
 </g>
 <g id="Symbols">
  <g id="Black-S" transform="matrix(1 0 0 1 2871.88 696)">
   <path class="monochrome-0 SFSymbolsPreview000000" d="M25.6134 1.85458C25.6134 1.55081 25.0361 1.45211 24.3161 1.63281C22.6284 2.05639 19.285-0.801354 17.8991-3.85195C16.7264-6.43333 16.3023-65.8358 17.4685-64.1624C17.8985-63.5453 17.9598-63.7495 17.7173-64.9916C17.503-66.0892 17.688-67.0005 18.2704-67.7204C18.7516-68.3149 18.9648-68.4329 18.7443-67.9826C18.5087-67.5014 18.5483-67.3514 18.8404-67.6188C19.1137-67.869 19.3679-68.2987 19.4056-68.5739C19.4435-68.849 19.5047-69.2997 19.5419-69.5753C19.5798-69.851 20.4542-70.5983 21.4859-71.2359C23.3523-72.3894 93.6637-73.3999 92.9612-72.2631C92.8389-72.066 93.1997-72.025 93.761-72.1718C95.1585-72.5373 98.6568-69.3799 99.9096-66.6228C101.45-63.2329 101.436-7.21219 99.8949-3.81793C98.5724-0.905568 95.0853 2.01893 93.4235 1.60974C92.7485 1.44341 92.1957 1.55386 92.1957 1.85508C92.1957 2.21559 80.816 2.4027 58.9049 2.40245C37.0096 2.4022 25.6139 2.2147 25.6139 1.85469ZM91.7497-7.18347C91.6541-7.66518 91.7781-7.93532 92.0226-7.78377C92.2672-7.63223 92.4153-15.1594 92.3507-24.5109C92.2405-40.3648 92.1664-41.5225 91.2589-41.6454C90.4453-41.7554 90.4651-41.6866 91.3769-41.2285C92.3378-40.7455 92.2904-40.704 90.9834-40.8814C90.0664-41.006 89.6316-40.8691 89.8451-40.5234C90.0578-40.1799 89.8288-40.1026 89.2545-40.3231C88.6233-40.5653 88.446-40.4763 88.7094-40.0502C88.9721-39.6242 88.7947-39.5351 88.1632-39.7773C87.6481-39.975 87.3592-39.9224 87.5211-39.6606C87.9298-38.9992 84.7717-37.7676 83.9576-38.2709C83.5047-38.5508 83.4361-38.4516 83.7413-37.9578C84.0684-37.4286 83.9371-37.3313 83.2515-37.5944C82.7364-37.792 82.4473-37.7395 82.6092-37.4776C83.018-36.8163 79.8599-35.5847 79.0458-36.0879C78.5929-36.3678 78.5243-36.2686 78.8295-35.7749C79.1565-35.2456 79.0254-35.1483 78.3397-35.4114C77.7085-35.6536 77.5306-35.5646 77.7939-35.1385C78.0572-34.7125 77.8792-34.6234 77.2481-34.8656C76.617-35.1079 76.439-35.0188 76.7024-34.5928C76.9657-34.1667 76.7877-34.0777 76.1566-34.3199C75.6416-34.5175 75.3526-34.465 75.5145-34.2031C75.9231-33.5417 72.7652-32.3102 71.951-32.8134C71.498-33.0933 71.4295-32.9941 71.7346-32.5003C72.0616-31.9712 71.9306-31.8738 71.2449-32.1369C70.6138-32.3791 70.4357-32.2902 70.699-31.864C70.9624-31.438 70.7843-31.349 70.1534-31.5912C69.6384-31.7888 69.3492-31.7363 69.5112-31.4744C69.9198-30.8131 66.7618-29.5815 65.9476-30.0847C65.4948-30.3646 65.4262-30.2654 65.7315-29.7717C66.0584-29.2424 65.9273-29.145 65.2416-29.4082C64.6104-29.6504 64.4325-29.5614 64.6958-29.1353C64.9592-28.7093 64.7811-28.6202 64.15-28.8624C63.6339-29.0605 63.3522-28.9973 63.5227-28.7216C63.9237-28.0729 61.8365-27.4068 61.0078-27.919C60.6278-28.1539 60.5196-28.0743 60.7381-27.7206C60.9402-27.3932 60.5893-26.9668 59.9502-26.764C58.6077-26.3378 53.8361-27.9942 54.2902-28.7288C54.4577-28.9999 54.1734-29.0601 53.6583-28.8624C53.0272-28.6202 52.8493-28.7093 53.1126-29.1353C53.376-29.5614 53.1979-29.6504 52.5668-29.4082C51.9357-29.166 51.7579-29.255 52.0212-29.6811C52.2846-30.1071 52.1064-30.1962 51.4753-29.954C50.7898-29.6908 50.6586-29.7881 50.9856-30.3174C51.284-30.8003 51.2216-30.9099 50.7973-30.6478C49.9686-30.1356 47.8816-30.8016 48.2825-31.4503C48.4529-31.7261 48.1713-31.7893 47.6551-31.5912C47.0239-31.3491 46.846-31.438 47.1093-31.864C47.3727-32.2902 47.1946-32.3791 46.5636-32.137C45.8779-31.8739 45.7468-31.9712 46.0739-32.5004C46.379-32.9941 46.3104-33.0933 45.8576-32.8135C45.0433-32.3102 41.8854-33.5418 42.294-34.2032C42.4559-34.4651 42.167-34.5176 41.6519-34.3199C41.0206-34.0777 40.8428-34.1668 41.106-34.5928C41.3694-35.0189 41.1913-35.1079 40.5602-34.8656C39.8746-34.6026 39.7435-34.6999 40.0705-35.2291C40.3756-35.7229 40.3071-35.8221 39.8542-35.5421C39.04-35.039 35.882-36.2706 36.2907-36.9319C36.4526-37.1938 36.1636-37.2464 35.6486-37.0487C35.0174-36.8065 34.8395-36.8955 35.1028-37.3215C35.3661-37.7477 35.188-37.8366 34.557-37.5944C33.8715-37.3313 33.7401-37.4286 34.0674-37.9578C34.3725-38.4516 34.3039-38.5508 33.8509-38.2709C33.0368-37.7677 29.8788-38.9993 30.2874-39.6607C30.4493-39.9225 30.1603-39.975 29.6453-39.7773C29.0142-39.5352 28.8362-39.6242 29.0995-40.0503C29.3628-40.4763 29.1847-40.5653 28.5538-40.3231C27.9791-40.1026 27.7509-40.18 27.9632-40.5234C28.1769-40.8692 27.7418-41.006 26.8246-40.8815C25.5179-40.704 25.4709-40.7455 26.432-41.2286C27.3433-41.6867 27.3628-41.7555 26.5496-41.6454C25.6416-41.5225 25.5679-40.3648 25.4581-24.5109C25.3875-14.2692 25.5391-7.63166 25.8425-7.81857C26.1186-7.98924 26.197-7.74427 26.0165-7.27407C25.5199-5.9798 23.9801-6.03118 58.9952-6.17366C88.8834-6.29533 91.9064-6.3885 91.7497-7.1835ZM60.373-36.5003C59.965-36.7947 60.1806-36.8691 60.9515-36.7C61.742-36.5268 62.0508-36.6404 61.8171-37.0184C61.5852-37.3936 61.793-37.4761 62.3905-37.2465C63.0216-37.0044 63.1997-37.0934 62.9363-37.5194C62.673-37.9455 62.851-38.0345 63.482-37.7923C64.1131-37.5501 64.291-37.6392 64.0278-38.0652C63.7644-38.4913 63.9425-38.5803 64.5735-38.3381C65.0898-38.14 65.3711-38.2032 65.2009-38.4789C64.7999-39.1276 66.8871-39.7937 67.7157-39.2815C68.1399-39.0193 68.2024-39.129 67.904-39.6118C67.577-40.1411 67.708-40.2384 68.3938-39.9754C69.025-39.7332 69.2028-39.8221 68.9395-40.2482C68.6762-40.6743 68.8542-40.7633 69.4853-40.5211C70.0003-40.3234 70.2893-40.376 70.1275-40.6378C69.7187-41.2992 72.8767-42.5308 73.691-42.0275C74.1439-41.7477 74.2125-41.8469 73.9073-42.3406C73.5804-42.8699 73.7114-42.9672 74.397-42.704C75.0283-42.4619 75.2061-42.5509 74.9428-42.977C74.6795-43.403 74.8576-43.4919 75.4886-43.2498C76.1197-43.0076 76.2977-43.0967 76.0344-43.5227C75.771-43.9488 75.9492-44.0378 76.5801-43.7955C77.0963-43.5975 77.3778-43.6607 77.2074-43.9364C76.8066-44.5851 78.8937-45.2512 79.7224-44.739C80.1465-44.4768 80.209-44.5865 79.9106-45.0694C79.5835-45.5986 79.7146-45.6959 80.4004-45.4329C81.0316-45.1907 81.2094-45.2796 80.9461-45.7057C80.6828-46.1318 80.8609-46.2208 81.4919-45.9786C82.007-45.781 82.2959-45.8335 82.1341-46.0953C81.7253-46.7567 84.8833-47.9883 85.6976-47.485C86.1505-47.2052 86.219-47.3044 85.9139-47.7981C85.5869-48.3274 85.718-48.4246 86.4037-48.1615C87.0348-47.9194 87.2127-48.0083 86.9494-48.4345C86.6861-48.8605 86.8642-48.9495 87.4952-48.7073C88.1263-48.4651 88.3042-48.5541 88.0409-48.9802C87.7776-49.4063 87.9556-49.4952 88.5863-49.253C89.2174-49.0109 89.3957-49.0999 89.1322-49.526C88.8687-49.952 89.047-50.041 89.6781-49.7988C90.3092-49.5566 90.4874-49.6457 90.224-50.0717C89.9631-50.493 90.1344-50.5886 90.7346-50.358C91.2908-50.1446 91.5861-50.266 91.506-50.6746C91.4354-51.039 91.6223-51.2964 91.9219-51.2467C92.4635-51.1572 92.6064-63.3873 92.0709-63.9229C91.7428-64.2505 26.078-64.263 25.7505-63.9357C25.6163-63.8014 25.4691-60.7509 25.4235-57.1567C25.3779-53.5625 25.4648-50.8233 25.6168-51.0694C25.7688-51.3155 26.3174-51.2066 26.8362-50.8272C27.3549-50.448 27.6065-49.9647 27.3952-49.7535C27.1839-49.5422 27.4735-49.5467 28.0389-49.7633C28.7495-50.0359 28.9462-49.9625 28.6762-49.5254C28.4128-49.0994 28.5909-49.0104 29.2219-49.2526C29.8531-49.4948 30.031-49.4058 29.7677-48.9797C29.5043-48.5536 29.6825-48.4647 30.3135-48.7069C30.9445-48.949 31.1225-48.86 30.8592-48.4339C30.5958-48.0079 30.774-47.9189 31.4048-48.1611C32.036-48.4033 32.214-48.3143 31.9506-47.8882C31.6873-47.4621 31.8654-47.3732 32.4964-47.6154C33.1821-47.8785 33.3133-47.7811 32.9862-47.2519C32.6877-46.769 32.7501-46.6593 33.1745-46.9215C34.0031-47.4337 36.0903-46.7676 35.6894-46.1189C35.5189-45.8432 35.8004-45.78 36.3167-45.978C36.9477-46.2202 37.1258-46.1313 36.8624-45.7052C36.5991-45.2791 36.7772-45.1901 37.4081-45.4323C38.0939-45.6955 38.2252-45.5981 37.8979-45.0689C37.5929-44.5751 37.6614-44.4759 38.1143-44.7558C38.9284-45.259 42.0866-44.0275 41.6778-43.3661C41.5159-43.1042 41.8048-43.0517 42.32-43.2493C42.9511-43.4915 43.129-43.4026 42.8657-42.9764C42.6024-42.5504 42.7805-42.4614 43.4115-42.7036C44.0971-42.9667 44.2283-42.8693 43.9013-42.3401C43.596-41.8463 43.6646-41.7472 44.1175-42.0271C44.9318-42.5303 48.0898-41.2987 47.6811-40.6374C47.5193-40.3755 47.8081-40.3229 48.3232-40.5206C49.0089-40.7838 49.1401-40.6864 48.813-40.1572C48.5079-39.6634 48.5764-39.5642 49.0293-39.8441C49.8436-40.3473 53.0016-39.1157 52.5928-38.4544C52.4309-38.1925 52.7199-38.1399 53.235-38.3376C53.8662-38.5798 54.0442-38.4909 53.7807-38.0647C53.5175-37.6387 53.6955-37.5497 54.3266-37.7919C54.9577-38.0341 55.1356-37.9451 54.8723-37.519C54.609-37.0929 54.7871-37.004 55.4181-37.2462C56.0161-37.4756 56.2232-37.3932 55.9915-37.0179C55.7578-36.6399 56.0673-36.5264 56.8569-36.6996C57.628-36.8686 57.8436-36.7943 57.4354-36.4998C57.0298-36.2072 57.5823-36.0308 58.9042-36.0308C60.2264-36.0308 60.7787-36.2072 60.373-36.4998ZM75.1793-65.117C66.5712-65.2015 52.3269-65.2016 43.5257-65.1172C34.7244-65.0328 41.7676-64.9638 59.1771-64.9637C76.5867-64.9636 83.7877-65.0328 75.1793-65.117ZM97.6529-1.12787C98.358-1.87827 98.8118-2.49225 98.662-2.49225C98.5113-2.49225 97.8121-1.87827 97.107-1.12787C96.4018-0.377448 95.948 0.236511 96.0979 0.236511C96.2485 0.236511 96.9477-0.377448 97.6529-1.12787ZM98.7446-68.1535C98.7446-68.2473 97.9465-69.0455 96.9701-69.9271C95.1972-71.53 95.1972-71.53 96.7996-69.7563C98.2943-68.103 98.7446-67.7318 98.7446-68.1534ZM21.7931 0.058779C21.7931-0.038921 21.1177-0.714357 20.2923-1.44204C18.7913-2.76512 18.7913-2.76512 20.1145-1.26432C21.3511 0.138432 21.7931 0.486783 21.7931 0.058779ZM23.9761 1.11355C23.9761 0.995552 23.5949 0.752796 23.1291 0.574039C22.6434 0.387663 22.4244 0.479172 22.6155 0.788528C22.936 1.30709 23.9761 1.55556 23.9761 1.11355ZM95.1929 0.788528C95.3841 0.479155 95.1654 0.387663 94.6798 0.574039C93.7344 0.936847 93.5613 1.32803 94.3457 1.32803C94.6281 1.32803 95.0095 1.08525 95.1929 0.788528ZM25.6134-63.0387C25.6134-63.3211 25.8561-63.7022 26.1528-63.8856C26.4622-64.0768 26.5536-63.8578 26.3672-63.372C26.0044-62.4266 25.6134-62.2536 25.6134-63.0387ZM91.4113-63.4566C91.116-64.2344 91.178-64.2971 91.717-63.7622C92.0898-63.3919 92.2577-62.9516 92.0898-62.7835C91.9219-62.6156 91.6162-62.9184 91.4113-63.4566ZM59.5864-27.4126C59.2112-27.564 58.5972-27.564 58.2221-27.4126C57.8469-27.2612 58.1532-27.1373 58.9042-27.1373C59.6547-27.1373 59.9617-27.2612 59.5864-27.4126ZM100.208-6.9606C100.034-7.39596 99.9053-7.26665 99.8786-6.63088C99.8545-6.05556 99.9845-5.73323 100.165-5.91459C100.347-6.09593 100.366-6.56664 100.208-6.9606ZM100.208-64.2647C100.034-64.7001 99.9053-64.5708 99.8786-63.935C99.8545-63.3596 99.9845-63.0373 100.165-63.2187C100.347-63.4 100.366-63.8707 100.208-64.2647ZM17.7999-6.9606C17.6256-7.39596 17.4962-7.26665 17.4701-6.63088C17.446-6.05556 17.5757-5.73323 17.7567-5.91459C17.9381-6.09593 17.9573-6.56664 17.7989-6.9606Z"/>
  </g>
  <g id="Regular-S" transform="matrix(1 0 0 1 1393.47 696)">
   <path class="monochrome-0 SFSymbolsPreview000000" d="M23.3241-1.07983C23.3241-1.3653 22.7816-1.45805 22.1051-1.28824C20.5191-0.890196 17.3772-3.57567 16.0749-6.44242C14.9729-8.86819 14.5744-64.6898 15.6703-63.1173C16.0743-62.5375 16.132-62.7293 15.9041-63.8966C15.7027-64.928 15.8764-65.7843 16.4238-66.4608C16.876-67.0195 17.0764-67.1304 16.8692-66.7073C16.6478-66.2551 16.685-66.1141 16.9594-66.3654C17.2163-66.6004 17.4552-67.0044 17.4905-67.2628C17.5264-67.5214 17.5837-67.945 17.6187-68.204C17.6546-68.4631 18.476-69.1653 19.4454-69.7644C21.1994-70.8484 87.2722-71.798 86.612-70.7297C86.4977-70.5445 86.8361-70.5059 87.3641-70.6439C88.6773-70.9873 91.9646-68.0203 93.1415-65.4294C94.5892-62.2439 94.5763-9.60003 93.1277-6.41037C91.8845-3.6736 88.6083-0.925392 87.0469-1.30992C86.4123-1.46621 85.8929-1.36241 85.8929-1.07937C85.8929-0.740584 75.1992-0.564755 54.6088-0.564995C34.0334-0.565226 23.3246-0.741423 23.3246-1.07973ZM85.4735-9.57305C85.3842-10.0258 85.5002-10.2796 85.73-10.1372C85.9604-9.99474 86.0991-17.0682 86.0383-25.856C85.9352-40.7542 85.8657-41.8422 85.0125-41.9576C84.2484-42.0611 84.2666-41.9964 85.1232-41.5659C86.0262-41.112 85.982-41.0729 84.754-41.2397C83.8922-41.3568 83.4834-41.2281 83.6843-40.9033C83.8837-40.5805 83.6686-40.5079 83.1292-40.7151C82.5362-40.9426 82.3689-40.859 82.6164-40.4586C82.8638-40.0583 82.6965-39.9747 82.1035-40.2022C81.6195-40.388 81.3479-40.3386 81.5001-40.0925C81.8842-39.471 78.9165-38.3136 78.1514-38.7865C77.7258-39.0496 77.6613-38.9563 77.9481-38.4924C78.2555-37.9951 78.1322-37.9035 77.4878-38.1508C77.0038-38.3365 76.7321-38.2872 76.8843-38.0411C77.2685-37.4196 74.3008-36.2623 73.5357-36.7352C73.11-36.9982 73.0457-36.905 73.3324-36.4409C73.6397-35.9437 73.5165-35.8522 72.8722-36.0994C72.279-36.327 72.1119-36.2434 72.3593-35.843C72.6067-35.4426 72.4394-35.359 71.8464-35.5865C71.2533-35.8142 71.0861-35.7306 71.3336-35.3301C71.581-34.9297 71.4137-34.8461 70.8206-35.0738C70.3367-35.2594 70.0651-35.2101 70.2173-34.964C70.6013-34.3425 67.6337-33.1852 66.8686-33.658C66.4428-33.9211 66.3785-33.8279 66.6652-33.3639C66.9725-32.8665 66.8493-32.7751 66.205-33.0223C65.612-33.2499 65.4447-33.1663 65.6921-32.7659C65.9396-32.3656 65.7722-32.2819 65.1793-32.5095C64.6953-32.6952 64.4236-32.6458 64.5758-32.3997C64.9599-31.7783 61.9922-30.6209 61.2271-31.0938C60.8015-31.3569 60.7371-31.2636 61.0239-30.7996C61.3312-30.3023 61.2079-30.2108 60.5636-30.4581C59.9705-30.6856 59.8033-30.602 60.0508-30.2017C60.2982-29.8013 60.1309-29.7177 59.5378-29.9452C59.0528-30.1313 58.7881-30.0719 58.9484-29.8129C59.3251-29.2032 57.3638-28.5774 56.585-29.0587C56.2279-29.2794 56.1262-29.2046 56.3315-28.8723C56.5216-28.5646 56.1917-28.1638 55.5912-27.9733C54.3296-27.5729 49.8457-29.1294 50.2723-29.8196C50.4298-30.0744 50.1626-30.131 49.6786-29.9452C49.0855-29.7177 48.9184-29.8013 49.1657-30.2017C49.4133-30.602 49.2459-30.6856 48.6529-30.4581C48.0598-30.2305 47.8927-30.3141 48.1401-30.7145C48.3876-31.1149 48.2202-31.1985 47.6272-30.9709C46.9829-30.7237 46.8597-30.8152 47.167-31.3125C47.4474-31.7663 47.3888-31.8694 46.9901-31.6229C46.2113-31.1417 44.25-31.7675 44.6268-32.3772C44.7869-32.6363 44.5223-32.6957 44.0372-32.5095C43.4441-32.2819 43.2769-32.3656 43.5243-32.766C43.7718-33.1664 43.6045-33.25 43.0116-33.0223C42.3672-32.7751 42.2439-32.8666 42.5513-33.3639C42.8381-33.8279 42.7736-33.9212 42.3481-33.658C41.5829-33.1853 38.6153-34.3426 38.9993-34.9641C39.1514-35.2101 38.8799-35.2595 38.3959-35.0738C37.8027-34.8462 37.6356-34.9298 37.8829-35.3301C38.1304-35.7306 37.9631-35.8142 37.3701-35.5866C36.7257-35.3394 36.6025-35.4308 36.9098-35.9282C37.1966-36.3921 37.1322-36.4853 36.7066-36.2223C35.9414-35.7494 32.9738-36.9068 33.3579-37.5283C33.51-37.7744 33.2384-37.8238 32.7544-37.638C32.1613-37.4104 31.9941-37.494 32.2416-37.8944C32.489-38.2948 32.3217-38.3784 31.7287-38.1509C31.0844-37.9036 30.961-37.9951 31.2685-38.4924C31.5553-38.9564 31.4908-39.0496 31.0652-38.7866C30.3001-38.3137 27.3325-39.471 27.7165-40.0925C27.8686-40.3386 27.597-40.388 27.1131-40.2022C26.5199-39.9747 26.3527-40.0583 26.6002-40.4587C26.8476-40.8591 26.6803-40.9426 26.0873-40.7151C25.5473-40.5079 25.3329-40.5806 25.5324-40.9033C25.7331-41.2283 25.3243-41.3568 24.4624-41.2398C23.2344-41.073 23.1903-41.112 24.0934-41.566C24.9499-41.9965 24.9681-42.0612 24.204-41.9577C23.3507-41.8422 23.2815-40.7543 23.1782-25.8561C23.1119-16.2316 23.2547-9.99428 23.5394-10.1699C23.7989-10.3303 23.8726-10.1001 23.703-9.65824C23.2363-8.44199 21.7893-8.49025 54.6938-8.62415C82.7803-8.73843 85.6209-8.82601 85.4735-9.57314ZM55.9885-37.1227C55.6051-37.3993 55.8076-37.4692 56.5322-37.3104C57.275-37.1476 57.5652-37.2543 57.3455-37.6095C57.1276-37.9621 57.3234-38.0396 57.8844-37.824C58.4774-37.5964 58.6448-37.68 58.3972-38.0804C58.1498-38.4808 58.3171-38.5645 58.9101-38.3368C59.5031-38.1093 59.6704-38.1929 59.4229-38.5933C59.1755-38.9936 59.3428-39.0772 59.9358-38.8497C60.4209-38.6636 60.6854-38.723 60.5253-38.982C60.1486-39.5916 62.1099-40.2175 62.8886-39.7362C63.2872-39.4899 63.346-39.5929 63.0655-40.0467C62.7582-40.5441 62.8814-40.6355 63.5258-40.3882C64.1189-40.1607 64.2861-40.2443 64.0386-40.6447C63.7912-41.0451 63.9585-41.1287 64.5515-40.9011C65.0355-40.7153 65.3071-40.7648 65.1549-41.0109C64.7708-41.6323 67.7385-42.7897 68.5037-42.3168C68.9293-42.0537 68.9937-42.147 68.707-42.6109C68.3997-43.1083 68.5229-43.1998 69.1672-42.9525C69.7603-42.725 69.9275-42.8086 69.6801-43.2089C69.4326-43.6093 69.6-43.6929 70.1929-43.4654C70.7859-43.2378 70.9533-43.3214 70.7058-43.7217C70.4583-44.1222 70.6257-44.2058 71.2186-43.9782C71.7037-43.7921 71.9683-43.8515 71.8081-44.1105C71.4315-44.7202 73.3927-45.346 74.1715-44.8648C74.57-44.6184 74.6288-44.7214 74.3484-45.1752C74.041-45.6726 74.1642-45.764 74.8086-45.5168C75.4017-45.2892 75.5689-45.3728 75.3215-45.7733C75.074-46.1736 75.2414-46.2572 75.8343-46.0296C76.3184-45.8439 76.5899-45.8933 76.4378-46.1394C76.0537-46.7608 79.0213-47.9181 79.7865-47.4453C80.2121-47.1822 80.2765-47.2755 79.9898-47.7395C79.6825-48.2368 79.8057-48.3283 80.45-48.0811C81.0431-47.8535 81.2103-47.937 80.9629-48.3374C80.7154-48.7378 80.8828-48.8215 81.4757-48.5939C82.0688-48.3663 82.236-48.4499 81.9886-48.8503C81.7412-49.2507 81.9085-49.3343 82.5014-49.1068C83.0945-48.8791 83.2618-48.9628 83.0143-49.3631C82.7669-49.7636 82.9342-49.8472 83.5272-49.6196C84.1202-49.3921 84.2875-49.4757 84.0399-49.876C83.7953-50.272 83.9561-50.3617 84.5201-50.145C85.0424-49.9446 85.3204-50.0586 85.2452-50.4425C85.1789-50.7849 85.354-51.0269 85.636-50.9802C86.1443-50.896 86.2789-62.3889 85.7756-62.8923C85.4678-63.2001 23.7607-63.212 23.453-62.9043C23.3269-62.7781 23.1886-59.9114 23.1457-56.534C23.1025-53.1565 23.1844-50.5822 23.3273-50.8136C23.4702-51.0449 23.9858-50.9425 24.4733-50.586C24.9608-50.2296 25.1971-49.7755 24.9985-49.577C24.8001-49.3784 25.0722-49.3828 25.6035-49.5862C26.2712-49.8424 26.4561-49.7734 26.2023-49.3627C25.9549-48.9623 26.1222-48.8787 26.7152-49.1063C27.3083-49.3338 27.4755-49.2502 27.228-48.8498C26.9806-48.4494 27.1479-48.3659 27.741-48.5934C28.334-48.821 28.5012-48.7374 28.2537-48.337C28.0063-47.9365 28.1736-47.853 28.7666-48.0806C29.3597-48.3081 29.5269-48.2245 29.2794-47.8241C29.0319-47.4237 29.1993-47.3402 29.7923-47.5677C30.4367-47.815 30.5599-47.7234 30.2526-47.2262C29.9721-46.7723 30.0307-46.6693 30.4295-46.9157C31.2082-47.397 33.1696-46.7711 32.7927-46.1615C32.6326-45.9024 32.8971-45.843 33.3823-46.0292C33.9753-46.2567 34.1426-46.1731 33.8951-45.7727C33.6477-45.3724 33.815-45.2887 34.408-45.5163C35.0524-45.7636 35.1757-45.672 34.8682-45.1747C34.5816-44.7108 34.646-44.6175 35.0715-44.8806C35.8366-45.3535 38.8043-44.1961 38.4202-43.5747C38.2681-43.3285 38.5396-43.2791 39.0238-43.4649C39.6168-43.6924 39.784-43.6088 39.5365-43.2085C39.2891-42.8081 39.4564-42.7245 40.0495-42.952C40.6937-43.1993 40.817-43.1079 40.5097-42.6105C40.2229-42.1465 40.2873-42.0533 40.7129-42.3163C41.4781-42.7892 44.4457-41.6318 44.0616-41.0104C43.9096-40.7642 44.181-40.7149 44.6651-40.9006C45.3094-41.1479 45.4327-41.0564 45.1253-40.5591C44.8386-40.0951 44.903-40.0019 45.3286-40.2649C46.0938-40.7378 49.0614-39.5805 48.6773-38.959C48.5252-38.7129 48.7967-38.6635 49.2808-38.8493C49.8739-39.0769 50.0412-38.9932 49.7936-38.5928C49.5462-38.1924 49.7135-38.1088 50.3066-38.3364C50.8996-38.564 51.0668-38.4804 50.8193-38.08C50.5719-37.6796 50.7392-37.5959 51.3323-37.8236C51.8942-38.0392 52.0889-37.9617 51.8711-37.6091C51.6515-37.2539 51.942-37.1472 52.6844-37.31C53.409-37.4689 53.6115-37.399 53.228-37.1223C52.8468-36.8472 53.3659-36.6815 54.6082-36.6815C55.8507-36.6815 56.3697-36.8472 55.9885-37.1223ZM69.9023-64.0144C61.813-64.0938 48.4274-64.0939 40.1568-64.0145C31.886-63.9352 38.5046-63.8704 54.8647-63.8703C71.2248-63.8703 77.9918-63.9351 69.9023-64.0144ZM91.0207-3.88251C91.6837-4.58771 92.1101-5.16466 91.9692-5.16466C91.8283-5.16466 91.1708-4.58771 90.5087-3.88251C89.8457-3.17732 89.419-2.60037 89.56-2.60037C89.7011-2.60037 90.3586-3.17732 91.0207-3.88251ZM92.0466-66.8678C92.0466-66.956 91.297-67.7061 90.3797-68.5345C88.7132-70.0409 88.7132-70.0409 90.2195-68.3741C91.6239-66.8204 92.0466-66.4715 92.0466-66.8678ZM19.7341-2.76739C19.7341-2.8592 19.0995-3.49392 18.3238-4.17774C16.9134-5.42104 16.9134-5.42104 18.1567-4.01072C19.3188-2.69254 19.7341-2.36518 19.7341-2.76739ZM21.7856-1.7762C21.7856-1.88708 21.4274-2.11521 20.9896-2.28319C20.5332-2.45833 20.3275-2.37233 20.507-2.08163C20.8082-1.59432 21.7856-1.36084 21.7856-1.7762ZM88.7096-2.08163C88.8892-2.37235 88.6838-2.45833 88.227-2.28319C87.3384-1.94225 87.1759-1.57465 87.9136-1.57465C88.179-1.57465 88.5372-1.80279 88.7096-2.08163ZM23.3241-62.0613C23.3241-62.3268 23.5522-62.6849 23.8311-62.8572C24.1218-63.0369 24.2077-62.8311 24.0326-62.3747C23.6916-61.4862 23.3241-61.3236 23.3241-62.0613ZM85.1562-62.4541C84.8779-63.1851 84.9368-63.2439 85.4432-62.7412C85.7938-62.3934 85.9514-61.9795 85.7934-61.8216C85.6355-61.6637 85.3487-61.9483 85.1562-62.4541ZM55.2494-28.5828C54.8967-28.725 54.3198-28.725 53.9672-28.5828C53.6147-28.4405 53.9027-28.3241 54.6082-28.3241C55.3135-28.3241 55.602-28.4405 55.2494-28.5828ZM93.4224-9.36364C93.2594-9.7728 93.1379-9.65124 93.113-9.05375C93.0909-8.51318 93.2125-8.21029 93.3828-8.38066C93.5532-8.55112 93.5707-8.99343 93.4233-9.36364ZM93.4224-63.2134C93.2594-63.6226 93.1379-63.501 93.113-62.9036C93.0909-62.363 93.2125-62.0601 93.3819-62.2305C93.5523-62.4009 93.5707-62.8432 93.4233-63.2134ZM15.9816-9.36364C15.8179-9.7728 15.6963-9.65124 15.6718-9.05375C15.6497-8.51318 15.7711-8.21029 15.9411-8.38066C16.1116-8.55112 16.1297-8.99343 15.9807-9.36364Z"/>
  </g>
  <g id="Ultralight-S" transform="matrix(1 0 0 1 508.561 696)">
   <path class="monochrome-0 SFSymbolsPreview000000" d="M21.7115-1.43149C21.7115-1.68574 21.2283-1.76833 20.6258-1.61711C19.2133-1.26261 16.4151-3.65429 15.2553-6.20739C14.2739-8.36779 13.9189-58.0827 14.8949-56.6822C15.2548-56.1658 15.3061-56.3367 15.1032-57.3762C14.9238-58.2947 15.0785-59.0575 15.5661-59.6599C15.9687-60.1575 16.1472-60.2563 15.9627-59.8795C15.7655-59.4768 15.7987-59.3512 16.0431-59.575C16.2718-59.7843 16.4846-60.144 16.5161-60.3743C16.5476-60.6045 16.5989-60.9818 16.6302-61.2124C16.6618-61.4432 17.3937-62.0686 18.2571-62.6022C19.8192-63.5676 78.6638-64.4132 78.0759-63.4619C77.974-63.2969 78.2754-63.2626 78.7457-63.3855C79.9152-63.6913 82.8431-61.0489 83.8912-58.7414C85.1801-55.9044 85.1688-9.01962 83.8787-6.17894C82.7717-3.74154 79.8535-1.29399 78.4629-1.63644C77.8977-1.77565 77.4352-1.68322 77.4352-1.43112C77.4352-1.12939 67.9113-0.972802 49.5735-0.973012C31.2489-0.973222 21.7117-1.13014 21.7117-1.43144ZM77.0619-8.99564C76.9822-9.39874 77.0852-9.62486 77.2903-9.49804C77.4954-9.37121 77.619-15.6708 77.5648-23.4973C77.473-36.7656 77.4112-37.7346 76.6513-37.8374C75.9708-37.9294 75.987-37.872 76.7499-37.4885C77.5542-37.0842 77.5148-37.0495 76.4211-37.198C75.6536-37.3023 75.2895-37.1877 75.4684-36.8984C75.646-36.611 75.4551-36.5462 74.9741-36.7307C74.4459-36.9334 74.2969-36.8589 74.5173-36.5024C74.7377-36.1458 74.5888-36.0713 74.0606-36.274C73.6295-36.4394 73.3876-36.3954 73.5231-36.1763C73.8652-35.6228 71.2222-34.592 70.5407-35.0132C70.1617-35.2474 70.1044-35.1644 70.3597-34.7512C70.6335-34.3083 70.5237-34.2268 69.9498-34.4471C69.5187-34.6125 69.2768-34.5684 69.4123-34.3493C69.7544-33.7958 67.1114-32.7651 66.43-33.1862C66.0509-33.4205 65.9936-33.3374 66.249-32.9242C66.5227-32.4813 66.4129-32.3998 65.839-32.62C65.3108-32.8227 65.1619-32.7482 65.3823-32.3916C65.6027-32.0351 65.4538-31.9606 64.9255-32.1633C64.3973-32.366 64.2484-32.2915 64.4688-31.9349C64.6892-31.5783 64.5403-31.5038 64.012-31.7065C63.581-31.872 63.3391-31.828 63.4746-31.6089C63.8166-31.0553 61.1736-30.0246 60.4922-30.4458C60.1131-30.68 60.0558-30.597 60.3112-30.1837C60.5849-29.7408 60.4751-29.6594 59.9013-29.8796C59.3731-30.0823 59.2241-30.0078 59.4445-29.6512C59.6649-29.2946 59.516-29.2202 58.9878-29.4229C58.5567-29.5883 58.3148-29.5442 58.4503-29.3251C58.7924-28.7716 56.1493-27.7409 55.468-28.1621C55.0889-28.3963 55.0316-28.3133 55.287-27.9C55.5607-27.4572 55.4509-27.3756 54.877-27.5958C54.3488-27.7985 54.1999-27.724 54.4203-27.3675C54.6407-27.0109 54.4918-26.9364 53.9635-27.1391C53.5315-27.3049 53.2958-27.252 53.4384-27.0212C53.7741-26.4784 52.0273-25.9209 51.3338-26.3495C51.0156-26.5462 50.925-26.4795 51.1079-26.1836C51.2772-25.9095 50.9835-25.5526 50.4486-25.3829C49.325-25.0263 45.3317-26.4124 45.7116-27.0273C45.8518-27.2542 45.6139-27.3045 45.1829-27.1391C44.6547-26.9364 44.5058-27.0109 44.7261-27.3675C44.9465-27.724 44.7975-27.7985 44.2694-27.5958C43.7412-27.3931 43.5923-27.4676 43.8126-27.8242C44.033-28.1808 43.8841-28.2553 43.3558-28.0526C42.7821-27.8324 42.6723-27.9139 42.946-28.3568C43.1957-28.7609 43.1435-28.8527 42.7884-28.6333C42.0948-28.2046 40.3481-28.7621 40.6837-29.305C40.8263-29.5357 40.5907-29.5886 40.1586-29.4229C39.6304-29.2202 39.4815-29.2947 39.7019-29.6513C39.9223-30.0079 39.7734-30.0823 39.2452-29.8796C38.6713-29.6594 38.5615-29.7409 38.8352-30.1838C39.0906-30.5971 39.0333-30.68 38.6542-30.4458C37.9728-30.0246 35.3298-31.0554 35.6718-31.6089C35.8073-31.8281 35.5655-31.872 35.1344-31.7066C34.6062-31.5039 34.4573-31.5783 34.6776-31.9349C34.898-32.2915 34.7491-32.366 34.2209-32.1633C33.647-31.9431 33.5372-32.0246 33.8109-32.4675C34.0663-32.8807 34.009-32.9638 33.6299-32.7295C32.9485-32.3084 30.3055-33.3391 30.6476-33.8926C30.7831-34.1118 30.5412-34.1557 30.1101-33.9903C29.5819-33.7876 29.433-33.8621 29.6534-34.2187C29.8738-34.5753 29.7249-34.6498 29.1966-34.4471C28.6228-34.2269 28.5129-34.3083 28.7867-34.7512C29.0421-35.1645 28.9848-35.2475 28.6057-35.0132C27.9243-34.592 25.2813-35.6228 25.6233-36.1763C25.7588-36.3954 25.5169-36.4395 25.0859-36.274C24.5577-36.0713 24.4087-36.1458 24.6291-36.5024C24.8495-36.859 24.7006-36.9334 24.1724-36.7308C23.6914-36.5462 23.5005-36.611 23.6781-36.8984C23.8569-37.1878 23.4928-37.3023 22.7253-37.1981C21.6316-37.0495 21.5923-37.0842 22.3966-37.4885C23.1594-37.872 23.1756-37.9295 22.4951-37.8374C21.7352-37.7346 21.6735-36.7656 21.5816-23.4973C21.5222-14.9257 21.65-9.37066 21.9032-9.52713C22.1344-9.67 22.1999-9.46495 22.0488-9.07142C21.6333-7.98822 20.3445-8.03126 49.6493-8.15052C74.6633-8.25227 77.1932-8.33032 77.0619-8.99565ZM50.8025-33.5313C50.461-33.7777 50.6414-33.84 51.2866-33.6986C51.9482-33.5535 52.2066-33.6486 52.011-33.9649C51.817-34.2789 51.9905-34.3479 52.4909-34.1559C53.0191-33.9532 53.1681-34.0277 52.9476-34.3843C52.7272-34.7409 52.8761-34.8153 53.4044-34.6127C53.9326-34.41 54.0815-34.4844 53.8611-34.841C53.6408-35.1976 53.7897-35.2721 54.3179-35.0694C54.7499-34.9037 54.9855-34.9566 54.8429-35.1873C54.5074-35.7302 56.2541-36.2877 56.9477-35.8589C57.3027-35.6396 57.3551-35.7313 57.1053-36.1355C56.8315-36.5784 56.9413-36.6599 57.5152-36.4397C58.0434-36.237 58.1923-36.3115 57.9719-36.6681C57.7515-37.0247 57.9004-37.0992 58.4286-36.8965C58.8597-36.731 59.1016-36.775 58.9661-36.9941C58.624-37.5477 61.2671-38.5783 61.9486-38.1572C62.3276-37.9229 62.3849-38.006 62.1295-38.4192C61.8558-38.8622 61.9656-38.9436 62.5394-38.7234C63.0677-38.5207 63.2166-38.5952 62.9962-38.9518C62.7758-39.3084 62.9247-39.3828 63.4529-39.1801C63.9811-38.9774 64.1301-39.0519 63.9097-39.4085C63.6892-39.7651 63.8382-39.8396 64.3664-39.6369C64.7984-39.4712 65.0341-39.524 64.8914-39.7547C64.556-40.2977 66.3027-40.8552 66.9963-40.4264C67.3512-40.2071 67.4036-40.2988 67.1538-40.703C66.88-41.1459 66.9898-41.2273 67.5637-41.0071C68.0919-40.8045 68.2408-40.8789 68.0205-41.2355C67.8-41.5921 67.949-41.6665 68.4772-41.4639C68.9083-41.2985 69.1501-41.3425 69.0147-41.5616C68.6726-42.1151 71.3156-43.1458 71.997-42.7247C72.3761-42.4904 72.4334-42.5735 72.178-42.9867C71.9043-43.4296 72.0141-43.5111 72.588-43.2909C73.1162-43.0882 73.2651-43.1627 73.0447-43.5193C72.8243-43.8758 72.9732-43.9503 73.5015-43.7476C74.0297-43.5449 74.1786-43.6194 73.9582-43.976C73.7378-44.3326 73.8867-44.4071 74.4149-44.2044C74.9431-44.0017 75.0921-44.0761 74.8717-44.4327C74.6513-44.7893 74.8002-44.8638 75.3284-44.6611C75.8566-44.4584 76.0056-44.5329 75.7851-44.8895C75.5673-45.2421 75.7099-45.3221 76.2128-45.129C76.6779-44.9505 76.9256-45.0521 76.8586-45.394C76.7988-45.699 76.9554-45.9144 77.2066-45.8729C77.6593-45.7979 77.7792-56.0335 77.3309-56.4818C77.0568-56.7559 22.1003-56.7665 21.8263-56.4925C21.714-56.3801 21.5908-53.8271 21.5526-50.819C21.5143-47.811 21.5871-45.5185 21.7143-45.7244C21.8415-45.9305 22.3008-45.8393 22.735-45.5218C23.1691-45.2044 23.3796-44.8 23.2027-44.6232C23.0259-44.4463 23.2683-44.4501 23.7415-44.6314C24.3361-44.8595 24.5008-44.7981 24.2748-44.4323C24.0544-44.0757 24.2033-44.0013 24.7316-44.2039C25.2598-44.4066 25.4087-44.3321 25.1883-43.9756C24.9679-43.619 25.1168-43.5445 25.6451-43.7472C26.1732-43.9499 26.3222-43.8754 26.1018-43.5188C25.8814-43.1622 26.0303-43.0877 26.5585-43.2904C27.0867-43.4931 27.2357-43.4187 27.0153-43.0621C26.7949-42.7055 26.9439-42.631 27.472-42.8337C28.0459-43.0539 28.1557-42.9725 27.882-42.5295C27.6322-42.1253 27.6844-42.0336 28.0395-42.253C28.733-42.6816 30.4798-42.1243 30.1442-41.5814C30.0016-41.3506 30.2372-41.2976 30.6693-41.4635C31.1975-41.6662 31.3464-41.5917 31.126-41.2351C30.9056-40.8785 31.0545-40.804 31.5828-41.0067C32.1567-41.2269 32.2665-41.1455 31.9927-40.7025C31.7374-40.2893 31.7947-40.2062 32.1737-40.4406C32.8551-40.8617 35.4982-39.8309 35.1561-39.2775C35.0206-39.0583 35.2625-39.0143 35.6936-39.1797C36.2218-39.3824 36.3707-39.3079 36.1503-38.9513C35.9299-38.5947 36.0788-38.5203 36.6071-38.7229C37.1809-38.9432 37.2907-38.8617 37.017-38.4188C36.7616-38.0056 36.8189-37.9226 37.1979-38.1568C37.8794-38.578 40.5224-37.5472 40.1803-36.9937C40.0449-36.7746 40.2867-36.7306 40.7178-36.896C41.2917-37.1162 41.4014-37.0348 41.1277-36.5918C40.8723-36.1786 40.9297-36.0956 41.3087-36.3299C41.9902-36.751 44.6332-35.7203 44.2911-35.1668C44.1556-34.9476 44.3975-34.9036 44.8286-35.0691C45.3568-35.2718 45.5057-35.1973 45.2853-34.8407C45.0649-34.4841 45.2138-34.4096 45.7421-34.6123C46.2703-34.815 46.4192-34.7406 46.1988-34.384C45.9784-34.0274 46.1273-33.9529 46.6556-34.1556C47.1561-34.3476 47.3295-34.2786 47.1355-33.9645C46.9399-33.6482 47.1983-33.5531 47.8598-33.6982C48.5051-33.8396 48.6855-33.7774 48.3439-33.531C48.0045-33.2861 48.4668-33.1385 49.5732-33.1385C50.6797-33.1385 51.142-33.2861 50.8025-33.531ZM63.1941-57.4811C55.9898-57.5518 44.0686-57.5519 36.7027-57.4813C29.3367-57.4108 35.2312-57.3529 49.8016-57.3529C64.372-57.3529 70.3986-57.4106 63.1941-57.4811ZM82.0025-3.92756C82.5925-4.55559 82.9724-5.06943 82.8469-5.06943C82.7212-5.06943 82.1358-4.55559 81.5458-3.92756C80.9558-3.29953 80.5758-2.78569 80.7014-2.78569C80.827-2.78569 81.4125-3.29953 82.0025-3.92756ZM82.916-60.0224C82.916-60.101 82.248-60.7689 81.4315-61.5068C79.9471-62.8484 79.9471-62.8484 81.2886-61.3639C82.5392-59.9802 82.916-59.6695 82.916-60.0224ZM18.5142-2.93444C18.5142-3.01623 17.949-3.58149 17.2582-4.1905C16.0021-5.29781 16.0021-5.29781 17.1094-4.04176C18.1443-2.86777 18.5142-2.57623 18.5142-2.93444ZM20.3413-2.05169C20.3413-2.15044 20.0222-2.35361 19.6324-2.50321C19.2259-2.65919 19.0426-2.58263 19.2025-2.3237C19.4708-1.8897 20.3413-1.68176 20.3413-2.05169ZM79.944-2.3237C80.104-2.58262 79.9207-2.65919 79.5141-2.50321C78.7228-2.19957 78.578-1.87219 79.235-1.87219C79.4715-1.87219 79.7904-2.07537 79.9439-2.3237ZM21.7115-55.7417C21.7115-55.9782 21.9146-56.2971 22.163-56.4506C22.4219-56.6107 22.4985-56.4274 22.3424-56.0208C22.0388-55.2295 21.7115-55.0847 21.7115-55.7417ZM76.7792-56.0916C76.5314-56.7425 76.5838-56.795 77.0349-56.3473C77.3471-56.0374 77.4874-55.6689 77.3468-55.5283C77.2061-55.3876 76.9508-55.6412 76.7792-56.0916ZM50.1442-25.9257C49.8301-26.0525 49.3163-26.0525 49.0022-25.9257C48.6883-25.799 48.9452-25.6953 49.5732-25.6953C50.2012-25.6953 50.4582-25.799 50.1442-25.9257ZM84.1415-8.80909C83.9957-9.17344 83.8875-9.06521 83.8655-8.5331C83.8456-8.05167 83.9536-7.78187 84.1055-7.93369C84.2572-8.08541 84.2735-8.47939 84.1415-8.80909ZM84.1415-56.7679C83.9957-57.1322 83.8875-57.024 83.8655-56.492C83.8456-56.0104 83.9536-55.7406 84.1055-55.8925C84.2572-56.0442 84.2735-56.4382 84.1415-56.7679ZM15.1722-8.80909C15.0264-9.17344 14.9182-9.06521 14.8963-8.5331C14.8764-8.05167 14.9845-7.78187 15.1362-7.93369C15.288-8.08541 15.3041-8.47939 15.1722-8.80909Z"/>
  </g>
 </g>
</svg>
