<?xml version="1.0" encoding="UTF-8"?>
<!--Generator: Apple Native CoreSVG 175.5-->
<!DOCTYPE svg
PUBLIC "-//W3C//DTD SVG 1.1//EN"
       "http://www.w3.org/Graphics/SVG/1.1/DTD/svg11.dtd">
<svg version="1.1" xmlns="http://www.w3.org/2000/svg" xmlns:xlink="http://www.w3.org/1999/xlink" width="3300" height="2200">
 <!--glyph: "", point size: 100.0, font version: "18.0d12e2", template writer version: "101"-->
 <style>.monochrome-0 {fill:#000000}

.SFSymbolsPreview000000 {fill:#000000;opacity:1.0}
</style>
 <g id="Notes">
  <rect height="2200" id="artboard" style="fill:white;opacity:1" width="3300" x="0" y="0"/>
  <line style="fill:none;stroke:black;opacity:1;stroke-width:0.5;" x1="263" x2="3036" y1="292" y2="292"/>
  <text style="stroke:none;fill:black;font-family:sans-serif;font-size:13;font-weight:bold;" transform="matrix(1 0 0 1 263 322)">Weight/Scale Variations</text>
  <text style="stroke:none;fill:black;font-family:sans-serif;font-size:13;text-anchor:middle;" transform="matrix(1 0 0 1 559.711 322)">Ultralight</text>
  <text style="stroke:none;fill:black;font-family:sans-serif;font-size:13;text-anchor:middle;" transform="matrix(1 0 0 1 856.422 322)">Thin</text>
  <text style="stroke:none;fill:black;font-family:sans-serif;font-size:13;text-anchor:middle;" transform="matrix(1 0 0 1 1153.13 322)">Light</text>
  <text style="stroke:none;fill:black;font-family:sans-serif;font-size:13;text-anchor:middle;" transform="matrix(1 0 0 1 1449.84 322)">Regular</text>
  <text style="stroke:none;fill:black;font-family:sans-serif;font-size:13;text-anchor:middle;" transform="matrix(1 0 0 1 1746.56 322)">Medium</text>
  <text style="stroke:none;fill:black;font-family:sans-serif;font-size:13;text-anchor:middle;" transform="matrix(1 0 0 1 2043.27 322)">Semibold</text>
  <text style="stroke:none;fill:black;font-family:sans-serif;font-size:13;text-anchor:middle;" transform="matrix(1 0 0 1 2339.98 322)">Bold</text>
  <text style="stroke:none;fill:black;font-family:sans-serif;font-size:13;text-anchor:middle;" transform="matrix(1 0 0 1 2636.69 322)">Heavy</text>
  <text style="stroke:none;fill:black;font-family:sans-serif;font-size:13;text-anchor:middle;" transform="matrix(1 0 0 1 2933.4 322)">Black</text>
  <line style="fill:none;stroke:black;opacity:1;stroke-width:0.5;" x1="263" x2="3036" y1="1903" y2="1903"/>
  <g transform="matrix(1 0 0 1 263 1933)">
   <path d="M9.24805 0.830078C13.5547 0.830078 17.1387-2.74414 17.1387-7.05078C17.1387-11.3574 13.5449-14.9316 9.23828-14.9316C4.94141-14.9316 1.36719-11.3574 1.36719-7.05078C1.36719-2.74414 4.95117 0.830078 9.24805 0.830078ZM9.24805-0.654297C5.70312-0.654297 2.87109-3.49609 2.87109-7.05078C2.87109-10.6055 5.69336-13.4473 9.23828-13.4473C12.793-13.4473 15.6445-10.6055 15.6445-7.05078C15.6445-3.49609 12.8027-0.654297 9.24805-0.654297ZM5.6543-7.05078C5.6543-6.62109 5.95703-6.32812 6.40625-6.32812L8.50586-6.32812L8.50586-4.20898C8.50586-3.76953 8.79883-3.4668 9.22852-3.4668C9.67773-3.4668 9.9707-3.76953 9.9707-4.20898L9.9707-6.32812L12.0898-6.32812C12.5293-6.32812 12.832-6.62109 12.832-7.05078C12.832-7.49023 12.5293-7.79297 12.0898-7.79297L9.9707-7.79297L9.9707-9.90234C9.9707-10.3516 9.67773-10.6543 9.22852-10.6543C8.79883-10.6543 8.50586-10.3516 8.50586-9.90234L8.50586-7.79297L6.40625-7.79297C5.95703-7.79297 5.6543-7.49023 5.6543-7.05078Z"/>
  </g>
  <g transform="matrix(1 0 0 1 281.867 1933)">
   <path d="M11.709 2.91016C17.1582 2.91016 21.6699-1.61133 21.6699-7.05078C21.6699-12.5 17.1484-17.0117 11.6992-17.0117C6.25977-17.0117 1.74805-12.5 1.74805-7.05078C1.74805-1.61133 6.26953 2.91016 11.709 2.91016ZM11.709 1.25C7.09961 1.25 3.41797-2.44141 3.41797-7.05078C3.41797-11.6602 7.08984-15.3516 11.6992-15.3516C16.3086-15.3516 20.0098-11.6602 20.0098-7.05078C20.0098-2.44141 16.3184 1.25 11.709 1.25ZM7.17773-7.05078C7.17773-6.57227 7.50977-6.25 8.00781-6.25L10.8789-6.25L10.8789-3.36914C10.8789-2.88086 11.2109-2.53906 11.6895-2.53906C12.1777-2.53906 12.5195-2.87109 12.5195-3.36914L12.5195-6.25L15.4004-6.25C15.8887-6.25 16.2305-6.57227 16.2305-7.05078C16.2305-7.53906 15.8887-7.88086 15.4004-7.88086L12.5195-7.88086L12.5195-10.752C12.5195-11.25 12.1777-11.5918 11.6895-11.5918C11.2109-11.5918 10.8789-11.25 10.8789-10.752L10.8789-7.88086L8.00781-7.88086C7.50977-7.88086 7.17773-7.53906 7.17773-7.05078Z"/>
  </g>
  <g transform="matrix(1 0 0 1 305.646 1933)">
   <path d="M14.9707 5.66406C21.9336 5.66406 27.6953-0.0976562 27.6953-7.05078C27.6953-14.0137 21.9238-19.7754 14.9609-19.7754C8.00781-19.7754 2.25586-14.0137 2.25586-7.05078C2.25586-0.0976562 8.01758 5.66406 14.9707 5.66406ZM14.9707 3.84766C8.93555 3.84766 4.08203-1.01562 4.08203-7.05078C4.08203-13.0957 8.92578-17.9492 14.9609-17.9492C21.0059-17.9492 25.8691-13.0957 25.8691-7.05078C25.8691-1.01562 21.0156 3.84766 14.9707 3.84766ZM9.19922-7.05078C9.19922-6.5332 9.57031-6.17188 10.1172-6.17188L14.0625-6.17188L14.0625-2.2168C14.0625-1.67969 14.4336-1.29883 14.9512-1.29883C15.4883-1.29883 15.8594-1.66992 15.8594-2.2168L15.8594-6.17188L19.8145-6.17188C20.3516-6.17188 20.7324-6.5332 20.7324-7.05078C20.7324-7.59766 20.3613-7.96875 19.8145-7.96875L15.8594-7.96875L15.8594-11.9141C15.8594-12.4609 15.4883-12.8418 14.9512-12.8418C14.4336-12.8418 14.0625-12.4609 14.0625-11.9141L14.0625-7.96875L10.1172-7.96875C9.57031-7.96875 9.19922-7.59766 9.19922-7.05078Z"/>
  </g>
  <text style="stroke:none;fill:black;font-family:sans-serif;font-size:13;font-weight:bold;" transform="matrix(1 0 0 1 263 1953)">Design Variations</text>
  <text style="stroke:none;fill:black;font-family:sans-serif;font-size:13;" transform="matrix(1 0 0 1 263 1971)">Symbols are supported in up to nine weights and three scales.</text>
  <text style="stroke:none;fill:black;font-family:sans-serif;font-size:13;" transform="matrix(1 0 0 1 263 1989)">For optimal layout with text and other symbols, vertically align</text>
  <text style="stroke:none;fill:black;font-family:sans-serif;font-size:13;" transform="matrix(1 0 0 1 263 2007)">symbols with the adjacent text.</text>
  <line style="fill:none;stroke:#00AEEF;stroke-width:0.5;opacity:1.0;" x1="776" x2="776" y1="1919" y2="1933"/>
  <g transform="matrix(1 0 0 1 776 1933)">
   <path d="M3.31055 0.15625C3.82812 0.15625 4.08203-0.0390625 4.26758-0.585938L5.52734-4.0332L11.2891-4.0332L12.5488-0.585938C12.7344-0.0390625 12.9883 0.15625 13.4961 0.15625C14.0137 0.15625 14.3457-0.15625 14.3457-0.644531C14.3457-0.810547 14.3164-0.966797 14.2383-1.17188L9.6582-13.3691C9.43359-13.9648 9.0332-14.2676 8.4082-14.2676C7.80273-14.2676 7.39258-13.9746 7.17773-13.3789L2.59766-1.16211C2.51953-0.957031 2.49023-0.800781 2.49023-0.634766C2.49023-0.146484 2.80273 0.15625 3.31055 0.15625ZM6.00586-5.51758L8.37891-12.0898L8.42773-12.0898L10.8008-5.51758Z"/>
  </g>
  <line style="fill:none;stroke:#00AEEF;stroke-width:0.5;opacity:1.0;" x1="793.197" x2="793.197" y1="1919" y2="1933"/>
  <text style="stroke:none;fill:black;font-family:sans-serif;font-size:13;font-weight:bold;" transform="matrix(1 0 0 1 776 1953)">Margins</text>
  <text style="stroke:none;fill:black;font-family:sans-serif;font-size:13;" transform="matrix(1 0 0 1 776 1971)">Leading and trailing margins on the left and right side of each symbol</text>
  <text style="stroke:none;fill:black;font-family:sans-serif;font-size:13;" transform="matrix(1 0 0 1 776 1989)">can be adjusted by modifying the x-location of the margin guidelines.</text>
  <text style="stroke:none;fill:black;font-family:sans-serif;font-size:13;" transform="matrix(1 0 0 1 776 2007)">Modifications are automatically applied proportionally to all</text>
  <text style="stroke:none;fill:black;font-family:sans-serif;font-size:13;" transform="matrix(1 0 0 1 776 2025)">scales and weights.</text>
  <g transform="matrix(1 0 0 1 1289 1933)">
   <path d="M2.8418 1.86523L4.54102 3.57422C5.40039 4.44336 6.38672 4.38477 7.31445 3.35938L18.0078-8.42773L17.041-9.4043L6.42578 2.27539C6.07422 2.67578 5.74219 2.77344 5.27344 2.30469L4.10156 1.14258C3.63281 0.683594 3.74023 0.341797 4.14062-0.0195312L15.6152-10.8203L14.6387-11.7871L3.04688-0.898438C2.06055 0.0195312 1.98242 0.996094 2.8418 1.86523ZM9.25781-16.3281C8.83789-15.918 8.80859-15.3418 9.04297-14.9512C9.27734-14.5898 9.73633-14.3555 10.3809-14.5215C11.8457-14.8633 13.3691-14.9219 14.7949-13.9844L14.209-12.5293C13.8672-11.6992 14.043-11.1133 14.5801-10.5664L16.875-8.25195C17.3633-7.76367 17.7734-7.74414 18.3398-7.8418L19.4043-8.03711L20.0684-7.36328L20.0293-6.80664C19.9902-6.30859 20.1172-5.92773 20.6055-5.44922L21.3672-4.70703C21.8457-4.22852 22.4609-4.19922 22.9297-4.66797L25.8398-7.58789C26.3086-8.05664 26.2891-8.65234 25.8105-9.13086L25.0391-9.89258C24.5605-10.3711 24.1895-10.5273 23.7109-10.4883L23.1348-10.4395L22.4902-11.0742L22.7344-12.1973C22.8613-12.7637 22.7051-13.2031 22.1191-13.7891L19.9219-15.9766C16.582-19.2969 12.1484-19.2188 9.25781-16.3281ZM10.752-15.957C13.1836-17.7344 16.4746-17.4316 18.7012-15.2051L21.1328-12.793C21.3672-12.5586 21.4062-12.373 21.3379-12.0312L21.0156-10.5469L22.5195-9.0625L23.5059-9.12109C23.7598-9.13086 23.8379-9.11133 24.0332-8.91602L24.6094-8.33984L22.168-5.89844L21.5918-6.47461C21.3965-6.66992 21.3672-6.74805 21.377-7.01172L21.4453-7.98828L19.9512-9.47266L18.4277-9.21875C18.1055-9.15039 17.959-9.17969 17.7148-9.41406L15.7129-11.416C15.459-11.6504 15.4297-11.8164 15.5859-12.1875L16.4648-14.2773C14.9023-15.7324 12.8711-16.3574 10.8398-15.7617C10.6836-15.7227 10.625-15.8496 10.752-15.957Z"/>
  </g>
  <text style="stroke:none;fill:black;font-family:sans-serif;font-size:13;font-weight:bold;" transform="matrix(1 0 0 1 1289 1953)">Exporting</text>
  <text style="stroke:none;fill:black;font-family:sans-serif;font-size:13;" transform="matrix(1 0 0 1 1289 1971)">Symbols should be outlined when exporting to ensure the</text>
  <text style="stroke:none;fill:black;font-family:sans-serif;font-size:13;" transform="matrix(1 0 0 1 1289 1989)">design is preserved when submitting to Xcode.</text>
  <text id="template-version" style="stroke:none;fill:black;font-family:sans-serif;font-size:13;text-anchor:end;" transform="matrix(1 0 0 1 3036 1933)">Template v.4.0</text>
  <text style="stroke:none;fill:black;font-family:sans-serif;font-size:13;text-anchor:end;" transform="matrix(1 0 0 1 3036 1951)">Requires Xcode 14 or greater</text>
  <text id="descriptive-name" style="stroke:none;fill:black;font-family:sans-serif;font-size:13;text-anchor:end;" transform="matrix(1 0 0 1 3036 1969)">Generated from persons.fill</text>
  <text style="stroke:none;fill:black;font-family:sans-serif;font-size:13;text-anchor:end;" transform="matrix(1 0 0 1 3036 1987)">Typeset at 100 points</text>
  <text style="stroke:none;fill:black;font-family:sans-serif;font-size:13;" transform="matrix(1 0 0 1 263 726)">Small</text>
  <text style="stroke:none;fill:black;font-family:sans-serif;font-size:13;" transform="matrix(1 0 0 1 263 1156)">Medium</text>
  <text style="stroke:none;fill:black;font-family:sans-serif;font-size:13;" transform="matrix(1 0 0 1 263 1586)">Large</text>
 </g>
 <g id="Guides">
  <g id="H-reference" style="fill:#27AAE1;stroke:none;" transform="matrix(1 0 0 1 339 696)">
   <path d="M0.993654 0L3.63775 0L29.3281-67.1323L30.0303-67.1323L30.0303-70.459L28.1226-70.459ZM11.6885-24.4799L46.9815-24.4799L46.2315-26.7285L12.4385-26.7285ZM55.1196 0L57.7637 0L30.6382-70.459L29.4326-70.459L29.4326-67.1323Z"/>
  </g>
  <line id="Baseline-S" style="fill:none;stroke:#27AAE1;opacity:1;stroke-width:0.5;" x1="263" x2="3036" y1="696" y2="696"/>
  <line id="Capline-S" style="fill:none;stroke:#27AAE1;opacity:1;stroke-width:0.5;" x1="263" x2="3036" y1="625.541" y2="625.541"/>
  <g id="H-reference" style="fill:#27AAE1;stroke:none;" transform="matrix(1 0 0 1 339 1126)">
   <path d="M0.993654 0L3.63775 0L29.3281-67.1323L30.0303-67.1323L30.0303-70.459L28.1226-70.459ZM11.6885-24.4799L46.9815-24.4799L46.2315-26.7285L12.4385-26.7285ZM55.1196 0L57.7637 0L30.6382-70.459L29.4326-70.459L29.4326-67.1323Z"/>
  </g>
  <line id="Baseline-M" style="fill:none;stroke:#27AAE1;opacity:1;stroke-width:0.5;" x1="263" x2="3036" y1="1126" y2="1126"/>
  <line id="Capline-M" style="fill:none;stroke:#27AAE1;opacity:1;stroke-width:0.5;" x1="263" x2="3036" y1="1055.54" y2="1055.54"/>
  <g id="H-reference" style="fill:#27AAE1;stroke:none;" transform="matrix(1 0 0 1 339 1556)">
   <path d="M0.993654 0L3.63775 0L29.3281-67.1323L30.0303-67.1323L30.0303-70.459L28.1226-70.459ZM11.6885-24.4799L46.9815-24.4799L46.2315-26.7285L12.4385-26.7285ZM55.1196 0L57.7637 0L30.6382-70.459L29.4326-70.459L29.4326-67.1323Z"/>
  </g>
  <line id="Baseline-L" style="fill:none;stroke:#27AAE1;opacity:1;stroke-width:0.5;" x1="263" x2="3036" y1="1556" y2="1556"/>
  <line id="Capline-L" style="fill:none;stroke:#27AAE1;opacity:1;stroke-width:0.5;" x1="263" x2="3036" y1="1485.54" y2="1485.54"/>
  <line id="left-margin-Ultralight-S" style="fill:none;stroke:#00AEEF;stroke-width:0.5;opacity:1.0;" x1="497.836" x2="497.836" y1="600.785" y2="720.121"/>
  <line id="right-margin-Ultralight-S" style="fill:none;stroke:#00AEEF;stroke-width:0.5;opacity:1.0;" x1="621.586" x2="621.586" y1="600.785" y2="720.121"/>
  <line id="left-margin-Regular-S" style="fill:none;stroke:#00AEEF;stroke-width:0.5;opacity:1.0;" x1="1386.54" x2="1386.54" y1="600.785" y2="720.121"/>
  <line id="right-margin-Regular-S" style="fill:none;stroke:#00AEEF;stroke-width:0.5;opacity:1.0;" x1="1513.15" x2="1513.15" y1="600.785" y2="720.121"/>
  <line id="left-margin-Black-S" style="fill:none;stroke:#00AEEF;stroke-width:0.5;opacity:1.0;" x1="2868.31" x2="2868.31" y1="600.785" y2="720.121"/>
  <line id="right-margin-Black-S" style="fill:none;stroke:#00AEEF;stroke-width:0.5;opacity:1.0;" x1="2998.49" x2="2998.49" y1="600.785" y2="720.121"/>
 </g>
 <g id="Symbols">
  <g id="Black-S" transform="matrix(1 0 0 1 2868.31 696)">
   <path class="monochrome-0 SFSymbolsPreview000000" d="M82.5009-38.3759C81.2741-38.3759 80.1786-38.3708 79.1912-38.3523C78.2039-38.3337 77.3234-38.3015 76.5279-38.2512C75.7324-38.2008 75.0211-38.1334 74.3699-38.0382C73.7186-37.9429 73.1286-37.8213 72.5741-37.6681C72.0195-37.5148 71.5006-37.3288 70.9951-37.1044C70.4897-36.88 69.9961-36.6171 69.4921-36.3083C68.9881-35.9996 68.4742-35.6453 67.9241-35.239C67.3739-34.8328 66.7894-34.3747 66.1456-33.8578C65.6457-33.4564 65.1584-33.0435 64.686-32.6185C64.2135-32.1935 63.7558-31.7568 63.3109-31.3082C62.8661-30.8597 62.4334-30.399 62.0161-29.927C61.5989-29.4549 61.1956-28.9702 60.8059-28.4747C60.4163-27.9792 60.0401-27.4724 59.6781-26.9536C59.3161-26.4348 58.9692-25.9035 58.6349-25.3615C58.3006-24.8194 57.9807-24.2658 57.6741-23.7005C57.3675-23.1352 57.0745-22.5591 56.7957-21.9707C56.5169-21.3823 56.2508-20.7814 55.9997-20.1699C55.7487-19.5584 55.5116-18.9368 55.2884-18.3024C55.0651-17.6679 54.8569-17.0213 54.6616-16.3639C54.4662-15.7065 54.2847-15.0367 54.1172-14.3565C53.9497-13.6763 53.7948-12.9855 53.6552-12.2825C53.5157-11.5794 53.3916-10.8653 53.28-10.1396C53.1684-9.41382 53.0709-8.67618 52.9872-7.9278C52.9036-7.17942 52.8325-6.42031 52.7768-5.64936L52.0438 4.54018L82.5009 4.54018L112.958 4.54018L112.223-5.64936C112.167-6.42031 112.098-7.17943 112.015-7.9278C111.931-8.67618 111.833-9.41382 111.722-10.1396C111.61-10.8653 111.484-11.5794 111.344-12.2825C111.205-12.9855 111.052-13.6763 110.885-14.3565C110.717-15.0367 110.536-15.7065 110.34-16.3639C110.145-17.0213 109.934-17.6679 109.711-18.3024C109.488-18.9368 109.251-19.5584 109-20.1699C108.749-20.7814 108.485-21.3823 108.206-21.9707C107.927-22.5591 107.634-23.1352 107.328-23.7005C107.021-24.2658 106.701-24.8194 106.367-25.3615C106.033-25.9035 105.683-26.4348 105.321-26.9536C104.959-27.4724 104.583-27.9792 104.194-28.4747C103.804-28.9702 103.401-29.4549 102.983-29.927C102.566-30.399 102.136-30.8597 101.691-31.3082C101.246-31.7568 100.786-32.1935 100.314-32.6185C99.8412-33.0435 99.3561-33.4564 98.8561-33.8578C98.2123-34.3746 97.6278-34.8328 97.0777-35.239C96.5276-35.6453 96.0114-35.9996 95.5074-36.3083C95.0034-36.6171 94.5099-36.88 94.0044-37.1044C93.4989-37.3288 92.9822-37.5148 92.4277-37.6681C91.8731-37.8213 91.2809-37.9408 90.6297-38.036C89.9785-38.1312 89.2672-38.2008 88.4717-38.2512C87.6762-38.3015 86.7979-38.3337 85.8105-38.3523C84.8231-38.3709 83.7277-38.3759 82.5009-38.3759ZM44.7586-38.8471C43.6511-38.8453 42.4409-38.8084 41.1258-38.7374C40.1805-38.6864 39.3154-38.6281 38.5145-38.5588C37.7137-38.4896 36.9781-38.4084 36.2936-38.3114C35.6091-38.2144 34.9747-38.1013 34.3785-37.9671C33.7824-37.833 33.2228-37.6789 32.6868-37.4981C32.1509-37.3173 31.6377-37.1111 31.1339-36.8742C30.6302-36.6372 30.1371-36.3699 29.6374-36.0674C29.1378-35.7648 28.632-35.4273 28.1084-35.0497C27.5849-34.6721 27.0421-34.2532 26.4666-33.7911C25.9715-33.3936 25.4903-32.9844 25.0221-32.5626C24.554-32.1407 24.1012-31.7069 23.6601-31.2609C23.219-30.8149 22.7902-30.3561 22.3761-29.8861C21.9621-29.416 21.5615-28.9342 21.1746-28.4403C20.7877-27.9463 20.4151-27.4411 20.0555-26.9235C19.6958-26.4058 19.349-25.8769 19.0166-25.3356C18.6842-24.7944 18.3652-24.2415 18.0602-23.6768C17.7552-23.1122 17.4637-22.535 17.1861-21.947C16.9086-21.3591 16.6467-20.7594 16.3966-20.1484C16.1466-19.5373 15.9099-18.9149 15.6874-18.2809C15.465-17.6468 15.2554-17.0013 15.0606-16.3445C14.8658-15.6877 14.6855-15.0188 14.5184-14.3393C14.3513-13.6598 14.1979-12.9694 14.0586-12.2674C13.9194-11.5654 13.7948-10.8531 13.6834-10.1288C13.572-9.40444 13.4741-8.66789 13.3906-7.92134C13.3071-7.1748 13.2379-6.41794 13.1824-5.64935L12.4472 4.54019L27.1411 4.54019L41.8372 4.54019L42.0649 2.99971L42.516 3.07286C42.4683 2.20576 42.4464 1.36026 42.4314 0.52117L42.4835 0.174777L43.1298-4.18848L42.5291-4.18848C42.558-4.69632 42.5768-5.21215 42.618-5.7096C42.6942-6.62991 42.7902-7.53218 42.9065-8.41834C43.0227-9.30451 43.16-10.1743 43.3142-11.0281C43.4684-11.882 43.6404-12.7199 43.8304-13.5432C44.0204-14.3666 44.227-15.1754 44.4507-15.9701C44.6744-16.7648 44.9155-17.5453 45.1707-18.3131C45.426-19.081 45.6951-19.8358 45.9797-20.5787C46.2643-21.3216 46.5635-22.0535 46.8754-22.7732C47.1873-23.4929 47.5122-24.2005 47.8493-24.8989C48.1863-25.5973 48.5368-26.2854 48.8968-26.9643C49.2568-27.6433 49.6264-28.3126 50.0072-28.9738C50.3881-29.6351 50.7789-30.2884 51.1784-30.9339C51.719-31.8072 52.2955-32.6502 52.8658-33.4985C52.8691-33.5028 52.8714-33.5071 52.8747-33.5114C52.9211-33.5718 52.9806-33.627 53.02-33.69C53.073-33.7747 53.1051-33.8526 53.1523-33.9352C53.2436-34.095 53.3407-34.2567 53.4104-34.4086C53.4463-34.4866 53.4698-34.5585 53.495-34.6323C53.4698-34.5585 53.4463-34.4866 53.4104-34.4086C53.3407-34.2567 53.2436-34.095 53.1523-33.9352C53.3294-34.1954 53.4934-34.4667 53.6728-34.7248L53.521-34.7076C53.5666-34.8294 53.6226-34.9549 53.6533-35.0712C53.7093-35.2834 53.7406-35.4882 53.7466-35.6822C53.7522-35.8763 53.7344-36.0613 53.6902-36.2373C53.6461-36.4133 53.5764-36.5785 53.482-36.7365C53.3876-36.8945 53.2668-37.0439 53.1219-37.184C52.9771-37.3241 52.8076-37.4555 52.6123-37.5777C52.4169-37.7 52.1969-37.8132 51.9508-37.9177C51.7046-38.0221 51.4323-38.1171 51.1353-38.2038C50.8383-38.2905 50.516-38.3692 50.168-38.4383C49.8199-38.5074 49.4459-38.5676 49.0467-38.6191C48.6474-38.6705 48.2242-38.7142 47.7736-38.7481C46.8724-38.8161 45.8664-38.8489 44.7589-38.8471ZM41.9261-74.7773C41.6191-74.7682 41.3119-74.7494 41.0065-74.7192C40.7011-74.689 40.3962-74.6485 40.0934-74.5966C39.7907-74.5447 39.4903-74.4814 39.1912-74.4072C38.8921-74.3331 38.5943-74.2483 38.2998-74.1512C38.0053-74.0541 37.7146-73.9448 37.4258-73.8242C37.1369-73.7036 36.8513-73.5709 36.5691-73.4261C36.2271-73.2507 35.8937-73.0668 35.5714-72.8732C35.2491-72.6796 34.937-72.477 34.6345-72.2665C34.3319-72.0559 34.0389-71.8367 33.7561-71.6103C33.4733-71.3839 33.2014-71.1499 32.9384-70.9089C32.6755-70.6679 32.4223-70.419 32.1793-70.1645C31.9363-69.9099 31.704-69.6503 31.481-69.3835C31.2579-69.1166 31.0441-68.8439 30.8412-68.5659C30.6382-68.2879 30.4449-68.004 30.2621-67.716C30.0793-67.4281 29.9063-67.135 29.7437-66.8382C29.5811-66.5415 29.4285-66.2411 29.2861-65.9367C29.0014-65.328 28.7584-64.7059 28.5552-64.0735C28.352-63.4412 28.1884-62.7987 28.0672-62.1522C27.946-61.5058 27.8672-60.8543 27.8286-60.203C27.7901-59.5517 27.7928-58.9005 27.8375-58.2537C27.8821-57.6069 27.9673-56.9653 28.0956-56.3324C28.1598-56.016 28.236-55.7013 28.3212-55.3901C28.4064-55.0788 28.5012-54.7697 28.6075-54.4649C28.7137-54.1601 28.8314-53.8607 28.9588-53.5634C29.0863-53.2662 29.2244-52.972 29.3731-52.6835C29.5218-52.3949 29.6802-52.1122 29.8502-51.8336C30.0202-51.555 30.2011-51.2814 30.3924-51.0139C30.5838-50.7464 30.7847-50.4839 30.9975-50.2286C31.2103-49.9733 31.4355-49.7239 31.6699-49.482C31.9042-49.2401 32.1492-49.0058 32.4051-48.7785C32.661-48.5512 32.9279-48.3317 33.2054-48.1201C33.483-47.9086 33.7715-47.7059 34.0708-47.5112C34.3701-47.3166 34.6801-47.1305 35.0012-46.954C35.3243-46.7763 35.6494-46.6097 35.9772-46.457C36.305-46.3043 36.6347-46.1636 36.9662-46.0353C37.2977-45.907 37.6317-45.7912 37.966-45.6868C38.3003-45.5823 38.6362-45.4904 38.9724-45.4092C39.3085-45.3281 39.6439-45.2589 39.9809-45.2005C40.3179-45.1422 40.6547-45.0946 40.9916-45.0585C41.3285-45.0225 41.6664-44.9975 42.0023-44.9832C42.3381-44.9689 42.6726-44.9656 43.0064-44.9724C43.6741-44.9862 44.337-45.0426 44.9909-45.1381C45.6449-45.2336 46.2908-45.3675 46.9234-45.5404C47.5559-45.7133 48.1742-45.9247 48.7777-46.1708C49.3813-46.4169 49.9698-46.697 50.5367-47.0121C51.1035-47.3271 51.6494-47.6758 52.172-48.0555C52.6945-48.4353 53.1935-48.846 53.6641-49.2862C54.1347-49.7264 54.5783-50.1969 54.9893-50.6933C55.1948-50.9415 55.3922-51.1956 55.5814-51.4571C55.7706-51.7185 55.9517-51.9875 56.1236-52.2617C56.2955-52.5359 56.4579-52.8166 56.6116-53.103C56.7652-53.3894 56.9087-53.6806 57.0432-53.9786C57.1776-54.2767 57.3019-54.5817 57.4162-54.8909C57.5305-55.2001 57.6354-55.5134 57.7285-55.8332C57.8217-56.153 57.9047-56.478 57.9758-56.8079C58.0469-57.1377 58.1055-57.4732 58.1536-57.8126C58.2017-58.1521 58.2379-58.4969 58.2621-58.8453C58.2862-59.1938 58.2977-59.5469 58.2968-59.9039C58.2962-60.2246 58.2847-60.5412 58.2599-60.857C58.2351-61.1728 58.1973-61.487 58.1493-61.7972C58.1012-62.1075 58.0417-62.414 57.9715-62.7181C57.9012-63.0221 57.8201-63.3244 57.7286-63.6217C57.6371-63.919 57.5367-64.2118 57.4249-64.5017C57.3131-64.7915 57.1916-65.0783 57.0605-65.3601C56.7985-65.9237 56.4979-66.4697 56.1648-66.9974C55.8317-67.5251 55.4657-68.0338 55.0696-68.5207C54.6734-69.0075 54.2477-69.4738 53.7964-69.9148C53.3451-70.3559 52.8678-70.7724 52.3693-71.1627C51.8709-71.553 51.3498-71.9168 50.8121-72.2514C50.2745-72.586 49.7196-72.8918 49.1508-73.1658C48.5819-73.4397 47.9992-73.6804 47.407-73.8887C46.8149-74.097 46.2143-74.2716 45.6069-74.4093C44.9994-74.5471 44.3868-74.6484 43.772-74.7106C43.1573-74.7727 42.5405-74.7956 41.9264-74.7773ZM81.5574-74.7945C81.2493-74.7851 80.9402-74.7649 80.6335-74.7343C80.3267-74.7036 80.0205-74.662 79.7161-74.6095C79.4117-74.557 79.1105-74.493 78.8095-74.418C78.5084-74.343 78.2083-74.2558 77.9116-74.1577C77.6149-74.0595 77.3203-73.9504 77.0289-73.8285C76.7374-73.7066 76.4487-73.5724 76.1635-73.4262C75.8216-73.2508 75.4903-73.0668 75.168-72.8732C74.8457-72.6797 74.5336-72.4771 74.2311-72.2665C73.9285-72.0559 73.6355-71.8367 73.3527-71.6103C73.0699-71.3839 72.7958-71.1499 72.5328-70.9089C72.2699-70.6679 72.0189-70.419 71.7759-70.1645C71.5329-69.91 71.2984-69.6503 71.0754-69.3835C70.8524-69.1166 70.6407-68.8439 70.4377-68.5659C70.2348-68.2879 70.0415-68.004 69.8587-67.7161C69.6758-67.4281 69.5029-67.135 69.3403-66.8382C69.1777-66.5415 69.025-66.2412 68.8827-65.9368C68.598-65.328 68.3528-64.7059 68.1496-64.0736C67.9464-63.4412 67.785-62.7988 67.6638-62.1523C67.5426-61.5058 67.4616-60.8543 67.4231-60.203C67.3845-59.5517 67.3872-58.9005 67.432-58.2537C67.4765-57.6069 67.5639-56.9653 67.6922-56.3324C67.7564-56.016 67.8304-55.7013 67.9156-55.3901C68.0008-55.0789 68.0978-54.7697 68.2041-54.4649C68.3103-54.1601 68.4258-53.8607 68.5533-53.5634C68.6807-53.2662 68.8188-52.972 68.9675-52.6835C69.1162-52.395 69.2768-52.1122 69.4468-51.8336C69.6168-51.555 69.7955-51.2814 69.9869-51.0139C70.1782-50.7464 70.3813-50.4839 70.5941-50.2286C70.8069-49.9733 71.03-49.7239 71.2643-49.482C71.4986-49.2401 71.7436-49.0058 71.9995-48.7785C72.2555-48.5512 72.5223-48.3317 72.7999-48.1201C73.0774-47.9086 73.3659-47.7059 73.6652-47.5112C73.9645-47.3166 74.2746-47.1305 74.5956-46.954C74.9114-46.7804 75.2308-46.6188 75.5521-46.4699C75.8734-46.321 76.1979-46.1837 76.5238-46.059C76.8496-45.9342 77.1768-45.8223 77.5062-45.7212C77.8357-45.62 78.1675-45.5303 78.4996-45.4523C78.8317-45.3742 79.1636-45.3078 79.4972-45.2522C79.8309-45.1966 80.165-45.1524 80.4992-45.1188C80.8335-45.0852 81.1674-45.0621 81.5012-45.0499C81.8351-45.0377 82.1686-45.0348 82.5011-45.0434C83.166-45.0608 83.8279-45.1201 84.4812-45.2177C85.1346-45.3152 85.7799-45.4509 86.4137-45.6243C87.0474-45.7977 87.6706-46.0077 88.2767-46.2526C88.8829-46.4975 89.4716-46.7775 90.0422-47.0895C90.6128-47.4015 91.1635-47.7475 91.6905-48.1222C92.2175-48.497 92.7224-48.9004 93.1978-49.3335C93.6733-49.7667 94.1201-50.2276 94.536-50.7148C94.9519-51.202 95.3371-51.7163 95.6855-52.2531C95.8597-52.5216 96.0242-52.795 96.18-53.075C96.3358-53.355 96.4817-53.6424 96.6181-53.9335C96.7545-54.2245 96.8816-54.5204 96.9976-54.822C97.1137-55.1236 97.2196-55.4292 97.3143-55.7407C97.409-56.0523 97.4914-56.3707 97.5637-56.6917C97.636-57.0127 97.697-57.3365 97.7459-57.6663C97.7949-57.9962 97.832-58.3307 97.8565-58.6689C97.881-59.0071 97.8941-59.3492 97.8934-59.6952C97.8928-60.022 97.8789-60.346 97.8543-60.6677C97.8297-60.9893 97.7935-61.3093 97.7458-61.6251C97.6981-61.9409 97.6399-62.2538 97.5701-62.5631C97.5004-62.8725 97.4203-63.1774 97.3294-63.4797C97.2384-63.782 97.1368-64.0801 97.0257-64.3747C96.9147-64.6694 96.7937-64.9619 96.6635-65.2482C96.4031-65.8209 96.1055-66.3755 95.7743-66.9113C95.4431-67.4472 95.0776-67.9643 94.6834-68.4583C94.2892-68.9523 93.8661-69.4225 93.4168-69.8697C92.9674-70.3169 92.4929-70.7393 91.9962-71.1348C91.4995-71.5302 90.9816-71.8997 90.4455-72.2385C89.9093-72.5773 89.3541-72.8864 88.7863-73.1636C88.2185-73.4408 87.6364-73.6866 87.0447-73.8973C86.453-74.1079 85.8523-74.2831 85.2446-74.4223C84.6369-74.5614 84.0234-74.6629 83.4076-74.7256C82.7917-74.7883 82.1738-74.8132 81.5575-74.7945ZM48.5823-31.1598C48.1217-31.0404 47.6269-30.9315 47.0966-30.8306C46.5664-30.7297 46.0021-30.6361 45.4006-30.5531C46.0021-30.6361 46.5664-30.7297 47.0966-30.8306C47.6269-30.9315 48.1217-31.0404 48.5823-31.1598Z"/>
  </g>
  <g id="Regular-S" transform="matrix(1 0 0 1 1386.54 696)">
   <path class="monochrome-0 SFSymbolsPreview000000" d="M78.51-41.1063C77.4052-41.1063 76.4187-41.1017 75.5295-41.0848C74.6404-41.0679 73.8475-41.0387 73.1311-40.993C72.4147-40.9473 71.7742-40.8861 71.1877-40.7996C70.6013-40.7132 70.07-40.6028 69.5706-40.4637C69.0712-40.3246 68.6039-40.1557 68.1487-39.952C67.6935-39.7483 67.249-39.5096 66.7952-39.2293C66.3413-38.949 65.8785-38.6274 65.3831-38.2586C64.8877-37.8898 64.3613-37.474 63.7815-37.0047C63.3313-36.6403 62.8925-36.2656 62.467-35.8797C62.0416-35.4939 61.6294-35.0975 61.2288-34.6903C60.8281-34.2831 60.4385-33.8649 60.0627-33.4364C59.687-33.0078 59.3238-32.5678 58.9729-32.118C58.622-31.6682 58.2833-31.2081 57.9573-30.7371C57.6313-30.2662 57.3189-29.7839 57.0178-29.2918C56.7168-28.7997 56.4287-28.2972 56.1526-27.784C55.8765-27.2709 55.6127-26.7479 55.3616-26.2137C55.1105-25.6796 54.8708-25.134 54.6448-24.5789C54.4187-24.0239 54.2052-23.4596 54.0042-22.8836C53.8031-22.3077 53.6156-21.7206 53.4397-21.1239C53.2638-20.5271 53.1003-19.9191 52.9495-19.3016C52.7986-18.6841 52.6591-18.057 52.5334-17.4188C52.4078-16.7806 52.2961-16.1323 52.1956-15.4735C52.095-14.8147 52.0072-14.145 51.9319-13.4657C51.8566-12.7863 51.7925-12.0972 51.7424-11.3973L51.0823-2.1473L78.51-2.1473L105.938-2.1473L105.276-11.3973C105.226-12.0972 105.163-12.7863 105.088-13.4657C105.013-14.145 104.925-14.8147 104.824-15.4735C104.724-16.1323 104.61-16.7806 104.485-17.4188C104.359-18.057 104.221-18.6841 104.071-19.3016C103.92-19.9191 103.756-20.5271 103.58-21.1239C103.404-21.7206 103.215-22.3077 103.014-22.8836C102.813-23.4596 102.599-24.0239 102.373-24.5789C102.147-25.134 101.91-25.6796 101.658-26.2137C101.407-26.7479 101.144-27.2709 100.867-27.784C100.591-28.2972 100.303-28.7997 100.002-29.2918C99.7011-29.7839 99.3868-30.2662 99.0608-30.7371C98.7348-31.2081 98.3961-31.6682 98.0452-32.118C97.6943-32.5678 97.3311-33.0078 96.9553-33.4364C96.5796-33.8649 96.1919-34.2831 95.7913-34.6903C95.3906-35.0975 94.9765-35.4939 94.551-35.8797C94.1256-36.2656 93.6887-36.6403 93.2385-37.0047C92.6588-37.4739 92.1323-37.8899 91.637-38.2586C91.1416-38.6274 90.6768-38.949 90.2229-39.2293C89.769-39.5096 89.3246-39.7483 88.8694-39.952C88.4142-40.1557 87.9489-40.3246 87.4495-40.4637C86.9501-40.6028 86.4168-40.7113 85.8303-40.7977C85.2439-40.8841 84.6034-40.9473 83.887-40.993C83.1706-41.0387 82.3796-41.0679 81.4905-41.0848C80.6013-41.1017 79.6148-41.1063 78.51-41.1063ZM44.5217-41.534C43.5244-41.5324 42.4345-41.4989 41.2502-41.4344C40.399-41.3881 39.6199-41.3352 38.8987-41.2723C38.1775-41.2094 37.5151-41.1357 36.8987-41.0477C36.2823-40.9597 35.711-40.857 35.1741-40.7352C34.6372-40.6134 34.1333-40.4736 33.6506-40.3094C33.168-40.1453 32.7058-39.9581 32.2522-39.743C31.7986-39.5279 31.3545-39.2852 30.9045-39.0106C30.4546-38.736 29.9991-38.4295 29.5276-38.0868C29.0561-37.744 28.5674-37.3637 28.0491-36.9442C27.6033-36.5834 27.1698-36.2119 26.7483-35.8289C26.3267-35.446 25.919-35.0522 25.5217-34.6473C25.1245-34.2424 24.7383-33.826 24.3655-33.3993C23.9926-32.9725 23.6318-32.5351 23.2834-32.0868C22.9351-31.6384 22.5995-31.1797 22.2756-30.7098C21.9518-30.2399 21.6394-29.7597 21.3401-29.2684C21.0408-28.7771 20.7534-28.2751 20.4788-27.7625C20.2041-27.2499 19.9416-26.7259 19.6917-26.1922C19.4417-25.6585 19.2059-25.1141 18.9807-24.5594C18.7555-24.0047 18.5424-23.4397 18.342-22.8641C18.1417-22.2885 17.953-21.7026 17.7776-21.1063C17.6022-20.51 17.4398-19.9028 17.2893-19.286C17.1388-18.6691 17.0007-18.0424 16.8752-17.4051C16.7498-16.7678 16.6377-16.1213 16.5374-15.4637C16.437-14.8061 16.3488-14.1375 16.2737-13.4598C16.1985-12.7821 16.1361-12.095 16.0862-11.3973L15.4241-2.1473L28.6565-2.1473L41.8909-2.1473L42.0959-3.54574L42.5022-3.47933C42.4592-4.26648 42.4395-5.03401 42.426-5.79574L42.4729-6.11019L43.0549-10.0711L42.5139-10.0711C42.54-10.5321 42.5569-11.0004 42.594-11.452C42.6626-12.2874 42.7491-13.1065 42.8538-13.911C42.9585-14.7154 43.0821-15.505 43.221-16.2801C43.3598-17.0552 43.5147-17.8159 43.6858-18.5633C43.8569-19.3108 44.0429-20.045 44.2444-20.7664C44.4459-21.4879 44.663-22.1963 44.8928-22.8934C45.1227-23.5905 45.365-24.2756 45.6214-24.95C45.8777-25.6244 46.1471-26.2889 46.428-26.9422C46.7089-27.5956 47.0014-28.2379 47.305-28.8719C47.6085-29.5059 47.9241-30.1306 48.2483-30.7469C48.5725-31.3632 48.9053-31.9708 49.2483-32.5711C49.5913-33.1714 49.9432-33.7645 50.303-34.3504C50.7898-35.1432 51.309-35.9085 51.8225-36.6785C51.8255-36.6825 51.8275-36.6863 51.8305-36.6903C51.8723-36.7451 51.9259-36.7952 51.9614-36.8524C52.0091-36.9293 52.038-37.0001 52.0805-37.075C52.1627-37.2201 52.2502-37.3669 52.313-37.5047C52.3453-37.5756 52.3665-37.6408 52.3892-37.7078C52.3665-37.6408 52.3453-37.5756 52.313-37.5047C52.2502-37.3669 52.1628-37.2201 52.0805-37.075C52.24-37.3112 52.3877-37.5575 52.5493-37.7918L52.4126-37.7762C52.4537-37.8867 52.5041-38.0007 52.5317-38.1063C52.5821-38.2989 52.6103-38.4848 52.6157-38.661C52.6207-38.8371 52.6047-39.0051 52.5649-39.1649C52.5252-39.3246 52.4624-39.4746 52.3774-39.618C52.2924-39.7614 52.1836-39.8971 52.0532-40.0242C51.9228-40.1514 51.7702-40.2707 51.5942-40.3817C51.4182-40.4926 51.2201-40.5954 50.9985-40.6903C50.7768-40.7851 50.5316-40.8713 50.2641-40.95C49.9966-41.0288 49.7065-41.1002 49.393-41.1629C49.0796-41.2256 48.7428-41.2802 48.3833-41.327C48.0237-41.3737 47.6426-41.4133 47.2368-41.4442C46.4252-41.5058 45.5193-41.5357 44.5219-41.534ZM41.9709-74.1512C41.6944-74.1429 41.4179-74.1259 41.1428-74.0985C40.8678-74.0711 40.5932-74.0342 40.3206-73.9871C40.0479-73.94 39.7774-73.8826 39.5081-73.8153C39.2387-73.7479 38.9705-73.671 38.7053-73.5829C38.4401-73.4947 38.1783-73.3955 37.9182-73.286C37.6581-73.1765 37.4009-73.0561 37.1467-72.9246C36.8388-72.7654 36.5385-72.5984 36.2483-72.4227C35.9581-72.247 35.677-72.0631 35.4045-71.8719C35.1321-71.6808 34.8682-71.4817 34.6135-71.2762C34.3589-71.0707 34.114-70.8583 33.8772-70.6395C33.6404-70.4207 33.4124-70.1948 33.1936-69.9637C32.9748-69.7327 32.7655-69.497 32.5647-69.2547C32.3639-69.0125 32.1713-68.7649 31.9885-68.5125C31.8058-68.2602 31.6317-68.0025 31.467-67.7411C31.3024-67.4797 31.1467-67.2136 31.0002-66.9442C30.8538-66.6748 30.7163-66.4021 30.5881-66.1258C30.3317-65.5732 30.1129-65.0084 29.9299-64.4344C29.7469-63.8604 29.5996-63.2772 29.4905-62.6903C29.3814-62.1034 29.3104-61.512 29.2756-60.9207C29.2409-60.3295 29.2433-59.7384 29.2836-59.1512C29.3237-58.5641 29.4005-57.9816 29.5161-57.4071C29.5739-57.1198 29.6425-56.8341 29.7192-56.5516C29.7959-56.2691 29.8813-55.9885 29.977-55.7118C30.0727-55.435 30.1786-55.1632 30.2934-54.8934C30.4082-54.6236 30.5326-54.3565 30.6664-54.0946C30.8003-53.8327 30.9431-53.576 31.0961-53.3231C31.2492-53.0702 31.4121-52.8218 31.5844-52.5789C31.7567-52.3361 31.9377-52.0978 32.1293-51.8661C32.321-51.6343 32.5238-51.4079 32.7348-51.1883C32.9458-50.9687 33.1665-50.756 33.3969-50.5496C33.6274-50.3433 33.8677-50.144 34.1176-49.952C34.3676-49.76 34.6274-49.5759 34.8969-49.3993C35.1664-49.2226 35.4457-49.0537 35.7348-48.8934C36.0258-48.7321 36.3185-48.5809 36.6137-48.4422C36.9089-48.3036 37.2058-48.1759 37.5043-48.0594C37.8029-47.9429 38.1037-47.8378 38.4047-47.743C38.7058-47.6482 39.0083-47.5647 39.311-47.4911C39.6137-47.4174 39.9157-47.3546 40.2192-47.3016C40.5227-47.2487 40.8259-47.2054 41.1293-47.1727C41.4327-47.14 41.737-47.1173 42.0395-47.1043C42.3419-47.0913 42.6431-47.0883 42.9438-47.0945C43.5451-47.1071 44.142-47.1583 44.7309-47.2449C45.3198-47.3316 45.9015-47.4532 46.4711-47.6102C47.0408-47.7671 47.5975-47.959 48.1411-48.1824C48.6846-48.4058 49.2145-48.6601 49.725-48.9461C50.2355-49.2321 50.7271-49.5486 51.1977-49.8934C51.6683-50.2381 52.1176-50.6109 52.5414-51.0106C52.9653-51.4102 53.3647-51.8372 53.7348-52.2879C53.9199-52.5132 54.0977-52.7439 54.268-52.9813C54.4384-53.2186 54.6015-53.4628 54.7563-53.7117C54.9111-53.9606 55.0574-54.2154 55.1957-54.4754C55.3341-54.7354 55.4633-54.9997 55.5844-55.2703C55.7055-55.5409 55.8174-55.8178 55.9204-56.0984C56.0233-56.3791 56.1177-56.6636 56.2016-56.9539C56.2855-57.2442 56.3602-57.5392 56.4243-57.8387C56.4883-58.1381 56.5411-58.4427 56.5844-58.7508C56.6277-59.0589 56.6603-59.372 56.6821-59.6883C56.7038-60.0046 56.7141-60.3252 56.7133-60.6492C56.7128-60.9404 56.7024-61.2278 56.6801-61.5145C56.6578-61.8012 56.6237-62.0863 56.5805-62.368C56.5372-62.6496 56.4836-62.9279 56.4204-63.2039C56.3571-63.4799 56.284-63.7544 56.2016-64.0242C56.1192-64.2941 56.0288-64.5599 55.9282-64.8231C55.8275-65.0862 55.718-65.3465 55.6-65.6024C55.3641-66.114 55.0934-66.6096 54.7934-67.0887C54.4934-67.5677 54.1639-68.0295 53.8071-68.4715C53.4503-68.9135 53.067-69.3367 52.6606-69.7371C52.2542-70.1375 51.8243-70.5156 51.3754-70.8699C50.9266-71.2243 50.4573-71.5545 49.9731-71.8582C49.4889-72.162 48.9893-72.4396 48.477-72.6883C47.9647-72.937 47.4399-73.1554 46.9067-73.3445C46.3734-73.5336 45.8326-73.6922 45.2856-73.8172C44.7386-73.9422 44.1869-74.0342 43.6333-74.0906C43.0796-74.1471 42.5242-74.1678 41.9711-74.1512ZM77.6604-74.1668C77.3829-74.1583 77.1046-74.14 76.8284-74.1121C76.5521-74.0843 76.2763-74.0465 76.0022-73.9989C75.7281-73.9512 75.4569-73.8932 75.1858-73.825C74.9147-73.7569 74.6444-73.6778 74.3772-73.5887C74.11-73.4996 73.8447-73.4006 73.5823-73.2899C73.3198-73.1792 73.0598-73.0575 72.803-72.9246C72.4951-72.7654 72.1967-72.5984 71.9065-72.4227C71.6163-72.247 71.3352-72.0631 71.0627-71.8719C70.7903-71.6808 70.5264-71.4817 70.2717-71.2762C70.0171-71.0707 69.7702-70.8583 69.5334-70.6395C69.2967-70.4207 69.0706-70.1948 68.8518-69.9637C68.633-69.7327 68.4218-69.497 68.2209-69.2547C68.0201-69.0125 67.8295-68.7649 67.6467-68.5125C67.464-68.2602 67.2899-68.0025 67.1252-67.7411C66.9606-67.4797 66.8049-67.2136 66.6584-66.9442C66.512-66.6748 66.3745-66.4021 66.2463-66.1258C65.9899-65.5732 65.7692-65.0084 65.5862-64.4344C65.4032-63.8604 65.2578-63.2772 65.1487-62.6903C65.0396-62.1034 64.9666-61.512 64.9319-60.9207C64.8972-60.3295 64.8996-59.7383 64.9399-59.1512C64.98-58.5641 65.0587-57.9816 65.1743-57.4071C65.2321-57.1198 65.2987-56.8341 65.3754-56.5516C65.4521-56.2691 65.5395-55.9885 65.6352-55.7118C65.7309-55.435 65.8349-55.1632 65.9497-54.8934C66.0644-54.6236 66.1888-54.3565 66.3227-54.0946C66.4566-53.8327 66.6013-53.576 66.7543-53.3231C66.9074-53.0702 67.0683-52.8218 67.2407-52.5789C67.413-52.3361 67.5959-52.0978 67.7875-51.8661C67.9792-51.6343 68.18-51.4079 68.3911-51.1883C68.6021-50.9687 68.8227-50.756 69.0532-50.5496C69.2836-50.3433 69.5239-50.144 69.7739-49.952C70.0238-49.76 70.2837-49.5759 70.5532-49.3993C70.8227-49.2226 71.1019-49.0537 71.3911-48.8934C71.6754-48.7358 71.963-48.5891 72.2524-48.4539C72.5417-48.3188 72.8339-48.1941 73.1274-48.0809C73.4209-47.9677 73.7154-47.8661 74.0122-47.7743C74.3089-47.6824 74.6076-47.601 74.9067-47.5301C75.2057-47.4592 75.5046-47.3989 75.8051-47.3485C76.1056-47.298 76.4064-47.2579 76.7075-47.2274C77.0085-47.1969 77.3092-47.176 77.6098-47.1649C77.9105-47.1538 78.2108-47.1512 78.5102-47.159C79.109-47.1747 79.7051-47.2286 80.2934-47.3172C80.8817-47.4057 81.4629-47.5289 82.0336-47.6863C82.6043-47.8437 83.1655-48.0343 83.7114-48.2566C84.2572-48.4789 84.7874-48.7332 85.3012-49.0164C85.8151-49.2996 86.311-49.6137 86.7856-49.9539C87.2602-50.2941 87.7148-50.6603 88.143-51.0535C88.5712-51.4467 88.9735-51.8651 89.3481-52.3074C89.7227-52.7497 90.0695-53.2165 90.3832-53.7039C90.5401-53.9476 90.6882-54.1958 90.8286-54.45C90.9689-54.7042 91.1002-54.9651 91.2231-55.2293C91.346-55.4935 91.4604-55.7622 91.5649-56.0359C91.6694-56.3097 91.7648-56.5871 91.85-56.8699C91.9353-57.1527 92.0095-57.4418 92.0747-57.7332C92.1398-58.0246 92.1946-58.3185 92.2387-58.618C92.2828-58.9174 92.3162-59.2211 92.3383-59.5281C92.3604-59.8351 92.3723-60.1457 92.3715-60.4598C92.3711-60.7565 92.3585-61.0506 92.3364-61.3426C92.3142-61.6345 92.2816-61.925 92.2387-62.2117C92.1958-62.4984 92.1433-62.7824 92.0805-63.0633C92.0177-63.3441 91.9456-63.6209 91.8637-63.8953C91.7818-64.1697 91.6903-64.4403 91.5903-64.7078C91.4903-64.9753 91.3814-65.2408 91.2641-65.5008C91.0296-66.0207 90.7616-66.5241 90.4633-67.0105C90.165-67.4969 89.8359-67.9664 89.4809-68.4148C89.1259-68.8633 88.7449-69.2901 88.3403-69.6961C87.9356-70.1021 87.5083-70.4855 87.061-70.8445C86.6137-71.2036 86.1473-71.5389 85.6645-71.8465C85.1816-72.1541 84.6817-72.4347 84.1703-72.6863C83.659-72.938 83.1348-73.1611 82.602-73.3523C82.0692-73.5436 81.5282-73.7026 80.9809-73.8289C80.4336-73.9552 79.8812-74.0474 79.3266-74.1043C78.772-74.1612 78.2155-74.1838 77.6606-74.1668ZM47.9651-34.5555C47.5503-34.4471 47.1047-34.3483 46.6272-34.2567C46.1497-34.1651 45.6415-34.0801 45.0999-34.0047C45.6415-34.0801 46.1497-34.1651 46.6272-34.2567C47.1047-34.3483 47.5503-34.4471 47.9651-34.5555Z"/>
  </g>
  <g id="Ultralight-S" transform="matrix(1 0 0 1 497.836 696)">
   <path class="monochrome-0 SFSymbolsPreview000000" d="M77.224-39.2846C76.1193-39.2846 75.1327-39.28 74.2436-39.2631C73.3544-39.2463 72.5615-39.217 71.8451-39.1713C71.1288-39.1257 70.4882-39.0644 69.9018-38.978C69.3153-38.8915 68.784-38.7812 68.2846-38.642C67.7852-38.5029 67.3179-38.3341 66.8627-38.1303C66.4075-37.9266 65.9631-37.688 65.5092-37.4077C65.0553-37.1274 64.5925-36.8058 64.0971-36.437C63.6017-36.0682 63.0753-35.6523 62.4955-35.1831C62.0453-34.8187 61.6065-34.4439 61.1811-34.0581C60.7556-33.6722 60.3434-33.2758 59.9428-32.8686C59.5422-32.4614 59.1525-32.0432 58.7768-31.6147C58.401-31.1862 58.0378-30.7461 57.6869-30.2963C57.336-29.8466 56.9973-29.3864 56.6713-28.9155C56.3453-28.4445 56.0329-27.9623 55.7318-27.4702C55.4308-26.9781 55.1427-26.4755 54.8666-25.9624C54.5905-25.4492 54.3267-24.9262 54.0756-24.392C53.8245-23.8579 53.5849-23.3124 53.3588-22.7573C53.1327-22.2022 52.9192-21.6379 52.7182-21.062C52.5172-20.486 52.3297-19.899 52.1537-19.3022C51.9778-18.7054 51.8143-18.0974 51.6635-17.4799C51.5127-16.8624 51.3732-16.2353 51.2475-15.5971C51.1218-14.9589 51.0101-14.3106 50.9096-13.6518C50.8091-12.993 50.7212-12.3234 50.6459-11.644C50.5706-10.9646 50.5065-10.2755 50.4565-9.57563L49.7963-0.325634L77.224-0.325634L104.652-0.325634L103.99-9.57563C103.94-10.2755 103.877-10.9646 103.802-11.644C103.727-12.3234 103.639-12.993 103.538-13.6518C103.438-14.3106 103.324-14.9589 103.199-15.5971C103.073-16.2353 102.935-16.8624 102.785-17.4799C102.634-18.0974 102.47-18.7054 102.294-19.3022C102.118-19.899 101.929-20.486 101.728-21.062C101.527-21.6379 101.313-22.2022 101.087-22.7573C100.861-23.3124 100.624-23.8579 100.372-24.392C100.121-24.9262 99.8576-25.4492 99.5815-25.9624C99.3054-26.4755 99.0173-26.9781 98.7162-27.4702C98.4152-27.9623 98.1008-28.4445 97.7748-28.9155C97.4488-29.3864 97.1101-29.8466 96.7592-30.2963C96.4083-30.7461 96.0451-31.1862 95.6693-31.6147C95.2936-32.0432 94.9059-32.4614 94.5053-32.8686C94.1047-33.2758 93.6905-33.6722 93.2651-34.0581C92.8396-34.4439 92.4028-34.8187 91.9526-35.1831C91.3728-35.6523 90.8464-36.0682 90.351-36.437C89.8556-36.8057 89.3908-37.1274 88.9369-37.4077C88.4831-37.688 88.0386-37.9266 87.5834-38.1303C87.1282-38.3341 86.6629-38.5029 86.1635-38.642C85.6641-38.7812 85.1308-38.8896 84.5443-38.976C83.9579-39.0625 83.3174-39.1256 82.601-39.1713C81.8846-39.217 81.0937-39.2463 80.2045-39.2631C79.3153-39.28 78.3288-39.2846 77.224-39.2846ZM43.2358-39.7124C42.2384-39.7108 41.1485-39.6772 39.9643-39.6127C39.113-39.5664 38.3339-39.5135 37.6127-39.4506C36.8915-39.3878 36.2291-39.3141 35.6127-39.226C34.9963-39.138 34.425-39.0353 33.8881-38.9135C33.3512-38.7917 32.8473-38.6519 32.3647-38.4877C31.882-38.3236 31.4199-38.1364 30.9662-37.9213C30.5126-37.7062 30.0685-37.4635 29.6186-37.1889C29.1686-36.9143 28.7131-36.6078 28.2416-36.2651C27.7701-35.9223 27.2814-35.542 26.7631-35.1225C26.3173-34.7617 25.8839-34.3902 25.4623-34.0073C25.0408-33.6244 24.633-33.2305 24.2358-32.8256C23.8385-32.4208 23.4524-32.0043 23.0795-31.5776C22.7067-31.1509 22.3459-30.7135 21.9975-30.2651C21.6491-29.8167 21.3135-29.3581 20.9897-28.8881C20.6658-28.4182 20.3534-27.9381 20.0541-27.4467C19.7548-26.9554 19.4674-26.4535 19.1928-25.9409C18.9181-25.4283 18.6556-24.9043 18.4057-24.3706C18.1557-23.8368 17.9199-23.2925 17.6947-22.7377C17.4696-22.183 17.2564-21.618 17.0561-21.0424C16.8557-20.4669 16.667-19.8809 16.4916-19.2846C16.3162-18.6883 16.1538-18.0811 16.0033-17.4643C15.8529-16.8475 15.7147-16.2207 15.5893-15.5834C15.4638-14.9462 15.3517-14.2996 15.2514-13.642C15.1511-12.9845 15.0629-12.3158 14.9877-11.6381C14.9125-10.9604 14.8501-10.2734 14.8002-9.57563L14.1381-0.325632L27.3705-0.325632L40.6049-0.325632L40.81-1.72407L41.2162-1.65766C41.1732-2.44481 41.1535-3.21235 41.1401-3.97407L41.1869-4.28852L41.769-8.24946L41.2279-8.24946C41.254-8.71047 41.2709-9.17874 41.308-9.63032C41.3766-10.4658 41.4631-11.2849 41.5678-12.0893C41.6725-12.8938 41.7961-13.6833 41.935-14.4584C42.0738-15.2336 42.2287-15.9942 42.3998-16.7416C42.5709-17.4891 42.757-18.2233 42.9584-18.9448C43.1599-19.6662 43.377-20.3747 43.6068-21.0717C43.8367-21.7688 44.079-22.454 44.3354-23.1284C44.5917-23.8028 44.8611-24.4672 45.142-25.1206C45.4229-25.7739 45.7155-26.4162 46.019-27.0502C46.3225-27.6843 46.6381-28.3089 46.9623-28.9252C47.2865-29.5416 47.6193-30.1492 47.9623-30.7495C48.3053-31.3498 48.6572-31.9428 49.017-32.5288C49.5038-33.3215 50.023-34.0868 50.5365-34.8569C50.5391-34.8608 50.5417-34.8647 50.5443-34.8686C50.5862-34.9235 50.6397-34.9735 50.6752-35.0307C50.7229-35.1076 50.7518-35.1784 50.7943-35.2534C50.8766-35.3984 50.964-35.5452 51.0268-35.6831C51.059-35.7539 51.0802-35.8191 51.1029-35.8862C51.0802-35.8191 51.059-35.7539 51.0268-35.6831C50.964-35.5452 50.8766-35.3984 50.7943-35.2534C50.9538-35.4895 51.1015-35.7358 51.2631-35.9702L51.1264-35.9545C51.1675-36.0651 51.2179-36.179 51.2455-36.2846C51.2959-36.4772 51.3241-36.6632 51.3295-36.8393C51.3349-37.0154 51.3184-37.1834 51.2787-37.3432C51.239-37.503 51.1762-37.6529 51.0912-37.7963C51.0062-37.9398 50.8974-38.0754 50.767-38.2026C50.6366-38.3298 50.484-38.449 50.308-38.56C50.132-38.671 49.9339-38.7738 49.7123-38.8686C49.4907-38.9634 49.2454-39.0496 48.9779-39.1284C48.7105-39.2071 48.4203-39.2785 48.1068-39.3413C47.7934-39.404 47.4566-39.4586 47.0971-39.5053C46.7375-39.5521 46.3564-39.5917 45.9506-39.6225C45.139-39.6842 44.2331-39.714 43.2357-39.7123ZM40.685-72.3295C40.4084-72.3212 40.1319-72.3042 39.8568-72.2768C39.5818-72.2494 39.3072-72.2126 39.0346-72.1655C38.7619-72.1184 38.4915-72.0609 38.2221-71.9936C37.9527-71.9263 37.6845-71.8493 37.4193-71.7612C37.1542-71.673 36.8924-71.5738 36.6322-71.4643C36.3721-71.3548 36.1149-71.2344 35.8608-71.103C35.5528-70.9438 35.2525-70.7767 34.9623-70.601C34.6721-70.4253 34.391-70.2414 34.1186-70.0502C33.8461-69.8591 33.5822-69.66 33.3276-69.4545C33.0729-69.249 32.828-69.0366 32.5912-68.8178C32.3544-68.599 32.1265-68.3731 31.9076-68.142C31.6888-67.911 31.4796-67.6753 31.2787-67.4331C31.0779-67.1908 30.8853-66.9432 30.7026-66.6909C30.5198-66.4385 30.3457-66.1808 30.1811-65.9194C30.0164-65.658 29.8607-65.3919 29.7143-65.1225C29.5678-64.8531 29.4304-64.5805 29.3022-64.3042C29.0458-63.7515 28.827-63.1868 28.644-62.6127C28.4609-62.0387 28.3136-61.4555 28.2045-60.8686C28.0954-60.2817 28.0244-59.6903 27.9897-59.0991C27.9549-58.5078 27.9573-57.9167 27.9975-57.3295C28.0376-56.7424 28.1144-56.1599 28.2299-55.5854C28.2876-55.2981 28.3563-55.0125 28.433-54.7299C28.5097-54.4474 28.5951-54.1668 28.6908-53.8901C28.7865-53.6134 28.8925-53.3416 29.0072-53.0717C29.122-52.8019 29.2464-52.5348 29.3803-52.2729C29.5142-52.011 29.6569-51.7543 29.81-51.5014C29.963-51.2485 30.1259-51.0001 30.2982-50.7573C30.4706-50.5144 30.6515-50.2761 30.8432-50.0444C31.0348-49.8126 31.2376-49.5862 31.4486-49.3667C31.6597-49.1471 31.8803-48.9343 32.1107-48.728C32.3412-48.5216 32.5815-48.3224 32.8314-48.1303C33.0814-47.9383 33.3412-47.7543 33.6107-47.5776C33.8803-47.4009 34.1595-47.232 34.4486-47.0717C34.7396-46.9105 35.0323-46.7592 35.3275-46.6206C35.6227-46.4819 35.9196-46.3543 36.2182-46.2377C36.5167-46.1212 36.8175-46.0162 37.1186-45.9213C37.4196-45.8265 37.7221-45.743 38.0248-45.6694C38.3275-45.5957 38.6295-45.5329 38.933-45.4799C39.2365-45.427 39.5398-45.3838 39.8432-45.351C40.1466-45.3183 40.4509-45.2957 40.7533-45.2827C41.0558-45.2697 41.357-45.2667 41.6576-45.2729C42.2589-45.2854 42.8558-45.3366 43.4447-45.4233C44.0336-45.5099 44.6153-45.6315 45.185-45.7885C45.7546-45.9455 46.3114-46.1374 46.8549-46.3608C47.3984-46.5842 47.9284-46.8384 48.4389-47.1244C48.9494-47.4104 49.4409-47.727 49.9115-48.0717C50.3821-48.4164 50.8315-48.7893 51.2553-49.1889C51.6791-49.5885 52.0785-50.0156 52.4486-50.4662C52.6337-50.6916 52.8115-50.9222 52.9818-51.1596C53.1522-51.3969 53.3153-51.6411 53.4701-51.8901C53.6249-52.139 53.7712-52.3937 53.9096-52.6537C54.0479-52.9137 54.1772-53.1781 54.2982-53.4486C54.4193-53.7192 54.5313-53.9961 54.6342-54.2768C54.7371-54.5575 54.8315-54.8419 54.9154-55.1322C54.9993-55.4226 55.074-55.7175 55.1381-56.017C55.2021-56.3165 55.2549-56.621 55.2982-56.9291C55.3416-57.2373 55.3742-57.5503 55.3959-57.8666C55.4176-58.1829 55.4279-58.5035 55.4272-58.8276C55.4267-59.1187 55.4163-59.4061 55.394-59.6928C55.3716-59.9795 55.3376-60.2647 55.2943-60.5463C55.2511-60.8279 55.1975-61.1062 55.1342-61.3822C55.0709-61.6583 54.9978-61.9327 54.9154-62.2026C54.833-62.4724 54.7426-62.7383 54.642-63.0014C54.5413-63.2645 54.4319-63.5249 54.3139-63.7807C54.0779-64.2923 53.8072-64.788 53.5072-65.267C53.2073-65.7461 52.8777-66.2078 52.5209-66.6498C52.1641-67.0918 51.7808-67.515 51.3744-67.9154C50.968-68.3159 50.5382-68.6939 50.0893-69.0483C49.6404-69.4026 49.1711-69.7328 48.6869-70.0365C48.2027-70.3403 47.7031-70.6179 47.1908-70.8666C46.6785-71.1153 46.1538-71.3338 45.6205-71.5229C45.0873-71.712 44.5464-71.8705 43.9994-71.9955C43.4524-72.1206 42.9007-72.2125 42.3471-72.269C41.7935-72.3254 41.238-72.3461 40.685-72.3295ZM76.3744-72.3452C76.0969-72.3367 75.8186-72.3183 75.5424-72.2905C75.2662-72.2627 74.9903-72.2249 74.7162-72.1772C74.4421-72.1295 74.1709-72.0715 73.8998-72.0034C73.6287-71.9353 73.3584-71.8562 73.0912-71.767C72.824-71.6779 72.5588-71.5789 72.2963-71.4682C72.0338-71.3575 71.7738-71.2358 71.517-71.103C71.2091-70.9437 70.9107-70.7767 70.6205-70.601C70.3303-70.4253 70.0492-70.2414 69.7768-70.0502C69.5043-69.8591 69.2404-69.66 68.9858-69.4545C68.7311-69.249 68.4842-69.0366 68.2475-68.8178C68.0107-68.599 67.7847-68.3731 67.5658-68.142C67.347-67.911 67.1358-67.6753 66.935-67.4331C66.7341-67.1908 66.5435-66.9432 66.3608-66.6909C66.178-66.4385 66.0039-66.1808 65.8393-65.9194C65.6746-65.658 65.5189-65.3919 65.3725-65.1225C65.226-64.8531 65.0886-64.5805 64.9604-64.3042C64.704-63.7515 64.4832-63.1868 64.3002-62.6127C64.1172-62.0387 63.9718-61.4555 63.8627-60.8686C63.7536-60.2817 63.6807-59.6903 63.6459-59.0991C63.6112-58.5078 63.6136-57.9167 63.6537-57.3295C63.6939-56.7424 63.7726-56.1599 63.8881-55.5854C63.9458-55.2981 64.0126-55.0125 64.0893-54.7299C64.166-54.4474 64.2533-54.1668 64.349-53.8901C64.4447-53.6134 64.5487-53.3416 64.6635-53.0717C64.7782-52.8019 64.9026-52.5348 65.0365-52.2729C65.1704-52.011 65.3151-51.7543 65.4682-51.5014C65.6212-51.2485 65.7822-51.0001 65.9545-50.7573C66.1268-50.5144 66.3097-50.2761 66.5014-50.0444C66.693-49.8126 66.8939-49.5862 67.1049-49.3667C67.3159-49.1471 67.5365-48.9343 67.767-48.728C67.9974-48.5216 68.2377-48.3224 68.4877-48.1303C68.7376-47.9383 68.9975-47.7543 69.267-47.5776C69.5365-47.4009 69.8157-47.232 70.1049-47.0717C70.3892-46.9142 70.6769-46.7674 70.9662-46.6323C71.2556-46.4971 71.5477-46.3725 71.8412-46.2592C72.1347-46.146 72.4293-46.0444 72.726-45.9526C73.0227-45.8608 73.3215-45.7793 73.6205-45.7084C73.9196-45.6376 74.2185-45.5773 74.5189-45.5268C74.8194-45.4763 75.1203-45.4362 75.4213-45.4057C75.7223-45.3752 76.023-45.3543 76.3236-45.3432C76.6243-45.3321 76.9246-45.3295 77.224-45.3373C77.8228-45.353 78.4189-45.407 79.0072-45.4955C79.5956-45.5841 80.1768-45.7072 80.7475-45.8647C81.3182-46.0221 81.8793-46.2127 82.4252-46.435C82.9711-46.6573 83.5012-46.9115 84.015-47.1947C84.5289-47.478 85.0248-47.792 85.4994-48.1322C85.974-48.4724 86.4287-48.8386 86.8568-49.2318C87.285-49.6251 87.6873-50.0435 88.0619-50.4858C88.4365-50.928 88.7833-51.3949 89.0971-51.8822C89.2539-52.1259 89.4021-52.3741 89.5424-52.6283C89.6827-52.8825 89.814-53.1434 89.9369-53.4076C90.0598-53.6719 90.1742-53.9405 90.2787-54.2143C90.3832-54.4881 90.4786-54.7654 90.5639-55.0483C90.6491-55.3311 90.7234-55.6202 90.7885-55.9115C90.8536-56.2029 90.9085-56.4969 90.9525-56.7963C90.9966-57.0957 91.03-57.3995 91.0521-57.7065C91.0743-58.0134 91.0861-58.324 91.0853-58.6381C91.0849-58.9348 91.0723-59.2289 91.0502-59.5209C91.028-59.8129 90.9955-60.1034 90.9525-60.39C90.9096-60.6767 90.8572-60.9608 90.7943-61.2416C90.7315-61.5225 90.6594-61.7992 90.5775-62.0736C90.4957-62.3481 90.4041-62.6187 90.3041-62.8861C90.2041-63.1536 90.0952-63.4192 89.9779-63.6791C89.7434-64.199 89.4754-64.7025 89.1771-65.1889C88.8789-65.6753 88.5497-66.1447 88.1947-66.5932C87.8397-67.0416 87.4588-67.4685 87.0541-67.8744C86.6494-68.2804 86.2221-68.6638 85.7748-69.0229C85.3275-69.3819 84.8612-69.7172 84.3783-70.0248C83.8955-70.3324 83.3955-70.613 82.8842-70.8647C82.3728-71.1163 81.8486-71.3394 81.3158-71.5307C80.783-71.7219 80.242-71.8809 79.6947-72.0072C79.1475-72.1336 78.595-72.2257 78.0404-72.2826C77.4858-72.3395 76.9294-72.3621 76.3744-72.3451ZM46.6791-32.7338C46.2643-32.6255 45.8187-32.5266 45.3412-32.435C44.8638-32.3434 44.3555-32.2585 43.8139-32.1831C44.3555-32.2585 44.8638-32.3434 45.3412-32.435C45.8187-32.5266 46.2643-32.6255 46.6791-32.7338Z"/>
  </g>
 </g>
</svg>
