<?xml version="1.0" encoding="UTF-8" standalone="no"?>
<!--Generator: Apple Native CoreSVG 175.5-->

<svg
   version="1.1"
   width="3300"
   height="2200"
   id="svg33"
   sodipodi:docname="twitter.bell.fill.svg"
   inkscape:version="1.3 (0e150ed, 2023-07-21)"
   xmlns:inkscape="http://www.inkscape.org/namespaces/inkscape"
   xmlns:sodipodi="http://sodipodi.sourceforge.net/DTD/sodipodi-0.dtd"
   xmlns="http://www.w3.org/2000/svg"
   xmlns:svg="http://www.w3.org/2000/svg">
  <defs
     id="defs33" />
  <sodipodi:namedview
     id="namedview33"
     pagecolor="#ffffff"
     bordercolor="#000000"
     borderopacity="0.25"
     inkscape:showpageshadow="2"
     inkscape:pageopacity="0.0"
     inkscape:pagecheckerboard="0"
     inkscape:deskcolor="#d1d1d1"
     inkscape:zoom="1.0841282"
     inkscape:cx="430.29965"
     inkscape:cy="837.53931"
     inkscape:window-width="2560"
     inkscape:window-height="931"
     inkscape:window-x="1080"
     inkscape:window-y="25"
     inkscape:window-maximized="0"
     inkscape:current-layer="svg33" />
  <!--glyph: "", point size: 100.0, font version: "18.0d12e2", template writer version: "101"-->
  <style
     id="style1">.monochrome-0 {fill:#000000}&#10;&#10;.SFSymbolsPreview000000 {fill:#000000;opacity:1.0}&#10;</style>
  <g
     id="Notes">
    <rect
       height="2200"
       id="artboard"
       style="opacity:1;fill:#ffffff"
       width="3300"
       x="0"
       y="0" />
    <line
       style="opacity:1;fill:none;stroke:#000000;stroke-width:0.5"
       x1="263"
       x2="3036"
       y1="292"
       y2="292"
       id="line1" />
    <text
       style="font-weight:bold;font-size:13px;font-family:sans-serif;fill:#000000;stroke:none"
       transform="translate(263,322)"
       id="text1">Weight/Scale Variations</text>
    <text
       style="font-size:13px;font-family:sans-serif;text-anchor:middle;fill:#000000;stroke:none"
       transform="translate(559.711,322)"
       id="text2">Ultralight</text>
    <text
       style="font-size:13px;font-family:sans-serif;text-anchor:middle;fill:#000000;stroke:none"
       transform="translate(856.422,322)"
       id="text3">Thin</text>
    <text
       style="font-size:13px;font-family:sans-serif;text-anchor:middle;fill:#000000;stroke:none"
       transform="translate(1153.13,322)"
       id="text4">Light</text>
    <text
       style="font-size:13px;font-family:sans-serif;text-anchor:middle;fill:#000000;stroke:none"
       transform="translate(1449.84,322)"
       id="text5">Regular</text>
    <text
       style="font-size:13px;font-family:sans-serif;text-anchor:middle;fill:#000000;stroke:none"
       transform="translate(1746.56,322)"
       id="text6">Medium</text>
    <text
       style="font-size:13px;font-family:sans-serif;text-anchor:middle;fill:#000000;stroke:none"
       transform="translate(2043.27,322)"
       id="text7">Semibold</text>
    <text
       style="font-size:13px;font-family:sans-serif;text-anchor:middle;fill:#000000;stroke:none"
       transform="translate(2339.98,322)"
       id="text8">Bold</text>
    <text
       style="font-size:13px;font-family:sans-serif;text-anchor:middle;fill:#000000;stroke:none"
       transform="translate(2636.69,322)"
       id="text9">Heavy</text>
    <text
       style="font-size:13px;font-family:sans-serif;text-anchor:middle;fill:#000000;stroke:none"
       transform="translate(2933.4,322)"
       id="text10">Black</text>
    <line
       style="opacity:1;fill:none;stroke:#000000;stroke-width:0.5"
       x1="263"
       x2="3036"
       y1="1903"
       y2="1903"
       id="line10" />
    <g
       transform="translate(263,1933)"
       id="g10">
      <path
         d="m 9.24805,0.830078 c 4.30665,0 7.89065,-3.574218 7.89065,-7.880858 0,-4.30662 -3.5938,-7.88082 -7.90042,-7.88082 -4.29687,0 -7.87109,3.5742 -7.87109,7.88082 0,4.30664 3.58398,7.880858 7.88086,7.880858 z m 0,-1.484375 c -3.54493,0 -6.37696,-2.841793 -6.37696,-6.396483 0,-3.55472 2.82227,-6.39652 6.36719,-6.39652 3.55472,0 6.40622,2.8418 6.40622,6.39652 0,3.55469 -2.8418,6.396483 -6.39645,6.396483 z M 5.6543,-7.05078 c 0,0.42969 0.30273,0.72266 0.75195,0.72266 h 2.09961 v 2.11914 c 0,0.43945 0.29297,0.74218 0.72266,0.74218 0.44921,0 0.74218,-0.30273 0.74218,-0.74218 v -2.11914 h 2.1191 c 0.4395,0 0.7422,-0.29297 0.7422,-0.72266 0,-0.43945 -0.3027,-0.74219 -0.7422,-0.74219 H 9.9707 v -2.10937 c 0,-0.44926 -0.29297,-0.75196 -0.74218,-0.75196 -0.42969,0 -0.72266,0.3027 -0.72266,0.75196 v 2.10937 H 6.40625 c -0.44922,0 -0.75195,0.30274 -0.75195,0.74219 z"
         id="path10" />
    </g>
    <g
       transform="translate(281.867,1933)"
       id="g11">
      <path
         d="m 11.709,2.91016 c 5.4492,0 9.9609,-4.52149 9.9609,-9.96094 0,-5.44922 -4.5215,-9.96092 -9.9707,-9.96092 -5.43943,0 -9.95115,4.5117 -9.95115,9.96092 0,5.43945 4.52148,9.96094 9.96095,9.96094 z m 0,-1.66016 c -4.60939,0 -8.29103,-3.69141 -8.29103,-8.30078 0,-4.60942 3.67187,-8.30082 8.28123,-8.30082 4.6094,0 8.3106,3.6914 8.3106,8.30082 0,4.60937 -3.6914,8.30078 -8.3008,8.30078 z M 7.17773,-7.05078 c 0,0.47851 0.33204,0.80078 0.83008,0.80078 h 2.87109 v 2.88086 c 0,0.48828 0.332,0.83008 0.8106,0.83008 0.4882,0 0.83,-0.33203 0.83,-0.83008 V -6.25 h 2.8809 c 0.4883,0 0.8301,-0.32227 0.8301,-0.80078 0,-0.48828 -0.3418,-0.83008 -0.8301,-0.83008 H 12.5195 V -10.752 c 0,-0.498 -0.3418,-0.8398 -0.83,-0.8398 -0.4786,0 -0.8106,0.3418 -0.8106,0.8398 v 2.87114 H 8.00781 c -0.49804,0 -0.83008,0.3418 -0.83008,0.83008 z"
         id="path11" />
    </g>
    <g
       transform="translate(305.646,1933)"
       id="g12">
      <path
         d="m 14.9707,5.66406 c 6.9629,0 12.7246,-5.7617162 12.7246,-12.71484 0,-6.96292 -5.7715,-12.72462 -12.7344,-12.72462 -6.95309,0 -12.70504,5.7617 -12.70504,12.72462 0,6.9531238 5.76172,12.71484 12.71484,12.71484 z m 0,-1.8164 c -6.03515,0 -10.88867,-4.86328 -10.88867,-10.89844 0,-6.04492 4.84375,-10.89842 10.87887,-10.89842 6.045,0 10.9082,4.8535 10.9082,10.89842 0,6.03516 -4.8535,10.89844 -10.8984,10.89844 z M 9.19922,-7.05078 c 0,0.51758 0.37109,0.8789 0.91798,0.8789 h 3.9453 v 3.95508 c 0,0.53711 0.3711,0.91797 0.8887,0.91797 0.5371,0 0.9082,-0.37109 0.9082,-0.91797 v -3.95508 h 3.9551 c 0.5371,0 0.9179,-0.36132 0.9179,-0.8789 0,-0.54688 -0.3711,-0.91797 -0.9179,-0.91797 h -3.9551 v -3.94535 c 0,-0.5468 -0.3711,-0.9277 -0.9082,-0.9277 -0.5176,0 -0.8887,0.3809 -0.8887,0.9277 v 3.94535 h -3.9453 c -0.54689,0 -0.91798,0.37109 -0.91798,0.91797 z"
         id="path12" />
    </g>
    <text
       style="font-weight:bold;font-size:13px;font-family:sans-serif;fill:#000000;stroke:none"
       transform="translate(263,1953)"
       id="text12">Design Variations</text>
    <text
       style="font-size:13px;font-family:sans-serif;fill:#000000;stroke:none"
       transform="translate(263,1971)"
       id="text13">Symbols are supported in up to nine weights and three scales.</text>
    <text
       style="font-size:13px;font-family:sans-serif;fill:#000000;stroke:none"
       transform="translate(263,1989)"
       id="text14">For optimal layout with text and other symbols, vertically align</text>
    <text
       style="font-size:13px;font-family:sans-serif;fill:#000000;stroke:none"
       transform="translate(263,2007)"
       id="text15">symbols with the adjacent text.</text>
    <line
       style="opacity:1;fill:none;stroke:#00aeef;stroke-width:0.5"
       x1="776"
       x2="776"
       y1="1919"
       y2="1933"
       id="line15" />
    <g
       transform="translate(776,1933)"
       id="g15">
      <path
         d="m 3.31055,0.15625 c 0.51757,0 0.77148,-0.1953125 0.95703,-0.742188 L 5.52734,-4.0332 h 5.76176 l 1.2597,3.447262 c 0.1856,0.5468755 0.4395,0.742188 0.9473,0.742188 0.5176,0 0.8496,-0.3125 0.8496,-0.800781 0,-0.166016 -0.0293,-0.322266 -0.1074,-0.527349 L 9.6582,-13.3691 c -0.22461,-0.5957 -0.625,-0.8985 -1.25,-0.8985 -0.60547,0 -1.01562,0.293 -1.23047,0.8887 L 2.59766,-1.16211 c -0.07813,0.205079 -0.10743,0.361329 -0.10743,0.527344 0,0.488282 0.3125,0.791016 0.82032,0.791016 z m 2.69531,-5.67383 2.37305,-6.57222 h 0.04882 l 2.37307,6.57222 z"
         id="path15" />
    </g>
    <line
       style="opacity:1;fill:none;stroke:#00aeef;stroke-width:0.5"
       x1="793.19702"
       x2="793.19702"
       y1="1919"
       y2="1933"
       id="line16" />
    <text
       style="font-weight:bold;font-size:13px;font-family:sans-serif;fill:#000000;stroke:none"
       transform="translate(776,1953)"
       id="text16">Margins</text>
    <text
       style="font-size:13px;font-family:sans-serif;fill:#000000;stroke:none"
       transform="translate(776,1971)"
       id="text17">Leading and trailing margins on the left and right side of each symbol</text>
    <text
       style="font-size:13px;font-family:sans-serif;fill:#000000;stroke:none"
       transform="translate(776,1989)"
       id="text18">can be adjusted by modifying the x-location of the margin guidelines.</text>
    <text
       style="font-size:13px;font-family:sans-serif;fill:#000000;stroke:none"
       transform="translate(776,2007)"
       id="text19">Modifications are automatically applied proportionally to all</text>
    <text
       style="font-size:13px;font-family:sans-serif;fill:#000000;stroke:none"
       transform="translate(776,2025)"
       id="text20">scales and weights.</text>
    <g
       transform="translate(1289,1933)"
       id="g20">
      <path
         d="M 2.8418,1.86523 4.54102,3.57422 C 5.40039,4.44336 6.38672,4.38477 7.31445,3.35938 L 18.0078,-8.42773 17.041,-9.4043 6.42578,2.27539 C 6.07422,2.67578 5.74219,2.77344 5.27344,2.30469 L 4.10156,1.14258 C 3.63281,0.683594 3.74023,0.341797 4.14062,-0.0195312 L 15.6152,-10.8203 14.6387,-11.7871 3.04688,-0.898438 C 2.06055,0.0195312 1.98242,0.996094 2.8418,1.86523 Z M 9.25781,-16.3281 c -0.41992,0.4101 -0.44922,0.9863 -0.21484,1.3769 0.23437,0.3614 0.69336,0.5957 1.33793,0.4297 1.4648,-0.3418 2.9882,-0.4004 4.414,0.5371 l -0.5859,1.4551 c -0.3418,0.8301 -0.166,1.416 0.3711,1.9629 l 2.2949,2.31445 c 0.4883,0.48828 0.8984,0.50781 1.4648,0.41015 l 1.0645,-0.19531 0.6641,0.67383 -0.0391,0.55664 c -0.0391,0.49805 0.0879,0.87891 0.5762,1.35742 l 0.7617,0.74219 c 0.4785,0.47851 1.0937,0.50781 1.5625,0.03906 l 2.9101,-2.91992 c 0.4688,-0.46875 0.4493,-1.06445 -0.0293,-1.54297 l -0.7714,-0.76172 c -0.4786,-0.47852 -0.8496,-0.63472 -1.3282,-0.59572 l -0.5761,0.0488 -0.6446,-0.6347 0.2442,-1.1231 c 0.1269,-0.5664 -0.0293,-1.0058 -0.6153,-1.5918 l -2.1972,-2.1875 c -3.3399,-3.3203 -7.7735,-3.2422 -10.66409,-0.3515 z m 1.49419,0.3711 c 2.4316,-1.7774 5.7226,-1.4746 7.9492,0.7519 l 2.4316,2.4121 c 0.2344,0.2344 0.2734,0.42 0.2051,0.7618 l -0.3223,1.4843 1.5039,1.4844 0.9864,-0.05859 c 0.2539,-0.00977 0.332,0.00976 0.5273,0.20507 l 0.5762,0.57618 -2.4414,2.4414 -0.5762,-0.57617 C 21.3965,-6.66992 21.3672,-6.74805 21.377,-7.01172 l 0.0683,-0.97656 -1.4941,-1.48438 -1.5235,0.25391 c -0.3222,0.06836 -0.4687,0.03906 -0.7129,-0.19531 L 15.7129,-11.416 c -0.2539,-0.2344 -0.2832,-0.4004 -0.127,-0.7715 l 0.8789,-2.0898 c -1.5625,-1.4551 -3.5937,-2.0801 -5.625,-1.4844 -0.1562,0.039 -0.2148,-0.0879 -0.0878,-0.1953 z"
         id="path20" />
    </g>
    <text
       style="font-weight:bold;font-size:13px;font-family:sans-serif;fill:#000000;stroke:none"
       transform="translate(1289,1953)"
       id="text21">Exporting</text>
    <text
       style="font-size:13px;font-family:sans-serif;fill:#000000;stroke:none"
       transform="translate(1289,1971)"
       id="text22">Symbols should be outlined when exporting to ensure the</text>
    <text
       style="font-size:13px;font-family:sans-serif;fill:#000000;stroke:none"
       transform="translate(1289,1989)"
       id="text23">design is preserved when submitting to Xcode.</text>
    <text
       id="template-version"
       style="font-size:13px;font-family:sans-serif;text-anchor:end;fill:#000000;stroke:none"
       transform="translate(3036,1933)">Template v.4.0</text>
    <text
       style="font-size:13px;font-family:sans-serif;text-anchor:end;fill:#000000;stroke:none"
       transform="translate(3036,1951)"
       id="text24">Requires Xcode 14 or greater</text>
    <text
       id="descriptive-name"
       style="font-size:13px;font-family:sans-serif;text-anchor:end;fill:#000000;stroke:none"
       transform="translate(3036,1969)">Generated from twitter.bell</text>
    <text
       style="font-size:13px;font-family:sans-serif;text-anchor:end;fill:#000000;stroke:none"
       transform="translate(3036,1987)"
       id="text25">Typeset at 100 points</text>
    <text
       style="font-size:13px;font-family:sans-serif;fill:#000000;stroke:none"
       transform="translate(263,726)"
       id="text26">Small</text>
    <text
       style="font-size:13px;font-family:sans-serif;fill:#000000;stroke:none"
       transform="translate(263,1156)"
       id="text27">Medium</text>
    <text
       style="font-size:13px;font-family:sans-serif;fill:#000000;stroke:none"
       transform="translate(263,1586)"
       id="text28">Large</text>
  </g>
  <g
     id="Guides">
    <g
       id="H-reference"
       style="fill:#27aae1;stroke:none"
       transform="translate(339,696)">
      <path
         d="M 0.993654,0 H 3.63775 L 29.3281,-67.1323 h 0.7022 V -70.459 H 28.1226 Z M 11.6885,-24.4799 h 35.293 l -0.75,-2.2486 H 12.4385 Z M 55.1196,0 h 2.6441 L 30.6382,-70.459 h -1.2056 v 3.3267 z"
         id="path28" />
    </g>
    <line
       id="Baseline-S"
       style="opacity:1;fill:none;stroke:#27aae1;stroke-width:0.5"
       x1="263"
       x2="3036"
       y1="696"
       y2="696" />
    <line
       id="Capline-S"
       style="opacity:1;fill:none;stroke:#27aae1;stroke-width:0.5"
       x1="263"
       x2="3036"
       y1="625.54102"
       y2="625.54102" />
    <g
       id="g29"
       style="fill:#27aae1;stroke:none"
       transform="translate(339,1126)">
      <path
         d="M 0.993654,0 H 3.63775 L 29.3281,-67.1323 h 0.7022 V -70.459 H 28.1226 Z M 11.6885,-24.4799 h 35.293 l -0.75,-2.2486 H 12.4385 Z M 55.1196,0 h 2.6441 L 30.6382,-70.459 h -1.2056 v 3.3267 z"
         id="path29" />
    </g>
    <line
       id="Baseline-M"
       style="opacity:1;fill:none;stroke:#27aae1;stroke-width:0.5"
       x1="263"
       x2="3036"
       y1="1126"
       y2="1126" />
    <line
       id="Capline-M"
       style="opacity:1;fill:none;stroke:#27aae1;stroke-width:0.5"
       x1="263"
       x2="3036"
       y1="1055.54"
       y2="1055.54" />
    <g
       id="g30"
       style="fill:#27aae1;stroke:none"
       transform="translate(339,1556)">
      <path
         d="M 0.993654,0 H 3.63775 L 29.3281,-67.1323 h 0.7022 V -70.459 H 28.1226 Z M 11.6885,-24.4799 h 35.293 l -0.75,-2.2486 H 12.4385 Z M 55.1196,0 h 2.6441 L 30.6382,-70.459 h -1.2056 v 3.3267 z"
         id="path30" />
    </g>
    <line
       id="Baseline-L"
       style="opacity:1;fill:none;stroke:#27aae1;stroke-width:0.5"
       x1="263"
       x2="3036"
       y1="1556"
       y2="1556" />
    <line
       id="Capline-L"
       style="opacity:1;fill:none;stroke:#27aae1;stroke-width:0.5"
       x1="263"
       x2="3036"
       y1="1485.54"
       y2="1485.54" />
    <line
       id="left-margin-Ultralight-S"
       style="opacity:1;fill:none;stroke:#00aeef;stroke-width:0.5"
       x1="508.561"
       x2="508.561"
       y1="600.78497"
       y2="720.12097" />
    <line
       id="right-margin-Ultralight-S"
       style="opacity:1;fill:none;stroke:#00aeef;stroke-width:0.5"
       x1="610.86102"
       x2="610.86102"
       y1="600.78497"
       y2="720.12097" />
    <line
       id="left-margin-Regular-S"
       style="opacity:1;fill:none;stroke:#00aeef;stroke-width:0.5"
       x1="1393.47"
       x2="1393.47"
       y1="600.78497"
       y2="720.12097" />
    <line
       id="right-margin-Regular-S"
       style="opacity:1;fill:none;stroke:#00aeef;stroke-width:0.5"
       x1="1506.22"
       x2="1506.22"
       y1="600.78497"
       y2="720.12097" />
    <line
       id="left-margin-Black-S"
       style="opacity:1;fill:none;stroke:#00aeef;stroke-width:0.5"
       x1="2871.8799"
       x2="2871.8799"
       y1="600.78497"
       y2="720.12097" />
    <line
       id="right-margin-Black-S"
       style="opacity:1;fill:none;stroke:#00aeef;stroke-width:0.5"
       x1="2994.9199"
       x2="2994.9199"
       y1="600.78497"
       y2="720.12097" />
  </g>
  <g
     id="Symbols">
    <g
       id="Black-S"
       transform="translate(2871.88,696)">
      <path
         id="path32-2"
         style="fill:#000000;stroke-width:0.980039"
         class="monochrome-0 SFSymbolsPreview000000"
         d="m 62.984898,-75.996779 c -12.877403,0.176422 -25.721619,7.610034 -30.830327,21.684362 -1.19144,3.282363 -6.053461,37.420063 -6.076096,42.662914 -0.0037,0.853816 0.757683,0.937706 8.526597,0.937706 h 8.530815 l 0.649732,2.0090586 C 45.640056,-2.9670086 50.749737,2.3380463 56.247692,4.2353591 66.770434,7.8667233 79.291558,1.784481 82.357045,-8.4472301 l 0.6784,-2.2645669 h 8.765657 8.766088 l -0.27659,-1.205437 c -0.152,-0.663001 -1.006231,-6.991645 -1.898167,-14.063844 C 94.94308,-53.334029 94.965394,-53.220529 91.858447,-59.090319 85.735393,-70.658133 74.34731,-76.152453 62.984898,-75.996779 Z m -11.756693,65.284982 h 11.834692 11.835115 l -1.23958,2.2084893 c -0.68182,1.2146662 -2.324792,2.9605957 -3.650889,3.8794067 -5.819608,4.03239649 -14.722948,1.7568809 -18.011974,-4.6033483 z"
         inkscape:label="path34" />
    </g>
    <g
       id="Regular-S"
       transform="translate(1393.47,696)">
      <path
         id="path32-3"
         style="fill:#000000;stroke-width:0.971916"
         class="monochrome-0 SFSymbolsPreview000000"
         d="m 57.490068,-79.954644 c -12.77062,0.17496 -25.508345,7.546932 -30.574688,21.504557 -1.181564,3.255145 -6.003264,37.109779 -6.025707,42.309157 -0.0036,0.846737 0.751396,0.929931 8.455889,0.929931 h 8.460078 l 0.644344,1.992399 c 1.839065,5.6881697 6.906374,10.9492356 12.358743,12.8308163 10.435487,3.601252 22.852783,-2.4305556 25.892856,-12.5774263 l 0.672771,-2.245789 h 8.692976 8.693398 l -0.274295,-1.195442 c -0.15074,-0.657502 -0.997884,-6.933671 -1.882429,-13.947227 -3.420756,-27.126144 -3.398623,-27.013585 -6.479806,-32.834701 -6.07228,-11.471896 -17.365933,-16.920658 -28.63413,-16.766275 z m -11.659211,64.743645 h 11.736567 11.736972 l -1.229305,2.190177 c -0.676159,1.204594 -2.305504,2.936046 -3.620614,3.8472383 -5.771346,3.9989603 -14.600861,1.7423132 -17.862621,-4.5651783 z"
         inkscape:label="path33" />
    </g>
    <g
       id="Ultralight-S"
       transform="translate(508.561,696)"
       inkscape:label="Ultralight-S">
      <path
         id="path32"
         style="fill:#000000;stroke-width:1.02046"
         class="monochrome-0 SFSymbolsPreview000000"
         d="m 51.646131,-81.772645 c -13.40848,0.1837 -26.7824,7.92388 -32.1018,22.578637 -1.24057,3.417729 -6.3031,38.963286 -6.32667,44.422355 -0.004,0.889028 0.78893,0.976378 8.87824,0.976378 h 8.88263 l 0.67652,2.091913 c 1.93092,5.9722739 7.25133,11.49611186 12.97602,13.4716719 10.95671,3.781122 23.99421,-2.55195404 27.18612,-13.2056259 l 0.70637,-2.357959 h 9.12716 9.12761 l -0.288,-1.25515 c -0.15827,-0.690343 -1.04773,-7.279984 -1.97645,-14.643844 -3.59161,-28.481002 -3.56837,-28.362821 -6.80345,-34.474686 -6.37557,-12.04487 -18.2333,-17.76578 -30.0643,-17.60369 z m -12.24155,67.97737 h 12.32276 12.3232 l -1.2907,2.299568 c -0.70994,1.26476 -2.42067,3.0826919 -3.80146,4.0393959 -6.0596,4.198694 -15.33012,1.829335 -18.75479,-4.7931929 z" />
    </g>
  </g>
</svg>
