<?xml version="1.0" encoding="UTF-8"?>
<!--Generator: Apple Native CoreSVG 175.5-->
<!DOCTYPE svg
PUBLIC "-//W3C//DTD SVG 1.1//EN"
       "http://www.w3.org/Graphics/SVG/1.1/DTD/svg11.dtd">
<svg version="1.1" xmlns="http://www.w3.org/2000/svg" xmlns:xlink="http://www.w3.org/1999/xlink" width="3300" height="2200">
 <!--glyph: "", point size: 100.0, font version: "18.0d12e2", template writer version: "101"-->
 <style>.monochrome-0 {fill:#000000}

.SFSymbolsPreview000000 {fill:#000000;opacity:1.0}
</style>
 <g id="Notes">
  <rect height="2200" id="artboard" style="fill:white;opacity:1" width="3300" x="0" y="0"/>
  <line style="fill:none;stroke:black;opacity:1;stroke-width:0.5;" x1="263" x2="3036" y1="292" y2="292"/>
  <text style="stroke:none;fill:black;font-family:sans-serif;font-size:13;font-weight:bold;" transform="matrix(1 0 0 1 263 322)">Weight/Scale Variations</text>
  <text style="stroke:none;fill:black;font-family:sans-serif;font-size:13;text-anchor:middle;" transform="matrix(1 0 0 1 559.711 322)">Ultralight</text>
  <text style="stroke:none;fill:black;font-family:sans-serif;font-size:13;text-anchor:middle;" transform="matrix(1 0 0 1 856.422 322)">Thin</text>
  <text style="stroke:none;fill:black;font-family:sans-serif;font-size:13;text-anchor:middle;" transform="matrix(1 0 0 1 1153.13 322)">Light</text>
  <text style="stroke:none;fill:black;font-family:sans-serif;font-size:13;text-anchor:middle;" transform="matrix(1 0 0 1 1449.84 322)">Regular</text>
  <text style="stroke:none;fill:black;font-family:sans-serif;font-size:13;text-anchor:middle;" transform="matrix(1 0 0 1 1746.56 322)">Medium</text>
  <text style="stroke:none;fill:black;font-family:sans-serif;font-size:13;text-anchor:middle;" transform="matrix(1 0 0 1 2043.27 322)">Semibold</text>
  <text style="stroke:none;fill:black;font-family:sans-serif;font-size:13;text-anchor:middle;" transform="matrix(1 0 0 1 2339.98 322)">Bold</text>
  <text style="stroke:none;fill:black;font-family:sans-serif;font-size:13;text-anchor:middle;" transform="matrix(1 0 0 1 2636.69 322)">Heavy</text>
  <text style="stroke:none;fill:black;font-family:sans-serif;font-size:13;text-anchor:middle;" transform="matrix(1 0 0 1 2933.4 322)">Black</text>
  <line style="fill:none;stroke:black;opacity:1;stroke-width:0.5;" x1="263" x2="3036" y1="1903" y2="1903"/>
  <g transform="matrix(1 0 0 1 263 1933)">
   <path d="M9.24805 0.830078C13.5547 0.830078 17.1387-2.74414 17.1387-7.05078C17.1387-11.3574 13.5449-14.9316 9.23828-14.9316C4.94141-14.9316 1.36719-11.3574 1.36719-7.05078C1.36719-2.74414 4.95117 0.830078 9.24805 0.830078ZM9.24805-0.654297C5.70312-0.654297 2.87109-3.49609 2.87109-7.05078C2.87109-10.6055 5.69336-13.4473 9.23828-13.4473C12.793-13.4473 15.6445-10.6055 15.6445-7.05078C15.6445-3.49609 12.8027-0.654297 9.24805-0.654297ZM5.6543-7.05078C5.6543-6.62109 5.95703-6.32812 6.40625-6.32812L8.50586-6.32812L8.50586-4.20898C8.50586-3.76953 8.79883-3.4668 9.22852-3.4668C9.67773-3.4668 9.9707-3.76953 9.9707-4.20898L9.9707-6.32812L12.0898-6.32812C12.5293-6.32812 12.832-6.62109 12.832-7.05078C12.832-7.49023 12.5293-7.79297 12.0898-7.79297L9.9707-7.79297L9.9707-9.90234C9.9707-10.3516 9.67773-10.6543 9.22852-10.6543C8.79883-10.6543 8.50586-10.3516 8.50586-9.90234L8.50586-7.79297L6.40625-7.79297C5.95703-7.79297 5.6543-7.49023 5.6543-7.05078Z"/>
  </g>
  <g transform="matrix(1 0 0 1 281.867 1933)">
   <path d="M11.709 2.91016C17.1582 2.91016 21.6699-1.61133 21.6699-7.05078C21.6699-12.5 17.1484-17.0117 11.6992-17.0117C6.25977-17.0117 1.74805-12.5 1.74805-7.05078C1.74805-1.61133 6.26953 2.91016 11.709 2.91016ZM11.709 1.25C7.09961 1.25 3.41797-2.44141 3.41797-7.05078C3.41797-11.6602 7.08984-15.3516 11.6992-15.3516C16.3086-15.3516 20.0098-11.6602 20.0098-7.05078C20.0098-2.44141 16.3184 1.25 11.709 1.25ZM7.17773-7.05078C7.17773-6.57227 7.50977-6.25 8.00781-6.25L10.8789-6.25L10.8789-3.36914C10.8789-2.88086 11.2109-2.53906 11.6895-2.53906C12.1777-2.53906 12.5195-2.87109 12.5195-3.36914L12.5195-6.25L15.4004-6.25C15.8887-6.25 16.2305-6.57227 16.2305-7.05078C16.2305-7.53906 15.8887-7.88086 15.4004-7.88086L12.5195-7.88086L12.5195-10.752C12.5195-11.25 12.1777-11.5918 11.6895-11.5918C11.2109-11.5918 10.8789-11.25 10.8789-10.752L10.8789-7.88086L8.00781-7.88086C7.50977-7.88086 7.17773-7.53906 7.17773-7.05078Z"/>
  </g>
  <g transform="matrix(1 0 0 1 305.646 1933)">
   <path d="M14.9707 5.66406C21.9336 5.66406 27.6953-0.0976562 27.6953-7.05078C27.6953-14.0137 21.9238-19.7754 14.9609-19.7754C8.00781-19.7754 2.25586-14.0137 2.25586-7.05078C2.25586-0.0976562 8.01758 5.66406 14.9707 5.66406ZM14.9707 3.84766C8.93555 3.84766 4.08203-1.01562 4.08203-7.05078C4.08203-13.0957 8.92578-17.9492 14.9609-17.9492C21.0059-17.9492 25.8691-13.0957 25.8691-7.05078C25.8691-1.01562 21.0156 3.84766 14.9707 3.84766ZM9.19922-7.05078C9.19922-6.5332 9.57031-6.17188 10.1172-6.17188L14.0625-6.17188L14.0625-2.2168C14.0625-1.67969 14.4336-1.29883 14.9512-1.29883C15.4883-1.29883 15.8594-1.66992 15.8594-2.2168L15.8594-6.17188L19.8145-6.17188C20.3516-6.17188 20.7324-6.5332 20.7324-7.05078C20.7324-7.59766 20.3613-7.96875 19.8145-7.96875L15.8594-7.96875L15.8594-11.9141C15.8594-12.4609 15.4883-12.8418 14.9512-12.8418C14.4336-12.8418 14.0625-12.4609 14.0625-11.9141L14.0625-7.96875L10.1172-7.96875C9.57031-7.96875 9.19922-7.59766 9.19922-7.05078Z"/>
  </g>
  <text style="stroke:none;fill:black;font-family:sans-serif;font-size:13;font-weight:bold;" transform="matrix(1 0 0 1 263 1953)">Design Variations</text>
  <text style="stroke:none;fill:black;font-family:sans-serif;font-size:13;" transform="matrix(1 0 0 1 263 1971)">Symbols are supported in up to nine weights and three scales.</text>
  <text style="stroke:none;fill:black;font-family:sans-serif;font-size:13;" transform="matrix(1 0 0 1 263 1989)">For optimal layout with text and other symbols, vertically align</text>
  <text style="stroke:none;fill:black;font-family:sans-serif;font-size:13;" transform="matrix(1 0 0 1 263 2007)">symbols with the adjacent text.</text>
  <line style="fill:none;stroke:#00AEEF;stroke-width:0.5;opacity:1.0;" x1="776" x2="776" y1="1919" y2="1933"/>
  <g transform="matrix(1 0 0 1 776 1933)">
   <path d="M3.31055 0.15625C3.82812 0.15625 4.08203-0.0390625 4.26758-0.585938L5.52734-4.0332L11.2891-4.0332L12.5488-0.585938C12.7344-0.0390625 12.9883 0.15625 13.4961 0.15625C14.0137 0.15625 14.3457-0.15625 14.3457-0.644531C14.3457-0.810547 14.3164-0.966797 14.2383-1.17188L9.6582-13.3691C9.43359-13.9648 9.0332-14.2676 8.4082-14.2676C7.80273-14.2676 7.39258-13.9746 7.17773-13.3789L2.59766-1.16211C2.51953-0.957031 2.49023-0.800781 2.49023-0.634766C2.49023-0.146484 2.80273 0.15625 3.31055 0.15625ZM6.00586-5.51758L8.37891-12.0898L8.42773-12.0898L10.8008-5.51758Z"/>
  </g>
  <line style="fill:none;stroke:#00AEEF;stroke-width:0.5;opacity:1.0;" x1="793.197" x2="793.197" y1="1919" y2="1933"/>
  <text style="stroke:none;fill:black;font-family:sans-serif;font-size:13;font-weight:bold;" transform="matrix(1 0 0 1 776 1953)">Margins</text>
  <text style="stroke:none;fill:black;font-family:sans-serif;font-size:13;" transform="matrix(1 0 0 1 776 1971)">Leading and trailing margins on the left and right side of each symbol</text>
  <text style="stroke:none;fill:black;font-family:sans-serif;font-size:13;" transform="matrix(1 0 0 1 776 1989)">can be adjusted by modifying the x-location of the margin guidelines.</text>
  <text style="stroke:none;fill:black;font-family:sans-serif;font-size:13;" transform="matrix(1 0 0 1 776 2007)">Modifications are automatically applied proportionally to all</text>
  <text style="stroke:none;fill:black;font-family:sans-serif;font-size:13;" transform="matrix(1 0 0 1 776 2025)">scales and weights.</text>
  <g transform="matrix(1 0 0 1 1289 1933)">
   <path d="M2.8418 1.86523L4.54102 3.57422C5.40039 4.44336 6.38672 4.38477 7.31445 3.35938L18.0078-8.42773L17.041-9.4043L6.42578 2.27539C6.07422 2.67578 5.74219 2.77344 5.27344 2.30469L4.10156 1.14258C3.63281 0.683594 3.74023 0.341797 4.14062-0.0195312L15.6152-10.8203L14.6387-11.7871L3.04688-0.898438C2.06055 0.0195312 1.98242 0.996094 2.8418 1.86523ZM9.25781-16.3281C8.83789-15.918 8.80859-15.3418 9.04297-14.9512C9.27734-14.5898 9.73633-14.3555 10.3809-14.5215C11.8457-14.8633 13.3691-14.9219 14.7949-13.9844L14.209-12.5293C13.8672-11.6992 14.043-11.1133 14.5801-10.5664L16.875-8.25195C17.3633-7.76367 17.7734-7.74414 18.3398-7.8418L19.4043-8.03711L20.0684-7.36328L20.0293-6.80664C19.9902-6.30859 20.1172-5.92773 20.6055-5.44922L21.3672-4.70703C21.8457-4.22852 22.4609-4.19922 22.9297-4.66797L25.8398-7.58789C26.3086-8.05664 26.2891-8.65234 25.8105-9.13086L25.0391-9.89258C24.5605-10.3711 24.1895-10.5273 23.7109-10.4883L23.1348-10.4395L22.4902-11.0742L22.7344-12.1973C22.8613-12.7637 22.7051-13.2031 22.1191-13.7891L19.9219-15.9766C16.582-19.2969 12.1484-19.2188 9.25781-16.3281ZM10.752-15.957C13.1836-17.7344 16.4746-17.4316 18.7012-15.2051L21.1328-12.793C21.3672-12.5586 21.4062-12.373 21.3379-12.0312L21.0156-10.5469L22.5195-9.0625L23.5059-9.12109C23.7598-9.13086 23.8379-9.11133 24.0332-8.91602L24.6094-8.33984L22.168-5.89844L21.5918-6.47461C21.3965-6.66992 21.3672-6.74805 21.377-7.01172L21.4453-7.98828L19.9512-9.47266L18.4277-9.21875C18.1055-9.15039 17.959-9.17969 17.7148-9.41406L15.7129-11.416C15.459-11.6504 15.4297-11.8164 15.5859-12.1875L16.4648-14.2773C14.9023-15.7324 12.8711-16.3574 10.8398-15.7617C10.6836-15.7227 10.625-15.8496 10.752-15.957Z"/>
  </g>
  <text style="stroke:none;fill:black;font-family:sans-serif;font-size:13;font-weight:bold;" transform="matrix(1 0 0 1 1289 1953)">Exporting</text>
  <text style="stroke:none;fill:black;font-family:sans-serif;font-size:13;" transform="matrix(1 0 0 1 1289 1971)">Symbols should be outlined when exporting to ensure the</text>
  <text style="stroke:none;fill:black;font-family:sans-serif;font-size:13;" transform="matrix(1 0 0 1 1289 1989)">design is preserved when submitting to Xcode.</text>
  <text id="template-version" style="stroke:none;fill:black;font-family:sans-serif;font-size:13;text-anchor:end;" transform="matrix(1 0 0 1 3036 1933)">Template v.4.0</text>
  <text style="stroke:none;fill:black;font-family:sans-serif;font-size:13;text-anchor:end;" transform="matrix(1 0 0 1 3036 1951)">Requires Xcode 14 or greater</text>
  <text id="descriptive-name" style="stroke:none;fill:black;font-family:sans-serif;font-size:13;text-anchor:end;" transform="matrix(1 0 0 1 3036 1969)">Generated from twitter.message1.fill</text>
  <text style="stroke:none;fill:black;font-family:sans-serif;font-size:13;text-anchor:end;" transform="matrix(1 0 0 1 3036 1987)">Typeset at 100 points</text>
  <text style="stroke:none;fill:black;font-family:sans-serif;font-size:13;" transform="matrix(1 0 0 1 263 726)">Small</text>
  <text style="stroke:none;fill:black;font-family:sans-serif;font-size:13;" transform="matrix(1 0 0 1 263 1156)">Medium</text>
  <text style="stroke:none;fill:black;font-family:sans-serif;font-size:13;" transform="matrix(1 0 0 1 263 1586)">Large</text>
 </g>
 <g id="Guides">
  <g id="H-reference" style="fill:#27AAE1;stroke:none;" transform="matrix(1 0 0 1 339 696)">
   <path d="M0.993654 0L3.63775 0L29.3281-67.1323L30.0303-67.1323L30.0303-70.459L28.1226-70.459ZM11.6885-24.4799L46.9815-24.4799L46.2315-26.7285L12.4385-26.7285ZM55.1196 0L57.7637 0L30.6382-70.459L29.4326-70.459L29.4326-67.1323Z"/>
  </g>
  <line id="Baseline-S" style="fill:none;stroke:#27AAE1;opacity:1;stroke-width:0.5;" x1="263" x2="3036" y1="696" y2="696"/>
  <line id="Capline-S" style="fill:none;stroke:#27AAE1;opacity:1;stroke-width:0.5;" x1="263" x2="3036" y1="625.541" y2="625.541"/>
  <g id="H-reference" style="fill:#27AAE1;stroke:none;" transform="matrix(1 0 0 1 339 1126)">
   <path d="M0.993654 0L3.63775 0L29.3281-67.1323L30.0303-67.1323L30.0303-70.459L28.1226-70.459ZM11.6885-24.4799L46.9815-24.4799L46.2315-26.7285L12.4385-26.7285ZM55.1196 0L57.7637 0L30.6382-70.459L29.4326-70.459L29.4326-67.1323Z"/>
  </g>
  <line id="Baseline-M" style="fill:none;stroke:#27AAE1;opacity:1;stroke-width:0.5;" x1="263" x2="3036" y1="1126" y2="1126"/>
  <line id="Capline-M" style="fill:none;stroke:#27AAE1;opacity:1;stroke-width:0.5;" x1="263" x2="3036" y1="1055.54" y2="1055.54"/>
  <g id="H-reference" style="fill:#27AAE1;stroke:none;" transform="matrix(1 0 0 1 339 1556)">
   <path d="M0.993654 0L3.63775 0L29.3281-67.1323L30.0303-67.1323L30.0303-70.459L28.1226-70.459ZM11.6885-24.4799L46.9815-24.4799L46.2315-26.7285L12.4385-26.7285ZM55.1196 0L57.7637 0L30.6382-70.459L29.4326-70.459L29.4326-67.1323Z"/>
  </g>
  <line id="Baseline-L" style="fill:none;stroke:#27AAE1;opacity:1;stroke-width:0.5;" x1="263" x2="3036" y1="1556" y2="1556"/>
  <line id="Capline-L" style="fill:none;stroke:#27AAE1;opacity:1;stroke-width:0.5;" x1="263" x2="3036" y1="1485.54" y2="1485.54"/>
  <line id="left-margin-Ultralight-S" style="fill:none;stroke:#00AEEF;stroke-width:0.5;opacity:1.0;" x1="508.561" x2="508.561" y1="600.785" y2="720.121"/>
  <line id="right-margin-Ultralight-S" style="fill:none;stroke:#00AEEF;stroke-width:0.5;opacity:1.0;" x1="610.861" x2="610.861" y1="600.785" y2="720.121"/>
  <line id="left-margin-Regular-S" style="fill:none;stroke:#00AEEF;stroke-width:0.5;opacity:1.0;" x1="1393.47" x2="1393.47" y1="600.785" y2="720.121"/>
  <line id="right-margin-Regular-S" style="fill:none;stroke:#00AEEF;stroke-width:0.5;opacity:1.0;" x1="1506.22" x2="1506.22" y1="600.785" y2="720.121"/>
  <line id="left-margin-Black-S" style="fill:none;stroke:#00AEEF;stroke-width:0.5;opacity:1.0;" x1="2871.88" x2="2871.88" y1="600.785" y2="720.121"/>
  <line id="right-margin-Black-S" style="fill:none;stroke:#00AEEF;stroke-width:0.5;opacity:1.0;" x1="2994.92" x2="2994.92" y1="600.785" y2="720.121"/>
 </g>
 <g id="Symbols">
  <g id="Black-S" transform="matrix(1 0 0 1 2871.88 696)">
   <path class="monochrome-0 SFSymbolsPreview000000" d="M18.9468-46.0176C18-46.0176 17.9767-45.9149 17.7132-40.8704C17.4476-35.7886 17.6377-2.47863 17.9444-0.260927C18.0313 0.36823 18.2839 1.04119 18.5053 1.23515C19.041 1.70471 96.3709 1.42284 97.2409 0.94816C97.6315 0.735027 98.0991-0.383471 98.3461-1.69323C98.8206-4.2093 98.9422-33.146 98.512-41.1414L98.2504-46.0176L97.1054-46.0176C96.4751-46.0176 95.9581-45.8122 95.9581-45.5606C95.9581-45.3089 95.6872-45.1035 95.3552-45.1035C95.0233-45.1035 94.7523-44.8832 94.7523-44.6146C94.7523-44.3345 94.4079-44.2513 93.9462-44.418C93.493-44.5815 93.1425-44.5004 93.1425-44.232C93.1425-43.5584 90.9652-42.3585 89.7426-42.3585C89.1784-42.3585 88.7168-42.1531 88.7168-41.9015C88.7168-41.6498 88.4459-41.4417 88.1139-41.4417C87.782-41.4417 87.1662-41.0522 86.747-40.5754C86.3278-40.0987 85.2419-39.5675 84.3333-39.3929C83.4246-39.2183 82.6812-38.8655 82.6812-38.609C82.6812-38.3525 82.4103-38.2595 82.0784-38.4043C81.7464-38.5492 81.4732-38.4701 81.4732-38.2263C81.4732-37.9826 81.2023-37.7825 80.8704-37.7825C80.5384-37.7825 80.2674-37.5771 80.2674-37.3255C80.2674-37.0738 79.9282-36.8658 79.5128-36.8658C79.0973-36.8658 78.5279-36.555 78.2486-36.1723C77.9694-35.7894 76.9517-35.25 75.9868-34.9737C75.0218-34.6975 74.2319-34.3066 74.2319-34.1048C74.2319-33.903 73.6695-33.5963 72.9818-33.4245C72.2942-33.2527 71.0927-32.6194 70.311-32.0161C69.5294-31.4129 68.4617-30.9186 67.9393-30.9186C67.417-30.9186 66.9907-30.7132 66.9907-30.4616C66.9907-30.2099 66.6271-30.0045 66.1845-30.0045C65.7419-30.0045 65.3807-29.7803 65.3807-29.5076C65.3807-29.2349 65.1549-29.0987 64.8784-29.2047C64.6017-29.3106 64.173-29.087 63.9274-28.7077C63.6816-28.3285 62.823-28.0027 62.0183-27.9823C61.2087-27.9618 60.5539-27.7109 60.5532-27.4216C60.5532-26.8007 59.6288-26.3428 58.3778-26.3428C57.0434-26.3428 53.6298-27.7213 52.7068-28.6334C52.2642-29.0706 51.6748-29.3354 51.3982-29.2207C51.1216-29.1058 50.8958-29.235 50.8958-29.5076C50.8958-29.7803 50.5322-30.0045 50.0897-30.0045C49.6471-30.0045 49.2859-30.2099 49.2859-30.4616C49.2859-30.7132 49.015-30.9186 48.683-30.9186C48.3511-30.9186 48.0778-31.124 48.0778-31.3757C48.0778-31.6274 47.4386-31.8327 46.6572-31.8327C45.8096-31.8327 45.1506-32.0933 45.0215-32.4758C44.9025-32.8287 44.1824-33.2492 43.4233-33.4112C42.664-33.5732 42.0446-33.8793 42.0446-34.0915C42.0446-34.3037 41.4274-34.6087 40.6754-34.7692C39.9233-34.9295 38.8542-35.4682 38.2989-35.965C37.7437-36.4617 37.0017-36.8658 36.6493-36.8658C36.2969-36.8658 36.009-37.0658 36.009-37.3095C36.009-37.5534 35.7358-37.6351 35.4039-37.4902C35.0355-37.3295 34.801-37.4901 34.801-37.9021C34.801-38.3501 34.2273-38.6649 33.0953-38.8375C32.157-38.9807 31.1161-39.4752 30.782-39.9377C30.4478-40.4002 29.8584-40.7083 29.4711-40.6206C29.0839-40.533 28.7654-40.6826 28.7654-40.9528C28.7654-41.2229 28.4946-41.4417 28.1626-41.4417C27.8307-41.4417 27.5598-41.6498 27.5598-41.9015C27.5598-42.1531 27.0982-42.3585 26.5339-42.3585C25.3113-42.3585 23.1341-43.5584 23.1341-44.232C23.1341-44.5003 22.7812-44.5815 22.328-44.418C21.8663-44.2513 21.5242-44.3344 21.5242-44.6146C21.5242-44.8832 21.1606-45.1035 20.7181-45.1035C20.2755-45.1035 19.9143-45.3089 19.9143-45.5606C19.9143-45.8122 19.4783-46.0176 18.9468-46.0176ZM58.831-71.4139C27.6554-71.4139 19.7463-71.2977 19.6104-70.8345C19.5163-70.5155 19.1843-69.9619 18.8721-69.6068C18.4292-69.1031 18.3043-67.2964 18.3043-61.3797C18.3043-54.1129 18.3374-53.7984 19.1057-53.7984C19.5464-53.7984 20.1332-53.3849 20.4096-52.8815C20.686-52.3782 21.2306-51.9674 21.62-51.9674C22.0093-51.9674 22.328-51.7674 22.328-51.5236C22.328-51.2799 22.5989-51.198 22.9309-51.343C23.2628-51.4879 23.5361-51.3797 23.5361-51.1012C23.5361-50.8225 23.9076-50.5936 24.3632-50.5936C24.8189-50.5936 25.0925-50.411 24.9708-50.1871C24.849-49.963 25.3805-49.6451 26.1531-49.4802C26.9256-49.3154 27.5598-48.9843 27.5598-48.7441C27.5598-48.5038 28.0113-48.3056 28.5645-48.3056C29.1178-48.3056 29.8898-47.9438 30.2796-47.5004C30.6694-47.0572 31.3039-46.7626 31.6886-46.8467C32.0734-46.931 32.3872-46.7794 32.3872-46.5092C32.3872-46.2391 32.6582-46.0176 32.9901-46.0176C33.322-46.0176 33.5953-45.8122 33.5953-45.5606C33.5953-45.3089 34.0568-45.1035 34.6211-45.1035C35.8437-45.1035 38.0209-43.9036 38.0209-43.2302C38.0209-42.9617 38.3716-42.8805 38.8247-43.044C39.2863-43.2108 39.6285-43.1276 39.6285-42.8475C39.6285-42.5788 39.9018-42.3585 40.2337-42.3585C40.5657-42.3585 40.8365-42.1794 40.8365-41.9599C40.8365-41.7404 41.5629-41.4279 42.4512-41.2664C43.3395-41.1048 44.4255-40.5624 44.8649-40.0626C45.3044-39.5628 45.9373-39.1537 46.2693-39.1537C46.6012-39.1537 46.8721-38.9763 46.8721-38.7578C46.8721-38.5393 47.6396-38.2419 48.5779-38.0988C49.6072-37.9418 50.5505-37.4652 50.9566-36.895C51.3616-36.3262 51.8829-36.0602 52.2674-36.228C52.6188-36.3814 52.9077-36.2781 52.9077-35.9994C52.9077-35.7209 53.2792-35.4946 53.7348-35.4946C54.1905-35.4946 54.4512-35.2892 54.3144-35.0375C54.1776-34.7859 54.4405-34.5778 54.8962-34.5778C55.3518-34.5778 55.7234-34.3601 55.7234-34.0915C55.7234-33.811 56.0661-33.7249 56.5295-33.8922C57.0657-34.0857 57.4177-33.9442 57.5787-33.4671C57.8933-32.5349 59.7009-32.5366 60.0158-33.4698C60.1831-33.9656 60.5551-34.1057 61.2098-33.9188C61.7438-33.7664 62.1608-33.8511 62.1608-34.1128C62.1608-34.3693 62.4317-34.5779 62.7637-34.5779C63.0957-34.5779 63.3689-34.7859 63.3689-35.0376C63.3689-35.2893 63.7301-35.4946 64.1727-35.4946C64.6153-35.4946 64.9788-35.7209 64.9788-35.9995C64.9788-36.2782 65.2354-36.3941 65.5489-36.2573C65.8626-36.1204 66.2144-36.2949 66.3317-36.6427C66.4491-36.9903 67.1883-37.4103 67.9744-37.5779C68.7606-37.7457 69.4045-38.0903 69.4045-38.3433C69.4045-38.5962 69.7657-38.6954 70.2083-38.5639C70.6508-38.4322 71.012-38.5111 71.012-38.7393C71.012-38.9674 71.212-39.1537 71.4537-39.1537C71.6954-39.1537 72.355-39.5695 72.9211-40.0758C73.4872-40.5823 74.6436-41.1228 75.4914-41.2769C76.3392-41.4312 76.936-41.737 76.8162-41.9573C76.6966-42.1775 76.9705-42.3585 77.4261-42.3585C77.8818-42.3585 78.2556-42.5848 78.2556-42.8634C78.2556-43.1421 78.5266-43.2527 78.8585-43.1079C79.1904-42.963 79.4614-43.0449 79.4614-43.2886C79.4614-43.5324 79.7468-43.7297 80.0946-43.7297C80.4424-43.7297 80.9988-44.0404 81.3306-44.418C81.6626-44.7955 82.4655-45.1035 83.1136-45.1035C83.7616-45.1035 84.2912-45.3089 84.2912-45.5606C84.2912-45.8124 84.5621-46.0176 84.8941-46.0176C85.226-46.0176 85.4969-46.2391 85.4969-46.5093C85.4969-46.7795 85.8153-46.929 86.2026-46.8415C86.5899-46.7539 87.1793-47.0592 87.5134-47.5217C87.8476-47.9842 88.8885-48.4815 89.8267-48.6245C90.9587-48.7972 91.5325-49.112 91.5325-49.5599C91.5325-49.972 91.7692-50.1326 92.1377-49.9718C92.4696-49.8269 92.7405-49.9061 92.7405-50.1499C92.7405-50.3936 93.1017-50.5936 93.5443-50.5936C93.9869-50.5936 94.3505-50.8226 94.3505-51.1012C94.3505-51.3797 94.6213-51.4879 94.9533-51.343C95.2853-51.1982 95.5562-51.2799 95.5562-51.5237C95.5562-51.7674 95.8271-51.9674 96.159-51.9674C96.491-51.9674 96.7642-52.1728 96.7642-52.4245C96.7642-52.6761 97.0474-52.8817 97.3951-52.8817C97.7429-52.8817 98.3321-53.2273 98.7037-53.6496C99.2695-54.2929 99.3975-55.6117 99.491-61.7731C99.5966-68.7236 99.5551-69.1874 98.741-70.2686L97.8812-71.4139Z"/>
  </g>
  <g id="Regular-S" transform="matrix(1 0 0 1 1393.47 696)">
   <path class="monochrome-0 SFSymbolsPreview000000" d="M17.0188-45.8752C16.1029-45.8752 16.0804-45.7788 15.8255-41.0429C15.5685-36.272 15.7524-4.99981 16.0492-2.91778C16.1332-2.32711 16.3776-1.69532 16.5917-1.51322C17.1099-1.0724 91.9099-1.33702 92.7515-1.78266C93.1292-1.98275 93.5816-3.03282 93.8205-4.26246C94.2794-6.6246 94.3971-33.791 93.981-41.2973L93.7278-45.8752L92.6204-45.8752C92.0107-45.8752 91.5105-45.6824 91.5105-45.4462C91.5105-45.2099 91.2486-45.0171 90.9275-45.0171C90.6064-45.0171 90.3443-44.8102 90.3443-44.558C90.3443-44.2951 90.0111-44.2169 89.5646-44.3734C89.1262-44.527 88.787-44.4508 88.787-44.1988C88.787-43.5665 86.6811-42.4399 85.4985-42.4399C84.9527-42.4399 84.5062-42.2471 84.5062-42.0109C84.5062-41.7746 84.2441-41.5792 83.9231-41.5792C83.602-41.5792 83.0064-41.2135 82.6009-40.7659C82.1954-40.3184 81.145-39.8197 80.2661-39.6558C79.3872-39.4918 78.6681-39.1606 78.6681-38.9199C78.6681-38.679 78.4061-38.5917 78.085-38.7277C77.7639-38.8637 77.4996-38.7894 77.4996-38.5606C77.4996-38.3318 77.2376-38.1439 76.9165-38.1439C76.5954-38.1439 76.3333-37.9511 76.3333-37.7149C76.3333-37.4786 76.0052-37.2833 75.6033-37.2833C75.2014-37.2833 74.6507-36.9915 74.3805-36.6322C74.1104-36.2728 73.126-35.7664 72.1927-35.507C71.2593-35.2476 70.4952-34.8807 70.4952-34.6912C70.4952-34.5018 69.9512-34.2138 69.286-34.0525C68.6209-33.8913 67.4587-33.2967 66.7026-32.7303C65.9466-32.164 64.9138-31.6999 64.4085-31.6999C63.9033-31.6999 63.4909-31.5071 63.4909-31.2709C63.4909-31.0346 63.1392-30.8417 62.7111-30.8417C62.283-30.8417 61.9336-30.6312 61.9336-30.3753C61.9336-30.1192 61.7152-29.9914 61.4477-30.0908C61.1801-30.1903 60.7654-29.9803 60.5278-29.6243C60.2901-29.2683 59.4596-28.9624 58.6812-28.9432C57.8981-28.924 57.2647-28.6885 57.264-28.4168C57.264-27.8339 56.3699-27.404 55.1598-27.404C53.869-27.404 50.5671-28.6982 49.6743-29.5545C49.2462-29.965 48.6761-30.2136 48.4085-30.1058C48.141-29.998 47.9226-30.1193 47.9226-30.3753C47.9226-30.6312 47.5709-30.8417 47.1428-30.8417C46.7147-30.8417 46.3653-31.0346 46.3653-31.2709C46.3653-31.5071 46.1033-31.6999 45.7822-31.6999C45.4611-31.6999 45.1968-31.8928 45.1968-32.1291C45.1968-32.3654 44.5785-32.5581 43.8226-32.5581C43.0028-32.5581 42.3653-32.8027 42.2404-33.1619C42.1253-33.4931 41.4288-33.8879 40.6945-34.04C39.9601-34.1922 39.3609-34.4795 39.3609-34.6787C39.3609-34.8779 38.7639-35.1643 38.0365-35.3149C37.309-35.4655 36.2749-35.9712 35.7378-36.4376C35.2007-36.9039 34.483-37.2833 34.1421-37.2833C33.8013-37.2833 33.5228-37.471 33.5228-37.6999C33.5228-37.9288 33.2585-38.0055 32.9375-37.8695C32.5811-37.7186 32.3543-37.8694 32.3543-38.2562C32.3543-38.6768 31.7994-38.9723 30.7044-39.1343C29.7968-39.2688 28.79-39.733 28.4668-40.1673C28.1435-40.6015 27.5734-40.8907 27.1988-40.8083C26.8242-40.7261 26.5162-40.8666 26.5162-41.1203C26.5162-41.3738 26.2542-41.5792 25.9331-41.5792C25.612-41.5792 25.35-41.7746 25.35-42.0109C25.35-42.2471 24.9035-42.4399 24.3577-42.4399C23.1751-42.4399 21.0691-43.5665 21.0691-44.1988C21.0691-44.4507 20.7277-44.527 20.2894-44.3734C19.8428-44.2169 19.5119-44.295 19.5119-44.558C19.5119-44.8102 19.1602-45.0171 18.7321-45.0171C18.304-45.0171 17.9546-45.2099 17.9546-45.4462C17.9546-45.6824 17.5329-45.8752 17.0188-45.8752ZM55.5982-69.7178C25.4425-69.7178 17.7921-69.6088 17.6607-69.1739C17.5696-68.8744 17.2485-68.3546 16.9464-68.0213C16.5181-67.5484 16.3972-65.8523 16.3972-60.2975C16.3972-53.4752 16.4293-53.18 17.1725-53.18C17.5988-53.18 18.1663-52.7918 18.4336-52.3192C18.7011-51.8467 19.2279-51.461 19.6045-51.461C19.9811-51.461 20.2894-51.2733 20.2894-51.0444C20.2894-50.8156 20.5513-50.7387 20.8724-50.8748C21.1935-51.0108 21.4579-50.9093 21.4579-50.6478C21.4579-50.3862 21.8173-50.1713 22.258-50.1713C22.6988-50.1713 22.9633-49.9999 22.8457-49.7896C22.7279-49.5792 23.242-49.2807 23.9893-49.126C24.7366-48.9712 25.35-48.6604 25.35-48.4349C25.35-48.2093 25.7867-48.0232 26.3218-48.0232C26.857-48.0232 27.6038-47.6836 27.9808-47.2673C28.3579-46.8512 28.9716-46.5746 29.3437-46.6536C29.7159-46.7328 30.0195-46.5904 30.0195-46.3367C30.0195-46.0832 30.2816-45.8752 30.6027-45.8752C30.9237-45.8752 31.1881-45.6824 31.1881-45.4462C31.1881-45.2099 31.6345-45.0171 32.1803-45.0171C33.3628-45.0171 35.4689-43.8905 35.4689-43.2583C35.4689-43.0063 35.8081-42.93 36.2464-43.0836C36.6929-43.2401 37.0239-43.162 37.0239-42.899C37.0239-42.6468 37.2882-42.4399 37.6093-42.4399C37.9304-42.4399 38.1924-42.2718 38.1924-42.0658C38.1924-41.8597 38.895-41.5663 39.7542-41.4146C40.6135-41.263 41.6639-40.7537 42.089-40.2845C42.5141-39.8153 43.1263-39.4313 43.4473-39.4313C43.7685-39.4313 44.0304-39.2647 44.0304-39.0595C44.0304-38.8544 44.7728-38.5752 45.6804-38.4408C46.6761-38.2935 47.5885-37.846 47.9814-37.3107C48.373-36.7767 48.8773-36.527 49.2492-36.6845C49.5891-36.8285 49.8685-36.7315 49.8685-36.4699C49.8685-36.2084 50.2279-35.996 50.6687-35.996C51.1094-35.996 51.3616-35.8031 51.2292-35.5668C51.097-35.3306 51.3512-35.1352 51.7921-35.1352C52.2328-35.1352 52.5921-34.9309 52.5921-34.6787C52.5921-34.4153 52.9237-34.3345 53.372-34.4916C53.8906-34.6733 54.2311-34.5404 54.3868-34.0925C54.6911-33.2173 56.4396-33.2189 56.7441-34.095C56.906-34.5604 57.2659-34.692 57.899-34.5165C58.4157-34.3735 58.819-34.4529 58.819-34.6986C58.819-34.9395 59.0811-35.1353 59.4022-35.1353C59.7233-35.1353 59.9876-35.3306 59.9876-35.5669C59.9876-35.8032 60.337-35.9959 60.7651-35.9959C61.1932-35.9959 61.5448-36.2084 61.5448-36.47C61.5448-36.7316 61.793-36.8404 62.0963-36.7119C62.3997-36.5835 62.74-36.7473 62.8535-37.0738C62.967-37.4001 63.682-37.7944 64.4424-37.9518C65.2029-38.1093 65.8257-38.4328 65.8257-38.6704C65.8257-38.9078 66.1751-39.001 66.6032-38.8774C67.0313-38.7538 67.3807-38.8279 67.3807-39.0421C67.3807-39.2563 67.5741-39.4312 67.8079-39.4312C68.0417-39.4312 68.6797-39.8215 69.2273-40.2969C69.7749-40.7724 70.8934-41.2798 71.7135-41.4245C72.5336-41.5693 73.1108-41.8564 72.995-42.0633C72.8793-42.27 73.1442-42.4399 73.5849-42.4399C74.0257-42.4399 74.3873-42.6524 74.3873-42.914C74.3873-43.1756 74.6494-43.2794 74.9705-43.1435C75.2915-43.0075 75.5536-43.0843 75.5536-43.3131C75.5536-43.542 75.8297-43.7272 76.1661-43.7272C76.5025-43.7272 77.0407-44.019 77.3617-44.3734C77.6828-44.7278 78.4594-45.017 79.0863-45.017C79.7131-45.017 80.2254-45.2098 80.2254-45.4462C80.2254-45.6825 80.4875-45.8752 80.8086-45.8752C81.1296-45.8752 81.3917-46.0832 81.3917-46.3368C81.3917-46.5905 81.6997-46.7309 82.0743-46.6486C82.4489-46.5664 83.019-46.853 83.3422-47.2873C83.6655-47.7215 84.6723-48.1883 85.5798-48.3226C86.6748-48.4848 87.2298-48.7802 87.2298-49.2008C87.2298-49.5877 87.4588-49.7384 87.8152-49.5874C88.1363-49.4515 88.3983-49.5257 88.3983-49.7547C88.3983-49.9835 88.7477-50.1712 89.1758-50.1712C89.6039-50.1712 89.9556-50.3863 89.9556-50.6477C89.9556-50.9092 90.2176-51.0108 90.5387-50.8748C90.8598-50.7388 91.1219-50.8155 91.1219-51.0444C91.1219-51.2733 91.3839-51.461 91.705-51.461C92.0261-51.461 92.2904-51.6538 92.2904-51.8902C92.2904-52.1264 92.5643-52.3193 92.9006-52.3193C93.237-52.3193 93.807-52.6438 94.1664-53.0403C94.7137-53.6442 94.8375-54.8823 94.928-60.6668C95.0301-67.1921 94.99-67.6275 94.2025-68.6426L93.3708-69.7178Z"/>
  </g>
  <g id="Ultralight-S" transform="matrix(1 0 0 1 508.561 696)">
   <path class="monochrome-0 SFSymbolsPreview000000" d="M17.8752-41.0703C17.0957-41.0703 17.0765-40.9844 16.8595-36.7678C16.6409-32.52 16.7974-4.67647 17.0499-2.82271C17.1214-2.2968 17.3295-1.73428 17.5117-1.57215C17.9528-1.17965 81.6213-1.41526 82.3377-1.81204C82.6593-1.9902 83.0443-2.92514 83.2476-4.01996C83.6383-6.12311 83.7384-30.311 83.3842-36.9943L83.1688-41.0703L82.2261-41.0703C81.7071-41.0703 81.2815-40.8986 81.2815-40.6883C81.2815-40.4779 81.0584-40.3062 80.7851-40.3062C80.5118-40.3062 80.2887-40.1221 80.2887-39.8975C80.2887-39.6634 80.0051-39.5938 79.6251-39.7332C79.2519-39.8699 78.9633-39.8021 78.9633-39.5777C78.9633-39.0147 77.1707-38.0117 76.1641-38.0117C75.6995-38.0117 75.3194-37.84 75.3194-37.6297C75.3194-37.4193 75.0964-37.2453 74.8231-37.2453C74.5498-37.2453 74.0428-36.9197 73.6977-36.5212C73.3525-36.1227 72.4584-35.6787 71.7103-35.5328C70.9622-35.3868 70.3501-35.0919 70.3501-34.8775C70.3501-34.6631 70.1271-34.5854 69.8538-34.7065C69.5805-34.8275 69.3555-34.7614 69.3555-34.5577C69.3555-34.3539 69.1325-34.1867 68.8592-34.1867C68.5859-34.1867 68.3628-34.015 68.3628-33.8047C68.3628-33.5943 68.0835-33.4204 67.7414-33.4204C67.3993-33.4204 66.9306-33.1606 66.7006-32.8407C66.4707-32.5207 65.6328-32.0698 64.8384-31.8388C64.0439-31.6079 63.3935-31.2812 63.3935-31.1125C63.3935-30.9438 62.9304-30.6874 62.3642-30.5439C61.7981-30.4003 60.8089-29.8709 60.1653-29.3666C59.5218-28.8623 58.6427-28.4492 58.2126-28.4492C57.7826-28.4492 57.4315-28.2775 57.4315-28.0672C57.4315-27.8568 57.1322-27.6851 56.7678-27.6851C56.4034-27.6851 56.106-27.4977 56.106-27.2698C56.106-27.0418 55.9201-26.928 55.6924-27.0165C55.4646-27.1051 55.1116-26.9181 54.9094-26.6011C54.7071-26.2842 54.0002-26.0118 53.3376-25.9947C52.671-25.9776 52.1319-25.7679 52.1313-25.5261C52.1313-25.0071 51.3703-24.6243 50.3402-24.6243C49.2415-24.6243 46.431-25.7766 45.6711-26.539C45.3067-26.9045 44.8214-27.1258 44.5936-27.0299C44.366-26.9339 44.1801-27.0419 44.1801-27.2698C44.1801-27.4977 43.8807-27.6851 43.5163-27.6851C43.1519-27.6851 42.8545-27.8568 42.8545-28.0672C42.8545-28.2775 42.6315-28.4492 42.3582-28.4492C42.0849-28.4492 41.8599-28.6209 41.8599-28.8313C41.8599-29.0417 41.3336-29.2133 40.6902-29.2133C39.9924-29.2133 39.4498-29.4311 39.3435-29.7509C39.2455-30.0458 38.6526-30.3973 38.0276-30.5327C37.4025-30.6682 36.8925-30.924 36.8925-31.1014C36.8925-31.2788 36.3843-31.5337 35.7652-31.6678C35.1459-31.8019 34.2657-32.2522 33.8086-32.6674C33.3514-33.0826 32.7405-33.4204 32.4503-33.4204C32.1602-33.4204 31.9232-33.5876 31.9232-33.7913C31.9232-33.9951 31.6982-34.0634 31.425-33.9424C31.1216-33.808 30.9286-33.9423 30.9286-34.2866C30.9286-34.6611 30.4563-34.9242 29.5242-35.0685C28.7517-35.1882 27.8947-35.6016 27.6196-35.9882C27.3444-36.3748 26.8591-36.6323 26.5403-36.559C26.2214-36.4858 25.9593-36.6109 25.9593-36.8367C25.9593-37.0624 25.7363-37.2453 25.463-37.2453C25.1896-37.2453 24.9666-37.4193 24.9666-37.6297C24.9666-37.84 24.5866-38.0117 24.122-38.0117C23.1154-38.0117 21.3228-39.0147 21.3228-39.5777C21.3228-39.802 21.0322-39.8699 20.6591-39.7332C20.279-39.5938 19.9973-39.6633 19.9973-39.8975C19.9973-40.1221 19.698-40.3062 19.3336-40.3062C18.9692-40.3062 18.6718-40.4779 18.6718-40.6883C18.6718-40.8986 18.3128-41.0703 17.8752-41.0703ZM50.7134-62.2988C25.0454-62.2988 18.5335-62.2017 18.4216-61.8145C18.3442-61.5479 18.0708-61.0851 17.8137-60.7883C17.4491-60.3673 17.3462-58.8571 17.3462-53.9113C17.3462-47.8371 17.3735-47.5742 18.0061-47.5742C18.3689-47.5742 18.8521-47.2285 19.0796-46.8078C19.3072-46.3871 19.7556-46.0437 20.0762-46.0437C20.3967-46.0437 20.6591-45.8765 20.6591-45.6727C20.6591-45.469 20.8821-45.4006 21.1555-45.5218C21.4288-45.6428 21.6537-45.5524 21.6537-45.3196C21.6537-45.0867 21.9596-44.8954 22.3348-44.8954C22.71-44.8954 22.9352-44.7427 22.835-44.5555C22.7347-44.3682 23.1723-44.1025 23.8084-43.9647C24.4445-43.8269 24.9666-43.5501 24.9666-43.3494C24.9666-43.1485 25.3383-42.9828 25.7938-42.9828C26.2494-42.9828 26.885-42.6804 27.2059-42.3098C27.5269-41.9393 28.0493-41.693 28.366-41.7634C28.6828-41.8338 28.9412-41.7071 28.9412-41.4812C28.9412-41.2555 29.1643-41.0703 29.4376-41.0703C29.7109-41.0703 29.9359-40.8986 29.9359-40.6883C29.9359-40.4779 30.3159-40.3062 30.7805-40.3062C31.7871-40.3062 33.5797-39.3032 33.5797-38.7403C33.5797-38.5159 33.8684-38.448 34.2415-38.5847C34.6215-38.7241 34.9033-38.6546 34.9033-38.4204C34.9033-38.1959 35.1282-38.0117 35.4015-38.0117C35.6749-38.0117 35.8979-37.862 35.8979-37.6785C35.8979-37.495 36.4959-37.2338 37.2272-37.0988C37.9587-36.9638 38.8528-36.5103 39.2146-36.0925C39.5764-35.6748 40.0975-35.3329 40.3708-35.3329C40.6442-35.3329 40.8672-35.1846 40.8672-35.0019C40.8672-34.8193 41.4991-34.5706 42.2716-34.451C43.1191-34.3198 43.8958-33.9214 44.2301-33.4448C44.5635-32.9693 44.9928-32.747 45.3093-32.8873C45.5986-33.0155 45.8365-32.9291 45.8365-32.6962C45.8365-32.4634 46.1424-32.2742 46.5175-32.2742C46.8927-32.2742 47.1073-32.1025 46.9947-31.8921C46.8821-31.6818 47.0985-31.5078 47.4737-31.5078C47.8488-31.5078 48.1547-31.3259 48.1547-31.1014C48.1547-30.8669 48.4369-30.795 48.8185-30.9348C49.2599-31.0966 49.5498-30.9782 49.6823-30.5794C49.9413-29.8002 51.4296-29.8017 51.6889-30.5816C51.8266-30.9961 52.1329-31.1132 52.6719-30.9569C53.1116-30.8296 53.4549-30.9003 53.4549-31.1191C53.4549-31.3335 53.678-31.5079 53.9513-31.5079C54.2246-31.5079 54.4496-31.6817 54.4496-31.8921C54.4496-32.1026 54.747-32.2741 55.1114-32.2741C55.4758-32.2741 55.7751-32.4633 55.7751-32.6962C55.7751-32.9292 55.9863-33.0261 56.2445-32.9117C56.5027-32.7973 56.7924-32.9431 56.889-33.2338C56.9856-33.5244 57.5942-33.8755 58.2414-34.0156C58.8888-34.1558 59.4189-34.4439 59.4189-34.6554C59.4189-34.8668 59.7163-34.9497 60.0807-34.8397C60.4451-34.7297 60.7425-34.7956 60.7425-34.9864C60.7425-35.177 60.9071-35.3328 61.1061-35.3328C61.3051-35.3328 61.8482-35.6803 62.3143-36.1036C62.7804-36.527 63.7324-36.9787 64.4305-37.1076C65.1285-37.2365 65.6198-37.4921 65.5213-37.6763C65.4228-37.8604 65.6483-38.0116 66.0234-38.0116C66.3986-38.0116 66.7064-38.2008 66.7064-38.4337C66.7064-38.6666 66.9295-38.7591 67.2028-38.638C67.476-38.517 67.6991-38.5854 67.6991-38.7891C67.6991-38.9929 67.9341-39.1578 68.2205-39.1578C68.5068-39.1578 68.9649-39.4176 69.2381-39.7331C69.5115-40.0487 70.1725-40.3062 70.7061-40.3062C71.2396-40.3062 71.6757-40.4779 71.6757-40.6883C71.6757-40.8987 71.8988-41.0703 72.1721-41.0703C72.4453-41.0703 72.6684-41.2554 72.6684-41.4813C72.6684-41.7071 72.9306-41.8321 73.2494-41.7589C73.5683-41.6857 74.0535-41.9409 74.3286-42.3275C74.6038-42.7141 75.4608-43.1298 76.2333-43.2494C77.1653-43.3937 77.6377-43.6568 77.6377-44.0312C77.6377-44.3757 77.8326-44.51 78.136-44.3755C78.4093-44.2544 78.6323-44.3206 78.6323-44.5244C78.6323-44.7281 78.9297-44.8953 79.2941-44.8953C79.6585-44.8953 79.9579-45.0867 79.9579-45.3196C79.9579-45.5524 80.1809-45.6428 80.4542-45.5217C80.7275-45.4006 80.9506-45.4689 80.9506-45.6728C80.9506-45.8765 81.1736-46.0437 81.4469-46.0437C81.7202-46.0437 81.9452-46.2153 81.9452-46.4258C81.9452-46.6361 82.1783-46.8079 82.4646-46.8079C82.7509-46.8079 83.2361-47.0968 83.542-47.4498C84.0079-47.9875 84.1133-49.0898 84.1903-54.2401C84.2772-60.05 84.2431-60.4377 83.5728-61.3415L82.8648-62.2988Z"/>
  </g>
 </g>
</svg>
