<?xml version="1.0" encoding="UTF-8"?>
<!--Generator: Apple Native CoreSVG 175.5-->
<!DOCTYPE svg
PUBLIC "-//W3C//DTD SVG 1.1//EN"
       "http://www.w3.org/Graphics/SVG/1.1/DTD/svg11.dtd">
<svg version="1.1" xmlns="http://www.w3.org/2000/svg" xmlns:xlink="http://www.w3.org/1999/xlink" width="3300" height="2200">
 <!--glyph: "", point size: 100.0, font version: "18.0d12e2", template writer version: "101"-->
 <style>.monochrome-0 {fill:#000000}

.SFSymbolsPreview000000 {fill:#000000;opacity:1.0}
</style>
 <g id="Notes">
  <rect height="2200" id="artboard" style="fill:white;opacity:1" width="3300" x="0" y="0"/>
  <line style="fill:none;stroke:black;opacity:1;stroke-width:0.5;" x1="263" x2="3036" y1="292" y2="292"/>
  <text style="stroke:none;fill:black;font-family:sans-serif;font-size:13;font-weight:bold;" transform="matrix(1 0 0 1 263 322)">Weight/Scale Variations</text>
  <text style="stroke:none;fill:black;font-family:sans-serif;font-size:13;text-anchor:middle;" transform="matrix(1 0 0 1 559.711 322)">Ultralight</text>
  <text style="stroke:none;fill:black;font-family:sans-serif;font-size:13;text-anchor:middle;" transform="matrix(1 0 0 1 856.422 322)">Thin</text>
  <text style="stroke:none;fill:black;font-family:sans-serif;font-size:13;text-anchor:middle;" transform="matrix(1 0 0 1 1153.13 322)">Light</text>
  <text style="stroke:none;fill:black;font-family:sans-serif;font-size:13;text-anchor:middle;" transform="matrix(1 0 0 1 1449.84 322)">Regular</text>
  <text style="stroke:none;fill:black;font-family:sans-serif;font-size:13;text-anchor:middle;" transform="matrix(1 0 0 1 1746.56 322)">Medium</text>
  <text style="stroke:none;fill:black;font-family:sans-serif;font-size:13;text-anchor:middle;" transform="matrix(1 0 0 1 2043.27 322)">Semibold</text>
  <text style="stroke:none;fill:black;font-family:sans-serif;font-size:13;text-anchor:middle;" transform="matrix(1 0 0 1 2339.98 322)">Bold</text>
  <text style="stroke:none;fill:black;font-family:sans-serif;font-size:13;text-anchor:middle;" transform="matrix(1 0 0 1 2636.69 322)">Heavy</text>
  <text style="stroke:none;fill:black;font-family:sans-serif;font-size:13;text-anchor:middle;" transform="matrix(1 0 0 1 2933.4 322)">Black</text>
  <line style="fill:none;stroke:black;opacity:1;stroke-width:0.5;" x1="263" x2="3036" y1="1903" y2="1903"/>
  <g transform="matrix(1 0 0 1 263 1933)">
   <path d="M9.24805 0.830078C13.5547 0.830078 17.1387-2.74414 17.1387-7.05078C17.1387-11.3574 13.5449-14.9316 9.23828-14.9316C4.94141-14.9316 1.36719-11.3574 1.36719-7.05078C1.36719-2.74414 4.95117 0.830078 9.24805 0.830078ZM9.24805-0.654297C5.70312-0.654297 2.87109-3.49609 2.87109-7.05078C2.87109-10.6055 5.69336-13.4473 9.23828-13.4473C12.793-13.4473 15.6445-10.6055 15.6445-7.05078C15.6445-3.49609 12.8027-0.654297 9.24805-0.654297ZM5.6543-7.05078C5.6543-6.62109 5.95703-6.32812 6.40625-6.32812L8.50586-6.32812L8.50586-4.20898C8.50586-3.76953 8.79883-3.4668 9.22852-3.4668C9.67773-3.4668 9.9707-3.76953 9.9707-4.20898L9.9707-6.32812L12.0898-6.32812C12.5293-6.32812 12.832-6.62109 12.832-7.05078C12.832-7.49023 12.5293-7.79297 12.0898-7.79297L9.9707-7.79297L9.9707-9.90234C9.9707-10.3516 9.67773-10.6543 9.22852-10.6543C8.79883-10.6543 8.50586-10.3516 8.50586-9.90234L8.50586-7.79297L6.40625-7.79297C5.95703-7.79297 5.6543-7.49023 5.6543-7.05078Z"/>
  </g>
  <g transform="matrix(1 0 0 1 281.867 1933)">
   <path d="M11.709 2.91016C17.1582 2.91016 21.6699-1.61133 21.6699-7.05078C21.6699-12.5 17.1484-17.0117 11.6992-17.0117C6.25977-17.0117 1.74805-12.5 1.74805-7.05078C1.74805-1.61133 6.26953 2.91016 11.709 2.91016ZM11.709 1.25C7.09961 1.25 3.41797-2.44141 3.41797-7.05078C3.41797-11.6602 7.08984-15.3516 11.6992-15.3516C16.3086-15.3516 20.0098-11.6602 20.0098-7.05078C20.0098-2.44141 16.3184 1.25 11.709 1.25ZM7.17773-7.05078C7.17773-6.57227 7.50977-6.25 8.00781-6.25L10.8789-6.25L10.8789-3.36914C10.8789-2.88086 11.2109-2.53906 11.6895-2.53906C12.1777-2.53906 12.5195-2.87109 12.5195-3.36914L12.5195-6.25L15.4004-6.25C15.8887-6.25 16.2305-6.57227 16.2305-7.05078C16.2305-7.53906 15.8887-7.88086 15.4004-7.88086L12.5195-7.88086L12.5195-10.752C12.5195-11.25 12.1777-11.5918 11.6895-11.5918C11.2109-11.5918 10.8789-11.25 10.8789-10.752L10.8789-7.88086L8.00781-7.88086C7.50977-7.88086 7.17773-7.53906 7.17773-7.05078Z"/>
  </g>
  <g transform="matrix(1 0 0 1 305.646 1933)">
   <path d="M14.9707 5.66406C21.9336 5.66406 27.6953-0.0976562 27.6953-7.05078C27.6953-14.0137 21.9238-19.7754 14.9609-19.7754C8.00781-19.7754 2.25586-14.0137 2.25586-7.05078C2.25586-0.0976562 8.01758 5.66406 14.9707 5.66406ZM14.9707 3.84766C8.93555 3.84766 4.08203-1.01562 4.08203-7.05078C4.08203-13.0957 8.92578-17.9492 14.9609-17.9492C21.0059-17.9492 25.8691-13.0957 25.8691-7.05078C25.8691-1.01562 21.0156 3.84766 14.9707 3.84766ZM9.19922-7.05078C9.19922-6.5332 9.57031-6.17188 10.1172-6.17188L14.0625-6.17188L14.0625-2.2168C14.0625-1.67969 14.4336-1.29883 14.9512-1.29883C15.4883-1.29883 15.8594-1.66992 15.8594-2.2168L15.8594-6.17188L19.8145-6.17188C20.3516-6.17188 20.7324-6.5332 20.7324-7.05078C20.7324-7.59766 20.3613-7.96875 19.8145-7.96875L15.8594-7.96875L15.8594-11.9141C15.8594-12.4609 15.4883-12.8418 14.9512-12.8418C14.4336-12.8418 14.0625-12.4609 14.0625-11.9141L14.0625-7.96875L10.1172-7.96875C9.57031-7.96875 9.19922-7.59766 9.19922-7.05078Z"/>
  </g>
  <text style="stroke:none;fill:black;font-family:sans-serif;font-size:13;font-weight:bold;" transform="matrix(1 0 0 1 263 1953)">Design Variations</text>
  <text style="stroke:none;fill:black;font-family:sans-serif;font-size:13;" transform="matrix(1 0 0 1 263 1971)">Symbols are supported in up to nine weights and three scales.</text>
  <text style="stroke:none;fill:black;font-family:sans-serif;font-size:13;" transform="matrix(1 0 0 1 263 1989)">For optimal layout with text and other symbols, vertically align</text>
  <text style="stroke:none;fill:black;font-family:sans-serif;font-size:13;" transform="matrix(1 0 0 1 263 2007)">symbols with the adjacent text.</text>
  <line style="fill:none;stroke:#00AEEF;stroke-width:0.5;opacity:1.0;" x1="776" x2="776" y1="1919" y2="1933"/>
  <g transform="matrix(1 0 0 1 776 1933)">
   <path d="M3.31055 0.15625C3.82812 0.15625 4.08203-0.0390625 4.26758-0.585938L5.52734-4.0332L11.2891-4.0332L12.5488-0.585938C12.7344-0.0390625 12.9883 0.15625 13.4961 0.15625C14.0137 0.15625 14.3457-0.15625 14.3457-0.644531C14.3457-0.810547 14.3164-0.966797 14.2383-1.17188L9.6582-13.3691C9.43359-13.9648 9.0332-14.2676 8.4082-14.2676C7.80273-14.2676 7.39258-13.9746 7.17773-13.3789L2.59766-1.16211C2.51953-0.957031 2.49023-0.800781 2.49023-0.634766C2.49023-0.146484 2.80273 0.15625 3.31055 0.15625ZM6.00586-5.51758L8.37891-12.0898L8.42773-12.0898L10.8008-5.51758Z"/>
  </g>
  <line style="fill:none;stroke:#00AEEF;stroke-width:0.5;opacity:1.0;" x1="793.197" x2="793.197" y1="1919" y2="1933"/>
  <text style="stroke:none;fill:black;font-family:sans-serif;font-size:13;font-weight:bold;" transform="matrix(1 0 0 1 776 1953)">Margins</text>
  <text style="stroke:none;fill:black;font-family:sans-serif;font-size:13;" transform="matrix(1 0 0 1 776 1971)">Leading and trailing margins on the left and right side of each symbol</text>
  <text style="stroke:none;fill:black;font-family:sans-serif;font-size:13;" transform="matrix(1 0 0 1 776 1989)">can be adjusted by modifying the x-location of the margin guidelines.</text>
  <text style="stroke:none;fill:black;font-family:sans-serif;font-size:13;" transform="matrix(1 0 0 1 776 2007)">Modifications are automatically applied proportionally to all</text>
  <text style="stroke:none;fill:black;font-family:sans-serif;font-size:13;" transform="matrix(1 0 0 1 776 2025)">scales and weights.</text>
  <g transform="matrix(1 0 0 1 1289 1933)">
   <path d="M2.8418 1.86523L4.54102 3.57422C5.40039 4.44336 6.38672 4.38477 7.31445 3.35938L18.0078-8.42773L17.041-9.4043L6.42578 2.27539C6.07422 2.67578 5.74219 2.77344 5.27344 2.30469L4.10156 1.14258C3.63281 0.683594 3.74023 0.341797 4.14062-0.0195312L15.6152-10.8203L14.6387-11.7871L3.04688-0.898438C2.06055 0.0195312 1.98242 0.996094 2.8418 1.86523ZM9.25781-16.3281C8.83789-15.918 8.80859-15.3418 9.04297-14.9512C9.27734-14.5898 9.73633-14.3555 10.3809-14.5215C11.8457-14.8633 13.3691-14.9219 14.7949-13.9844L14.209-12.5293C13.8672-11.6992 14.043-11.1133 14.5801-10.5664L16.875-8.25195C17.3633-7.76367 17.7734-7.74414 18.3398-7.8418L19.4043-8.03711L20.0684-7.36328L20.0293-6.80664C19.9902-6.30859 20.1172-5.92773 20.6055-5.44922L21.3672-4.70703C21.8457-4.22852 22.4609-4.19922 22.9297-4.66797L25.8398-7.58789C26.3086-8.05664 26.2891-8.65234 25.8105-9.13086L25.0391-9.89258C24.5605-10.3711 24.1895-10.5273 23.7109-10.4883L23.1348-10.4395L22.4902-11.0742L22.7344-12.1973C22.8613-12.7637 22.7051-13.2031 22.1191-13.7891L19.9219-15.9766C16.582-19.2969 12.1484-19.2188 9.25781-16.3281ZM10.752-15.957C13.1836-17.7344 16.4746-17.4316 18.7012-15.2051L21.1328-12.793C21.3672-12.5586 21.4062-12.373 21.3379-12.0312L21.0156-10.5469L22.5195-9.0625L23.5059-9.12109C23.7598-9.13086 23.8379-9.11133 24.0332-8.91602L24.6094-8.33984L22.168-5.89844L21.5918-6.47461C21.3965-6.66992 21.3672-6.74805 21.377-7.01172L21.4453-7.98828L19.9512-9.47266L18.4277-9.21875C18.1055-9.15039 17.959-9.17969 17.7148-9.41406L15.7129-11.416C15.459-11.6504 15.4297-11.8164 15.5859-12.1875L16.4648-14.2773C14.9023-15.7324 12.8711-16.3574 10.8398-15.7617C10.6836-15.7227 10.625-15.8496 10.752-15.957Z"/>
  </g>
  <text style="stroke:none;fill:black;font-family:sans-serif;font-size:13;font-weight:bold;" transform="matrix(1 0 0 1 1289 1953)">Exporting</text>
  <text style="stroke:none;fill:black;font-family:sans-serif;font-size:13;" transform="matrix(1 0 0 1 1289 1971)">Symbols should be outlined when exporting to ensure the</text>
  <text style="stroke:none;fill:black;font-family:sans-serif;font-size:13;" transform="matrix(1 0 0 1 1289 1989)">design is preserved when submitting to Xcode.</text>
  <text id="template-version" style="stroke:none;fill:black;font-family:sans-serif;font-size:13;text-anchor:end;" transform="matrix(1 0 0 1 3036 1933)">Template v.4.0</text>
  <text style="stroke:none;fill:black;font-family:sans-serif;font-size:13;text-anchor:end;" transform="matrix(1 0 0 1 3036 1951)">Requires Xcode 14 or greater</text>
  <text id="descriptive-name" style="stroke:none;fill:black;font-family:sans-serif;font-size:13;text-anchor:end;" transform="matrix(1 0 0 1 3036 1969)">Generated from twitter.house</text>
  <text style="stroke:none;fill:black;font-family:sans-serif;font-size:13;text-anchor:end;" transform="matrix(1 0 0 1 3036 1987)">Typeset at 100 points</text>
  <text style="stroke:none;fill:black;font-family:sans-serif;font-size:13;" transform="matrix(1 0 0 1 263 726)">Small</text>
  <text style="stroke:none;fill:black;font-family:sans-serif;font-size:13;" transform="matrix(1 0 0 1 263 1156)">Medium</text>
  <text style="stroke:none;fill:black;font-family:sans-serif;font-size:13;" transform="matrix(1 0 0 1 263 1586)">Large</text>
 </g>
 <g id="Guides">
  <g id="H-reference" style="fill:#27AAE1;stroke:none;" transform="matrix(1 0 0 1 339 696)">
   <path d="M0.993654 0L3.63775 0L29.3281-67.1323L30.0303-67.1323L30.0303-70.459L28.1226-70.459ZM11.6885-24.4799L46.9815-24.4799L46.2315-26.7285L12.4385-26.7285ZM55.1196 0L57.7637 0L30.6382-70.459L29.4326-70.459L29.4326-67.1323Z"/>
  </g>
  <line id="Baseline-S" style="fill:none;stroke:#27AAE1;opacity:1;stroke-width:0.5;" x1="263" x2="3036" y1="696" y2="696"/>
  <line id="Capline-S" style="fill:none;stroke:#27AAE1;opacity:1;stroke-width:0.5;" x1="263" x2="3036" y1="625.541" y2="625.541"/>
  <g id="H-reference" style="fill:#27AAE1;stroke:none;" transform="matrix(1 0 0 1 339 1126)">
   <path d="M0.993654 0L3.63775 0L29.3281-67.1323L30.0303-67.1323L30.0303-70.459L28.1226-70.459ZM11.6885-24.4799L46.9815-24.4799L46.2315-26.7285L12.4385-26.7285ZM55.1196 0L57.7637 0L30.6382-70.459L29.4326-70.459L29.4326-67.1323Z"/>
  </g>
  <line id="Baseline-M" style="fill:none;stroke:#27AAE1;opacity:1;stroke-width:0.5;" x1="263" x2="3036" y1="1126" y2="1126"/>
  <line id="Capline-M" style="fill:none;stroke:#27AAE1;opacity:1;stroke-width:0.5;" x1="263" x2="3036" y1="1055.54" y2="1055.54"/>
  <g id="H-reference" style="fill:#27AAE1;stroke:none;" transform="matrix(1 0 0 1 339 1556)">
   <path d="M0.993654 0L3.63775 0L29.3281-67.1323L30.0303-67.1323L30.0303-70.459L28.1226-70.459ZM11.6885-24.4799L46.9815-24.4799L46.2315-26.7285L12.4385-26.7285ZM55.1196 0L57.7637 0L30.6382-70.459L29.4326-70.459L29.4326-67.1323Z"/>
  </g>
  <line id="Baseline-L" style="fill:none;stroke:#27AAE1;opacity:1;stroke-width:0.5;" x1="263" x2="3036" y1="1556" y2="1556"/>
  <line id="Capline-L" style="fill:none;stroke:#27AAE1;opacity:1;stroke-width:0.5;" x1="263" x2="3036" y1="1485.54" y2="1485.54"/>
  <line id="left-margin-Ultralight-S" style="fill:none;stroke:#00AEEF;stroke-width:0.5;opacity:1.0;" x1="508.561" x2="508.561" y1="600.785" y2="720.121"/>
  <line id="right-margin-Ultralight-S" style="fill:none;stroke:#00AEEF;stroke-width:0.5;opacity:1.0;" x1="610.861" x2="610.861" y1="600.785" y2="720.121"/>
  <line id="left-margin-Regular-S" style="fill:none;stroke:#00AEEF;stroke-width:0.5;opacity:1.0;" x1="1393.47" x2="1393.47" y1="600.785" y2="720.121"/>
  <line id="right-margin-Regular-S" style="fill:none;stroke:#00AEEF;stroke-width:0.5;opacity:1.0;" x1="1506.22" x2="1506.22" y1="600.785" y2="720.121"/>
  <line id="left-margin-Black-S" style="fill:none;stroke:#00AEEF;stroke-width:0.5;opacity:1.0;" x1="2871.88" x2="2871.88" y1="600.785" y2="720.121"/>
  <line id="right-margin-Black-S" style="fill:none;stroke:#00AEEF;stroke-width:0.5;opacity:1.0;" x1="2994.92" x2="2994.92" y1="600.785" y2="720.121"/>
 </g>
 <g id="Symbols">
  <g id="Black-S" transform="matrix(1 0 0 1 2871.88 696)">
   <path class="monochrome-0 SFSymbolsPreview000000" d="M62.1109-82.4323L37.765-67.438C24.3662-59.1827 13.2476-52.3309 13.0766-52.1624C12.9055-51.994 13.7612-50.3097 14.9015-48.4565L17.0112-45.0869L19.4625-46.4344C20.7739-47.2206 22.1421-47.8387 22.4842-47.8387C22.9974-47.8387 23.1691-42.1099 23.1691-25.6554C23.1691-4.93283 23.226-3.30459 24.2523-1.33902C25.5067 1.01965 26.7037 2.19903 29.2694 3.49067C30.8658 4.2769 34.6291 4.38901 61.9397 4.38901C95.5222 4.38901 95.1226 4.44527 98.2014 1.18811C98.9997 0.345719 99.9697-1.00198 100.369-1.78819C100.768-2.74289 101.11-10.6614 101.281-25.7681L101.566-48.3438L104.417-46.6031C105.956-45.6484 107.324-45.0867 107.381-45.3675C107.495-45.6483 108.465-47.2768 109.548-48.9616L111.487-51.9947L108.236-54.0159C106.469-55.139 102.821-57.3856 100.141-59.0142C97.461-60.5867 87.8247-66.5398 78.7021-72.2118ZM62.2822-72.3796C62.6243-72.3235 69.5798-68.1118 77.7901-63.0575L92.7284-53.7913L92.7284-29.6427C92.7284-16.3331 92.5004-5.10166 92.2724-4.70854C91.8733-4.14695 85.4306-4.03438 61.8829-4.14671L32.0063-4.31533L32.0063-29.2503L32.0063-54.1286L46.8302-63.338C54.9835-68.3923 61.9401-72.4358 62.2822-72.3796ZM61.4136-51.0692C60.1516-51.0416 58.8929-50.8679 57.6635-50.5344C54.4136-49.6921 49.7954-46.5465 48.0279-43.9632C42.4973-36.101 44.5499-25.2063 52.5321-19.9273C61.6547-14.0307 73.5136-17.5693 78.0749-27.5656C79.7284-31.1036 79.6713-37.0557 78.0749-40.5937C75.1404-47.0853 68.2283-51.218 61.4136-51.0692ZM62.0032-42.6042C63.8619-42.5831 65.7701-42.1212 66.9568-41.2683C69.7505-39.1904 70.7769-37.2803 70.7769-34.0792C70.7769-30.7097 69.6939-28.7445 66.4439-26.6105C62.3958-23.8587 55.4972-26.1614 53.9578-30.7665C52.4753-35.1468 54.1855-39.6391 58.1195-41.8293C59.1423-42.3698 60.5576-42.6206 62.0032-42.6042Z"/>
  </g>
  <g id="Regular-S" transform="matrix(1 0 0 1 1393.47 696)">
   <path class="monochrome-0 SFSymbolsPreview000000" d="M56.1683-78.4782L34.1416-64.9124C22.0192-57.4435 11.9598-51.2444 11.805-51.092C11.6503-50.9395 12.4244-49.4157 13.4561-47.739L15.3648-44.6905L17.5826-45.9096C18.7691-46.6209 20.007-47.1801 20.3165-47.1801C20.7807-47.1801 20.9361-41.9971 20.9361-27.11C20.9361-8.36155 20.9876-6.88842 21.9162-5.1101C23.051-2.97612 24.134-1.90909 26.4553-0.740488C27.8996-0.0291617 31.3044 0.0722669 56.0134 0.0722669C86.3967 0.0722669 86.0351 0.123163 88.8207-2.82371C89.5429-3.58585 90.4205-4.80516 90.7816-5.51648C91.1427-6.38023 91.452-13.5444 91.6067-27.212L91.8644-47.6371L94.4441-46.0622C95.8369-45.1984 97.0743-44.6903 97.1259-44.9443C97.229-45.1984 98.1066-46.6717 99.0867-48.196L100.841-50.9402L97.8996-52.7688C96.3005-53.785 92.9998-55.8176 90.5753-57.291C88.1508-58.7137 79.4325-64.0997 71.1789-69.2314ZM56.3232-69.3832C56.6327-69.3324 62.9256-65.5219 70.3538-60.9491L83.8691-52.5656L83.8691-30.7175C83.8691-18.6758 83.6628-8.5143 83.4565-8.15863C83.0954-7.65054 77.2664-7.54869 55.962-7.65032L28.9315-7.80288L28.9315-30.3625L28.9315-52.8708L42.3432-61.2029C49.7198-65.7757 56.0137-69.434 56.3232-69.3832ZM55.5373-50.1029C54.3956-50.0779 53.2568-49.9208 52.1445-49.619C49.2042-48.8569 45.0259-46.011 43.4268-43.6738C38.4231-36.5606 40.2801-26.7037 47.5019-21.9277C55.7554-16.5927 66.4847-19.7943 70.6115-28.8382C72.1074-32.0392 72.0558-37.4243 70.6115-40.6253C67.9565-46.4985 61.7029-50.2375 55.5373-50.1029ZM56.0708-42.4443C57.7524-42.4252 59.4789-42.0072 60.5525-41.2356C63.0801-39.3557 64.0087-37.6275 64.0087-34.7314C64.0087-31.6829 63.0288-29.9049 60.0885-27.9741C56.426-25.4845 50.1846-27.5679 48.7918-31.7342C47.4506-35.6973 48.9978-39.7616 52.5571-41.7432C53.4824-42.2322 54.7629-42.4591 56.0708-42.4443Z"/>
  </g>
  <g id="Ultralight-S" transform="matrix(1 0 0 1 508.561 696)">
   <path class="monochrome-0 SFSymbolsPreview000000" d="M53.3218-75.3612L32.0723-62.274C20.3776-55.0686 10.6731-49.0883 10.5238-48.9412C10.3745-48.7942 11.1213-47.3241 12.1166-45.7066L13.958-42.7656L16.0975-43.9417C17.2421-44.6279 18.4363-45.1673 18.7349-45.1673C19.1828-45.1673 19.3327-40.1672 19.3327-25.8054C19.3327-7.71836 19.3824-6.2972 20.2782-4.58163C21.373-2.52294 22.4177-1.49355 24.6571-0.366178C26.0505 0.320048 29.3352 0.417902 53.1724 0.417902C82.4837 0.417902 82.135 0.467048 84.8222-2.3759C85.5189-3.11115 86.3656-4.28744 86.7139-4.97367C87.0623-5.80694 87.3607-12.7184 87.51-25.9038L87.7585-45.6082L90.2473-44.0889C91.5909-43.2556 92.7846-42.7653 92.8344-43.0104C92.9339-43.2555 93.7806-44.6769 94.7261-46.1474L96.418-48.7947L93.5809-50.5589C92.0382-51.5392 88.8539-53.5001 86.5149-54.9215C84.176-56.294 75.7652-61.49 67.8029-66.4406ZM53.4713-66.5871C53.7699-66.5381 59.8408-62.862 67.0069-58.4506L80.0453-50.3629L80.0453-29.2856C80.0453-17.6687 79.8463-7.86572 79.6473-7.5226C79.2989-7.03244 73.6756-6.93418 53.1228-7.03222L27.046-7.1794L27.046-28.9431L27.046-50.6573L39.9845-58.6954C47.1009-63.1069 53.1727-66.6361 53.4713-66.5871ZM52.7131-47.987C51.6117-47.9629 50.5131-47.8113 49.44-47.5202C46.6035-46.785 42.5726-44.0395 41.0299-41.7848C36.2027-34.9225 37.9942-25.4134 44.9612-20.8058C52.9236-15.6591 63.2743-18.7477 67.2554-27.4726C68.6986-30.5606 68.6488-35.7558 67.2554-38.8438C64.6941-44.5098 58.6612-48.1169 52.7131-47.987ZM53.2278-40.5986C54.8501-40.5802 56.5156-40.177 57.5513-39.4326C59.9898-37.619 60.8857-35.9518 60.8857-33.1578C60.8857-30.2169 59.9403-28.5016 57.1037-26.639C53.5705-24.2372 47.5492-26.2471 46.2056-30.2664C44.9117-34.0897 46.4043-38.0106 49.8381-39.9222C50.7307-40.394 51.966-40.6129 53.2278-40.5986Z"/>
  </g>
 </g>
</svg>
